<svg width="14" height="14" viewBox="0 0 14 14" fill="none" xmlns="http://www.w3.org/2000/svg">
<g clip-path="url(#clip0)">
<path d="M1 0H0V14H1V0Z" fill="black"/>
<path d="M14 0H13V14H14V0Z" fill="black"/>
<path d="M6 8V7L0 7V8L6 8Z" fill="black"/>
<path d="M4 6H5L5 0H4L4 6Z" fill="black"/>
<path d="M2 11H3L3 9H2V11Z" fill="black"/>
<path d="M4 12H5V11H4V12Z" fill="black"/>
<path d="M12 4H11V6H12V4Z" fill="black"/>
<path d="M12 2H11V3H12V2Z" fill="black"/>
<path d="M10 7H11V6H10V7Z" fill="black"/>
<path d="M10 9H11V8H10V9Z" fill="black"/>
<path d="M3 4V3L0 3V4L3 4Z" fill="black"/>
<path d="M14 1V0L0 0V1L14 1Z" fill="black"/>
<path d="M14 14V13L0 13V14L14 14Z" fill="black"/>
<path d="M8 0H7V14H8V0Z" fill="black"/>
</g>
<defs>
<clipPath id="clip0">
<rect width="14" height="14" fill="white"/>
</clipPath>
</defs>
</svg>
