<svg width="21" height="21" viewBox="0 0 21 21" fill="none" xmlns="http://www.w3.org/2000/svg">
<path d="M6.99941 4.9H8.39941C8.5927 4.9 8.74941 4.74329 8.74941 4.55V3.15C8.74941 2.95672 8.5927 2.8 8.39941 2.8H6.99941C6.80613 2.8 6.64941 2.95672 6.64941 3.15V4.55C6.64941 4.74329 6.80613 4.9 6.99941 4.9ZM7.34941 3.5H8.04941V4.2H7.34941V3.5Z" fill="black"/>
<path d="M9.79922 4.9H11.1992C11.3925 4.9 11.5492 4.74329 11.5492 4.55V3.15C11.5492 2.95672 11.3925 2.8 11.1992 2.8H9.79922C9.60593 2.8 9.44922 2.95672 9.44922 3.15V4.55C9.44922 4.74329 9.60593 4.9 9.79922 4.9ZM10.1492 3.5H10.8492V4.2H10.1492V3.5Z" fill="black"/>
<path d="M12.6 4.9H14C14.1933 4.9 14.35 4.74329 14.35 4.55V3.15C14.35 2.95672 14.1933 2.8 14 2.8H12.6C12.4067 2.8 12.25 2.95672 12.25 3.15V4.55C12.25 4.74329 12.4067 4.9 12.6 4.9ZM12.95 3.5H13.65V4.2H12.95V3.5Z" fill="black"/>
<path d="M6.99941 7.70001H8.39941C8.5927 7.70001 8.74941 7.54329 8.74941 7.35001V5.95001C8.74941 5.75672 8.5927 5.60001 8.39941 5.60001H6.99941C6.80613 5.60001 6.64941 5.75672 6.64941 5.95001V7.35001C6.64941 7.54329 6.80613 7.70001 6.99941 7.70001ZM7.34941 6.30001H8.04941V7.00001H7.34941V6.30001Z" fill="black"/>
<path d="M9.79922 7.70001H11.1992C11.3925 7.70001 11.5492 7.54329 11.5492 7.35001V5.95001C11.5492 5.75672 11.3925 5.60001 11.1992 5.60001H9.79922C9.60593 5.60001 9.44922 5.75672 9.44922 5.95001V7.35001C9.44922 7.54329 9.60593 7.70001 9.79922 7.70001ZM10.1492 6.30001H10.8492V7.00001H10.1492V6.30001Z" fill="black"/>
<path d="M12.6 7.70001H14C14.1933 7.70001 14.35 7.54329 14.35 7.35001V5.95001C14.35 5.75672 14.1933 5.60001 14 5.60001H12.6C12.4067 5.60001 12.25 5.75672 12.25 5.95001V7.35001C12.25 7.54329 12.4067 7.70001 12.6 7.70001ZM12.95 6.30001H13.65V7.00001H12.95V6.30001Z" fill="black"/>
<path d="M6.99941 10.5H8.39941C8.5927 10.5 8.74941 10.3433 8.74941 10.15V8.74999C8.74941 8.55671 8.5927 8.39999 8.39941 8.39999H6.99941C6.80613 8.39999 6.64941 8.55671 6.64941 8.74999V10.15C6.64941 10.3433 6.80613 10.5 6.99941 10.5ZM7.34941 9.09999H8.04941V9.79999H7.34941V9.09999Z" fill="black"/>
<path d="M9.79922 10.5H11.1992C11.3925 10.5 11.5492 10.3433 11.5492 10.15V8.74999C11.5492 8.55671 11.3925 8.39999 11.1992 8.39999H9.79922C9.60593 8.39999 9.44922 8.55671 9.44922 8.74999V10.15C9.44922 10.3433 9.60593 10.5 9.79922 10.5ZM10.1492 9.09999H10.8492V9.79999H10.1492V9.09999Z" fill="black"/>
<path d="M12.6 10.5H14C14.1933 10.5 14.35 10.3433 14.35 10.15V8.74999C14.35 8.55671 14.1933 8.39999 14 8.39999H12.6C12.4067 8.39999 12.25 8.55671 12.25 8.74999V10.15C12.25 10.3433 12.4067 10.5 12.6 10.5ZM12.95 9.09999H13.65V9.79999H12.95V9.09999Z" fill="black"/>
<path d="M6.99941 13.3H8.39941C8.5927 13.3 8.74941 13.1433 8.74941 12.95V11.55C8.74941 11.3567 8.5927 11.2 8.39941 11.2H6.99941C6.80613 11.2 6.64941 11.3567 6.64941 11.55V12.95C6.64941 13.1433 6.80613 13.3 6.99941 13.3ZM7.34941 11.9H8.04941V12.6H7.34941V11.9Z" fill="black"/>
<path d="M9.79922 13.3H11.1992C11.3925 13.3 11.5492 13.1433 11.5492 12.95V11.55C11.5492 11.3567 11.3925 11.2 11.1992 11.2H9.79922C9.60593 11.2 9.44922 11.3567 9.44922 11.55V12.95C9.44922 13.1433 9.60593 13.3 9.79922 13.3ZM10.1492 11.9H10.8492V12.6H10.1492V11.9Z" fill="black"/>
<path d="M12.6 13.3H14C14.1933 13.3 14.35 13.1433 14.35 12.95V11.55C14.35 11.3567 14.1933 11.2 14 11.2H12.6C12.4067 11.2 12.25 11.3567 12.25 11.55V12.95C12.25 13.1433 12.4067 13.3 12.6 13.3ZM12.95 11.9H13.65V12.6H12.95V11.9Z" fill="black"/>
<path d="M6.99941 16.1H8.39941C8.5927 16.1 8.74941 15.9433 8.74941 15.75V14.35C8.74941 14.1567 8.5927 14 8.39941 14H6.99941C6.80613 14 6.64941 14.1567 6.64941 14.35V15.75C6.64941 15.9433 6.80613 16.1 6.99941 16.1ZM7.34941 14.7H8.04941V15.4H7.34941V14.7Z" fill="black"/>
<path d="M9.79922 16.1H11.1992C11.3925 16.1 11.5492 15.9433 11.5492 15.75V14.35C11.5492 14.1567 11.3925 14 11.1992 14H9.79922C9.60593 14 9.44922 14.1567 9.44922 14.35V15.75C9.44922 15.9433 9.60593 16.1 9.79922 16.1ZM10.1492 14.7H10.8492V15.4H10.1492V14.7Z" fill="black"/>
<path d="M12.6 16.1H14C14.1933 16.1 14.35 15.9433 14.35 15.75V14.35C14.35 14.1567 14.1933 14 14 14H12.6C12.4067 14 12.25 14.1567 12.25 14.35V15.75C12.25 15.9433 12.4067 16.1 12.6 16.1ZM12.95 14.7H13.65V15.4H12.95V14.7Z" fill="black"/>
<path d="M15.7496 20.3V2.1H16.0996C16.2929 2.1 16.4496 1.94329 16.4496 1.75V0.35C16.4496 0.156712 16.2929 0 16.0996 0H4.89961C4.70632 0 4.54961 0.156712 4.54961 0.35V1.75C4.54961 1.94329 4.70632 2.1 4.89961 2.1H5.24961V20.3H2.09961V21H18.8996V20.3H15.7496ZM5.24961 0.7H15.7496V1.4H5.24961V0.7ZM10.1496 20.3H8.74961V17.5H10.1496V20.3ZM12.2496 20.3H10.8496V17.5H12.2496V20.3ZM15.0496 20.3H12.9496V17.15C12.9496 16.9567 12.7929 16.8 12.5996 16.8H8.39961C8.20632 16.8 8.04961 16.9567 8.04961 17.15V20.3H5.94961V2.1H15.0496V20.3Z" fill="black"/>
</svg>
