<svg width="18" height="18" viewBox="0 0 18 18" fill="none" xmlns="http://www.w3.org/2000/svg">
<g clip-path="url(#clip0)">
<path d="M3.37639 2.25144C3.28039 2.25144 3.18439 2.21469 3.11089 2.14194L1.87639 0.906686L0.641891 2.14194C0.495641 2.28819 0.257891 2.28819 0.111641 2.14194C-0.0346094 1.99569 -0.0346094 1.75794 0.111641 1.61169L1.61164 0.111686C1.75789 -0.0345636 1.99564 -0.0345636 2.14189 0.111686L3.64189 1.61169C3.78814 1.75794 3.78814 1.99569 3.64189 2.14194C3.56839 2.21469 3.47239 2.25144 3.37639 2.25144Z" fill="black"/>
<path d="M16.1252 18C16.0292 18 15.9332 17.9633 15.8597 17.8905C15.7134 17.7443 15.7134 17.5065 15.8597 17.3603L17.0942 16.1258L15.8597 14.8912C15.7134 14.745 15.7134 14.5073 15.8597 14.361C16.0059 14.2147 16.2437 14.2147 16.3899 14.361L17.8899 15.861C18.0362 16.0073 18.0362 16.245 17.8899 16.3913L16.3899 17.8913C16.3172 17.9633 16.2212 18 16.1252 18Z" fill="black"/>
<path d="M1.875 18C1.668 18 1.5 17.832 1.5 17.625V0.5625C1.5 0.3555 1.668 0.1875 1.875 0.1875C2.082 0.1875 2.25 0.3555 2.25 0.5625V17.625C2.25 17.832 2.082 18 1.875 18Z" fill="black"/>
<path d="M17.4375 16.5H0.375C0.168 16.5 0 16.332 0 16.125C0 15.918 0.168 15.75 0.375 15.75H17.4375C17.6445 15.75 17.8125 15.918 17.8125 16.125C17.8125 16.332 17.6445 16.5 17.4375 16.5Z" fill="black"/>
<path d="M9.75 7.5C9.70425 7.5 9.6585 7.49175 9.615 7.47525L4.74 5.60025C4.59525 5.54475 4.5 5.40525 4.5 5.25C4.5 5.09475 4.59525 4.95525 4.74 4.89975L9.615 3.02475C9.70125 2.99175 9.798 2.99175 9.88425 3.02475L14.7593 4.89975C14.9048 4.95525 15 5.09475 15 5.25C15 5.40525 14.9048 5.54475 14.76 5.60025L9.885 7.47525C9.8415 7.49175 9.79575 7.5 9.75 7.5ZM5.91975 5.25L9.75 6.723L13.5803 5.25L9.75 3.777L5.91975 5.25Z" fill="black"/>
<path d="M9.75 13.5C9.70425 13.5 9.6585 13.4917 9.615 13.4752L4.74 11.6003C4.59525 11.5448 4.5 11.4053 4.5 11.25V5.25C4.5 5.043 4.668 4.875 4.875 4.875C5.082 4.875 5.25 5.043 5.25 5.25V10.9927L9.75 12.7238L14.25 10.9927V5.25C14.25 5.043 14.418 4.875 14.625 4.875C14.832 4.875 15 5.043 15 5.25V11.25C15 11.4053 14.9048 11.5448 14.76 11.6003L9.885 13.4752C9.8415 13.4917 9.79575 13.5 9.75 13.5Z" fill="black"/>
<path d="M9.75 13.5C9.543 13.5 9.375 13.332 9.375 13.125V7.125C9.375 6.918 9.543 6.75 9.75 6.75C9.957 6.75 10.125 6.918 10.125 7.125V13.125C10.125 13.332 9.957 13.5 9.75 13.5Z" fill="black"/>
</g>
<defs>
<clipPath id="clip0">
<rect width="18" height="18" fill="white"/>
</clipPath>
</defs>
</svg>
