<svg width="504" height="414" viewBox="0 0 504 414" fill="none" xmlns="http://www.w3.org/2000/svg">
<g clip-path="url(#clip0)">
<path d="M503.749 -240H0V413.471H503.749V-240Z" fill="white"/>
<path d="M456.498 413.471C463.551 413.471 469.193 407.813 469.294 400.841C469.797 365.881 472.618 314.249 406.929 299.901C353.734 288.382 385.268 193.505 242.002 199.668C139.136 204.114 166.439 291.009 86.5448 298.284C33.3489 303.134 32.8451 370.629 34.9608 401.548C35.3638 408.318 41.0058 413.572 47.7561 413.572H456.498V413.471Z" fill="#B5DFEA"/>
<path opacity="0.55" d="M406.929 299.901C353.733 288.382 385.268 193.505 242.002 199.668C217.52 200.679 200.493 206.438 187.496 214.622C191.828 214.016 196.463 213.612 201.4 213.41C344.666 207.246 313.131 302.124 366.327 313.642C431.311 327.788 429.296 378.41 428.691 413.471H456.398C463.45 413.471 469.092 407.813 469.193 400.841C469.797 365.78 472.618 314.148 406.929 299.901Z" fill="#90CEDD"/>
<path d="M343.356 195.525L175.204 175.822C168.051 175.014 161.502 180.167 160.696 187.341L148.103 295.253C147.297 302.426 152.435 308.994 159.588 309.802L327.74 329.505C334.893 330.314 341.442 325.161 342.248 317.987L354.842 210.075C355.648 202.901 350.509 196.435 343.356 195.525Z" fill="#D7F0F9"/>
<path d="M353.632 220.785L354.841 210.075C355.647 202.901 350.509 196.334 343.356 195.525L175.204 175.822C168.051 175.014 161.502 180.167 160.696 187.341L159.487 198.051L353.632 220.785Z" fill="#383D45"/>
<path d="M186.59 263.425L207.949 225.737C209.359 223.312 211.979 221.998 214.699 222.301C218.528 222.706 221.147 226.141 220.744 229.98L216.311 268.073H216.513C219.132 268.376 221.046 270.801 220.744 273.428C220.442 276.055 218.024 277.975 215.404 277.672H215.203L214.397 284.644C214.095 287.473 211.475 289.494 208.654 289.19C205.833 288.887 203.818 286.26 204.12 283.431L204.926 276.459L189.612 274.641C186.993 274.337 185.079 271.912 185.381 269.285L185.784 265.749C185.885 264.941 186.187 264.132 186.59 263.425ZM206.135 266.254L208.856 242.611C208.856 242.408 208.654 242.408 208.553 242.51L195.96 264.84C195.758 265.244 195.96 265.749 196.463 265.749L205.43 266.759C205.732 266.86 206.035 266.557 206.135 266.254Z" fill="#79C9E8"/>
<path d="M280.692 274.438L302.051 236.75C303.461 234.325 306.081 233.011 308.801 233.315C312.629 233.719 315.249 237.154 314.846 240.994L310.413 279.086H310.614C313.234 279.389 315.148 281.814 314.846 284.441C314.543 287.068 312.126 288.988 309.506 288.685H309.305L308.499 295.657C308.196 298.486 305.577 300.507 302.756 300.204C299.935 299.901 297.92 297.273 298.222 294.444L299.028 287.472L283.714 285.654C281.095 285.351 279.18 282.926 279.483 280.299L279.886 276.762C279.986 275.954 280.289 275.145 280.692 274.438ZM300.237 277.267L302.957 253.624C302.957 253.422 302.756 253.422 302.655 253.523L290.061 275.853C289.86 276.257 290.061 276.762 290.565 276.762L299.532 277.773C299.834 277.874 300.136 277.57 300.237 277.267Z" fill="#79C9E8"/>
<path d="M238.375 241.196C239.584 230.587 245.931 225.131 256.107 226.343C266.383 227.556 271.219 234.326 270.01 244.935L265.98 279.491C264.771 290.1 258.424 295.556 248.248 294.344C237.972 293.131 233.136 286.362 234.345 275.752L238.375 241.196ZM244.722 277.773C244.218 282.522 246.032 284.543 249.357 284.947C252.681 285.351 254.999 283.735 255.502 278.986L259.734 243.015C260.238 238.266 258.424 236.245 255.099 235.841C251.775 235.437 249.457 237.054 248.954 241.803L244.722 277.773Z" fill="#79C9E8"/>
<path d="M179.134 190.776C178.933 192.696 177.119 194.111 175.205 193.909C173.291 193.706 171.88 191.888 172.082 189.968C172.283 188.048 174.097 186.634 176.011 186.836C177.925 187.038 179.436 188.856 179.134 190.776Z" fill="white"/>
<path d="M196.06 192.797C195.858 194.717 194.045 196.132 192.131 195.93C190.216 195.727 188.806 193.909 189.007 191.989C189.209 190.069 191.022 188.655 192.937 188.857C194.851 189.059 196.261 190.776 196.06 192.797Z" fill="#79C9E8"/>
<path d="M213.591 194.818C213.39 196.737 211.576 198.152 209.662 197.95C207.748 197.748 206.337 195.929 206.539 194.009C206.74 192.09 208.554 190.675 210.468 190.877C212.382 191.079 213.793 192.898 213.591 194.818Z" fill="#FFBF4D"/>
<path d="M145.886 317.684C145.886 317.684 143.569 327.788 143.972 338.094C144.274 347.39 143.166 408.115 143.166 408.115H150.521C150.521 408.115 161.099 360.525 161.502 356.787C161.905 353.048 167.245 315.461 167.245 315.461L145.886 317.684Z" fill="#00668E"/>
<path d="M150.824 314.854C150.824 314.854 152.537 327.889 155.459 337.083C158.38 346.278 172.586 408.115 172.586 408.115H179.941C179.941 408.115 178.53 360.525 178.027 356.786C177.523 353.048 173.795 315.461 173.795 315.461L150.824 314.854Z" fill="#0582C1"/>
<path d="M173.189 408.116V413.269H187.294C188.1 413.269 188.403 412.258 187.697 411.753C185.682 410.339 182.358 408.52 179.234 408.015H173.189V408.116Z" fill="#0582C1"/>
<path d="M143.57 408.116V413.269H157.675C158.481 413.269 158.784 412.258 158.078 411.753C156.063 410.339 152.739 408.52 149.615 408.015H143.57V408.116Z" fill="#0582C1"/>
<path d="M169.059 254.534C169.059 254.534 173.895 247.158 168.354 246.451C164.123 245.946 162.309 247.158 162.309 247.158C162.309 247.158 157.372 246.653 154.652 248.977C152.839 250.593 145.988 263.021 156.969 267.568C167.951 272.115 165.634 260.596 165.634 260.596L169.059 254.534Z" fill="#00668E"/>
<path d="M168.354 246.349C164.123 245.844 162.309 247.057 162.309 247.057C162.309 247.057 157.372 246.551 154.652 248.875C152.839 250.492 145.988 262.92 156.969 267.467C162.108 269.589 164.324 268.174 165.231 266.052C154.854 268.982 153.745 256.453 155.458 252.816C157.171 249.178 161.402 250.896 161.402 250.896C163.014 246.753 168.354 247.259 170.571 247.562C170.168 246.955 169.462 246.551 168.354 246.349Z" fill="#05556D"/>
<path d="M162.208 258.07C162.208 258.07 160.797 256.655 159.689 258.07C158.581 259.484 159.286 262.718 161.099 262.92C161.099 262.92 160.596 267.568 156.969 267.466V271.205H165.432V268.376C165.432 268.376 170.671 266.254 170.469 261.909C170.268 257.564 169.059 254.533 169.059 254.533C169.059 254.533 166.137 257.767 162.208 258.07Z" fill="#F98D3D"/>
<path d="M163.519 269.588C164.325 269.892 164.224 270.498 164.224 271.306H165.433V268.376C165.433 268.376 163.418 268.982 160.396 267.366C160.396 267.265 162.108 268.982 163.519 269.588Z" fill="#ED701B"/>
<path d="M165.23 251.199C165.23 251.199 160.898 249.481 160.394 250.795C160.092 251.603 160.898 252.412 162.107 253.119L161.099 253.321C160.898 253.321 160.797 253.624 160.998 253.826C161.301 254.028 162.107 254.23 163.719 254.23L165.23 251.199Z" fill="#F98D3D"/>
<path d="M196.462 262.212C188.1 256.049 165.331 251.098 165.331 251.098L163.416 254.533C163.416 254.533 184.07 262.616 182.76 263.728C181.954 264.435 171.879 269.083 168.454 270.599C167.749 270.902 166.943 271.104 166.137 271.104L155.659 271.003C155.659 271.003 148.102 270.093 142.158 276.964C136.818 283.128 127.852 297.273 127.852 297.273L143.065 319.704L144.778 322.23V322.433C144.778 322.433 145.281 322.534 146.289 322.534C151.226 322.938 166.842 324.251 175.103 322.433L175.305 322.331L174.902 285.553C188.1 275.044 194.447 266.961 196.764 264.334C197.268 263.728 197.167 262.717 196.462 262.212ZM145.382 312.328L143.871 309.095L139.136 298.688L146.994 289.897L145.584 309.196L145.382 312.328Z" fill="#383D45"/>
<path d="M143.973 309.095L145.384 312.329L144.679 322.231L142.966 319.705L143.973 309.095Z" fill="#EFAA3A"/>
<path opacity="0.29" d="M171.377 284.34C169.966 285.35 170.369 294.444 169.966 300.203C169.362 309.701 168.858 317.987 169.261 323.342C171.377 323.241 173.392 322.938 175.105 322.635L175.306 322.534L174.903 285.755C188.101 275.246 194.449 267.163 196.766 264.536C197.37 263.829 197.27 262.818 196.564 262.313C196.464 262.212 185.986 273.63 171.377 284.34Z" fill="#F98D2B"/>
<path d="M178.026 356.787C177.623 354.058 175.608 333.749 174.5 322.635L169.16 323.241C169.16 323.241 176.918 387.2 177.422 408.216H179.84C179.94 408.115 178.53 360.525 178.026 356.787Z" fill="#00668E"/>
<path d="M143.972 259.181L142.36 256.251C143.166 254.735 143.67 253.018 143.67 251.199C143.67 245.137 138.834 240.287 132.789 240.287C126.744 240.287 121.908 245.137 121.908 251.199C121.908 257.261 126.744 262.111 132.789 262.111C135.812 262.111 138.532 260.899 140.547 258.878L143.972 259.181Z" fill="#0582C1"/>
<path d="M102.262 390.13C102.262 390.13 99.9444 388.008 101.556 379.925C103.068 371.842 106.997 364.062 105.083 355.271C103.168 346.481 88.2574 324.252 88.1566 322.837C88.1566 321.321 83.5221 348.602 91.2799 359.414C99.0376 370.124 99.9444 373.863 99.6421 379.521C99.3399 385.179 99.7429 389.726 100.549 391.04L102.262 390.13Z" fill="#79C9E8"/>
<path d="M100.851 373.863C99.944 377.5 99.4402 386.594 100.851 388.716C100.951 388.918 101.153 388.817 101.455 388.412C101.052 386.897 100.75 384.27 101.556 379.925C103.067 371.842 106.996 364.062 105.082 355.271C103.168 346.48 88.257 324.251 88.1562 322.837C88.1562 322.837 90.3727 341.327 98.0297 354.059C103.47 363.051 101.757 370.225 100.851 373.863Z" fill="#49B4D6"/>
<path d="M105.082 389.524C105.082 389.524 100.649 378.511 108.105 369.013C115.56 359.515 127.449 347.289 127.65 342.439C127.65 342.439 130.673 365.476 121.001 371.943C111.329 378.41 104.478 379.521 106.191 389.524H105.082Z" fill="#79C9E8"/>
<path d="M115.46 367.295C104.68 375.176 103.773 384.27 105.486 388.514C105.587 388.817 105.889 389.019 106.191 389.12C104.781 379.42 111.43 378.309 121.002 371.943C130.674 365.476 127.651 342.439 127.651 342.439C127.651 342.439 126.241 359.414 115.46 367.295Z" fill="#49B4D6"/>
<path d="M97.8283 389.827C97.8283 389.827 99.2388 383.967 98.5336 377.702C97.8283 371.438 91.2796 367.901 85.1338 361.233C82.0106 357.797 81.1039 339.711 83.0181 338.094C83.0181 338.094 72.2379 351.23 73.8499 360.828C75.5626 370.427 93.0931 376.692 94.8058 381.34C96.4178 385.988 96.3171 389.928 96.3171 389.928L97.8283 389.827Z" fill="#79C9E8"/>
<path d="M79.2905 343.25C75.7643 352.95 79.3913 364.67 91.2797 371.945C100.045 377.301 97.224 388.516 97.224 388.516L98.6345 384.07C98.7352 382.15 98.7352 379.928 98.5337 377.705C97.8285 371.44 91.2797 367.904 85.134 361.235C82.1115 357.901 81.104 341.027 82.8168 338.299C82.2123 339.006 80.8018 340.825 79.2905 343.25Z" fill="#49B4D6"/>
<path d="M82.7158 338.299C82.8179 338.094 82.9199 338.094 82.9199 338.094C82.8179 338.197 82.8179 338.197 82.7158 338.299Z" fill="#49B4D6"/>
<path d="M107.299 389.12C107.299 389.12 109.818 379.723 116.064 378.409C122.311 377.096 129.464 367.901 129.867 366.083C129.968 366.083 128.859 383.563 107.299 389.12Z" fill="#79C9E8"/>
<path d="M115.762 381.542C111.933 383.462 110.321 386.089 109.717 388.413C128.96 382.249 129.867 366.083 129.867 366.083C129.766 366.487 129.464 367.093 128.859 367.901C127.046 371.135 122.512 378.106 115.762 381.542Z" fill="#49B4D6"/>
<path d="M120.798 385.583H88.0547L91.9839 410.136C92.2862 411.955 93.8982 413.37 95.7117 413.37H113.141C115.056 413.37 116.668 411.955 116.869 410.136L120.798 385.583Z" fill="#FFBF4D"/>
<path d="M120.194 389.625L120.798 385.583H88.0547L88.7599 389.625H120.194Z" fill="#FF9F50"/>
<path d="M112.94 385.583L109.011 410.136C108.709 411.955 107.097 413.37 105.283 413.37H113.242C115.157 413.37 116.769 411.955 116.97 410.136L120.899 385.583H112.94Z" fill="#FF9F50"/>
<path d="M346.68 341.833H198.679V372.044H346.68V341.833Z" fill="#FFBF4D"/>
<path opacity="0.29" d="M346.68 341.833H198.679V349.107H346.68V341.833Z" fill="#F98D2B"/>
<path d="M211.575 341.833H225.076L221.449 349.208H207.948L211.575 341.833Z" fill="#F77E2D"/>
<path d="M242.001 341.833H255.502L251.875 349.208H238.374L242.001 341.833Z" fill="#F77E2D"/>
<path d="M272.428 341.833H285.928L282.301 349.208H268.801L272.428 341.833Z" fill="#F77E2D"/>
<path d="M302.855 341.833H316.355L312.728 349.208H299.228L302.855 341.833Z" fill="#F77E2D"/>
<path d="M346.68 341.833V342.035L343.154 349.208H329.653L333.28 341.833H346.68Z" fill="#F77E2D"/>
<path d="M227.593 372.043H217.115V413.268H227.593V372.043Z" fill="#79C9E8"/>
<path d="M227.594 372.043H225.176V413.268H227.594V372.043Z" fill="#49B4D6"/>
<path d="M329.049 372.043H318.571V413.268H329.049V372.043Z" fill="#79C9E8"/>
<path d="M329.049 372.043H325.926V413.268H329.049V372.043Z" fill="#49B4D6"/>
<path d="M227.593 372.043H217.115V377.197H227.593V372.043Z" fill="#49B4D6"/>
<path d="M329.049 372.043H318.571V377.197H329.049V372.043Z" fill="#49B4D6"/>
<path d="M227.593 337.185H217.115V341.832H227.593V337.185Z" fill="#79C9E8"/>
<path d="M227.594 337.185H225.176V341.832H227.594V337.185Z" fill="#49B4D6"/>
<path d="M329.049 337.185H318.571V341.832H329.049V337.185Z" fill="#79C9E8"/>
<path d="M329.049 337.185H325.926V341.832H329.049V337.185Z" fill="#49B4D6"/>
<path d="M227.593 341.226H217.115V341.832H227.593V341.226Z" fill="#49B4D6"/>
<path d="M329.049 341.226H318.571V341.832H329.049V341.226Z" fill="#49B4D6"/>
<path d="M225.075 341.833L210.164 372.044H198.679V367.901L211.575 341.833H225.075Z" fill="#0582C1"/>
<path d="M242.001 341.833L227.09 372.044H240.59L255.501 341.833H242.001Z" fill="#0582C1"/>
<path d="M285.928 341.833L271.017 372.044H257.517L272.428 341.833H285.928Z" fill="#0582C1"/>
<path d="M316.354 341.833L301.443 372.044H287.942L302.853 341.833H316.354Z" fill="#0582C1"/>
<path d="M333.281 341.833L318.37 372.044H331.871L346.681 342.035L333.281 341.833Z" fill="#0582C1"/>
<path d="M225.076 341.833L221.449 349.208H207.948L211.575 341.833H225.076Z" fill="#00668E"/>
<path d="M255.502 341.833L251.875 349.208H238.375L242.002 341.833H255.502Z" fill="#00668E"/>
<path d="M285.928 341.833L282.301 349.208H268.801L272.428 341.833H285.928Z" fill="#00668E"/>
<path d="M316.355 341.833L312.728 349.208H299.228L302.855 341.833H316.355Z" fill="#00668E"/>
<path d="M346.68 342.035L343.154 349.208H329.653L333.28 341.833L346.68 342.035Z" fill="#00668E"/>
<path opacity="0.55" d="M344.061 354.968H202.81V370.023H344.061V354.968Z" fill="url(#paint0_linear)"/>
<path d="M223.524 339.796C228.577 338.972 232.006 334.196 231.184 329.129C230.362 324.061 225.6 320.622 220.547 321.447C215.494 322.271 212.065 327.047 212.887 332.114C213.709 337.182 218.472 340.621 223.524 339.796Z" fill="#FFBF4D"/>
<path d="M226.283 330.617C226.283 328.293 224.369 326.373 222.052 326.373C219.735 326.373 217.82 328.293 217.82 330.617C217.82 332.941 219.735 334.861 222.052 334.861C224.369 334.861 226.283 332.941 226.283 330.617Z" fill="#0582C1"/>
<path d="M325.28 339.794C330.333 338.97 333.762 334.194 332.94 329.127C332.118 324.059 327.355 320.62 322.303 321.445C317.25 322.269 313.821 327.045 314.643 332.112C315.465 337.18 320.227 340.619 325.28 339.794Z" fill="#FFBF4D"/>
<path d="M327.941 330.617C327.941 328.293 326.026 326.373 323.709 326.373C321.392 326.373 319.478 328.293 319.478 330.617C319.478 332.941 321.392 334.861 323.709 334.861C326.026 334.861 327.941 332.941 327.941 330.617Z" fill="#0582C1"/>
<path d="M402.699 410.137H355.548L362.802 392.657L365.724 385.584L366.53 383.664L367.839 380.532L368.142 379.925L371.063 372.853L371.567 371.539L376.705 359.01C377.612 356.787 380.836 356.787 381.743 359.01L386.881 371.539L387.385 372.853L390.307 379.925L390.609 380.532L391.919 383.664L392.725 385.584L395.646 392.657L402.699 410.137Z" fill="#FFBF4D"/>
<path opacity="0.29" d="M358.671 402.559L355.548 410.137H402.699L399.576 402.559H358.671Z" fill="#F98D2B"/>
<path d="M405.821 405.589H351.819V413.268H405.821V405.589Z" fill="#79C9E8"/>
<path d="M405.822 405.589H394.135V413.268H405.822V405.589Z" fill="#49B4D6"/>
<path opacity="0.29" d="M400.885 405.59H394.235L388.895 392.555L385.974 385.483L385.168 383.563L383.858 380.431L383.556 379.824L380.634 372.751L380.13 371.438L375.798 360.93L376.604 358.909C377.511 356.686 380.735 356.686 381.641 358.909L386.78 371.438L387.283 372.751L390.205 379.824L390.507 380.431L391.817 383.563L392.623 385.483L395.545 392.555L400.885 405.59Z" fill="#F98D2B"/>
<path d="M390.205 379.723H368.04L370.962 372.65H387.283L390.205 379.723Z" fill="#0582C1"/>
<path d="M395.545 392.555H362.801L365.723 385.482H392.623L395.545 392.555Z" fill="#0582C1"/>
<path d="M390.205 379.723H383.556L380.634 372.65H387.283L390.205 379.723Z" fill="#00668E"/>
<path d="M395.546 392.555H388.796L385.975 385.482H392.624L395.546 392.555Z" fill="#00668E"/>
<path d="M102.362 238.266C105.888 238.266 108.911 235.74 109.415 232.204C109.515 231.597 109.515 230.89 109.515 230.284C109.515 222.504 103.269 216.138 95.4104 216.138C95.1082 216.138 94.806 216.138 94.5037 216.138C93.8992 208.459 87.4512 202.396 79.5927 202.396C71.3312 202.396 64.6817 209.065 64.6817 217.351C64.6817 217.755 64.6817 218.058 64.6817 218.462C62.3645 217.148 59.6442 216.441 56.7225 216.542C49.267 216.845 43.0205 222.908 42.5168 230.385C42.5168 230.486 42.5168 230.486 42.5168 230.587C42.3153 234.629 45.5393 238.064 49.67 238.064H102.362V238.266Z" fill="#D7F0F9"/>
<path d="M437.96 249.38C449.042 249.38 449.647 232.608 438.564 232.102C438.262 232.102 437.96 232.102 437.658 232.102C435.643 232.102 433.728 232.406 432.016 233.012C430.504 223.918 422.646 216.946 413.176 216.946C403.504 216.946 395.444 224.221 394.235 233.618C391.917 232.507 389.399 231.9 386.678 231.9C385.167 231.9 383.656 232.102 382.245 232.507C372.473 235.033 374.588 249.481 384.563 249.481H437.96V249.38Z" fill="#D7F0F9"/>
<path d="M304.366 166.628C315.448 166.628 316.053 149.855 304.97 149.35C304.668 149.35 304.366 149.35 304.064 149.35C302.049 149.35 300.134 149.653 298.422 150.259C296.91 141.166 289.052 134.295 279.581 134.295C269.909 134.295 261.95 141.57 260.64 150.866C258.323 149.754 255.804 149.148 253.084 149.148C251.573 149.148 250.062 149.35 248.651 149.754C238.979 152.28 240.994 166.729 250.968 166.729H304.366V166.628Z" fill="#D7F0F9"/>
<path d="M127.349 197.749C142.094 197.749 154.048 185.761 154.048 170.973C154.048 156.185 142.094 144.197 127.349 144.197C112.604 144.197 100.65 156.185 100.65 170.973C100.65 185.761 112.604 197.749 127.349 197.749Z" fill="#FFBF4D"/>
<path d="M127.65 144.197C134.904 148.946 139.639 157.232 139.639 166.527C139.639 181.279 127.751 193.303 112.941 193.303C112.84 193.303 112.84 193.303 112.739 193.303C116.971 196.031 121.907 197.648 127.348 197.648C142.057 197.648 154.047 185.725 154.047 170.872C154.047 156.221 142.259 144.298 127.65 144.197Z" fill="#FF9F50"/>
<path d="M125.433 247.967L126.441 250.089C126.542 250.392 126.642 250.695 126.844 250.999C126.945 250.695 127.045 250.493 127.146 250.089L127.952 247.967H128.657L127.65 250.493C127.348 251.201 127.045 251.908 126.743 252.413C126.441 252.817 126.038 253.019 125.635 253.019C125.433 253.019 125.333 253.019 125.232 253.019L125.333 252.514C125.433 252.514 125.433 252.514 125.534 252.514C126.038 252.514 126.34 252.009 126.542 251.706C126.642 251.605 126.542 251.504 126.542 251.403L124.93 248.068H125.433V247.967Z" fill="white"/>
<path d="M132.587 247.966V252.917H131.982V248.472H129.665V252.917H129.061V247.966H132.587Z" fill="white"/>
<path d="M137.222 252.816C137.02 252.917 136.517 253.018 135.912 253.018C134.502 253.018 133.494 252.109 133.494 250.492C133.494 248.977 134.502 247.865 136.114 247.865C136.718 247.865 137.121 247.966 137.323 248.067L137.121 248.573C136.92 248.471 136.517 248.37 136.114 248.37C135.005 248.37 134.199 249.078 134.199 250.391C134.199 251.604 134.905 252.412 136.114 252.412C136.517 252.412 136.92 252.311 137.121 252.21L137.222 252.816Z" fill="white"/>
<path d="M137.825 252.614C137.825 252.311 138.027 252.109 138.228 252.109C138.53 252.109 138.631 252.311 138.631 252.614C138.631 252.917 138.43 253.119 138.228 253.119C137.926 253.018 137.825 252.816 137.825 252.614Z" fill="white"/>
<path d="M139.336 252.614C139.336 252.311 139.537 252.109 139.739 252.109C140.041 252.109 140.142 252.311 140.142 252.614C140.142 252.917 139.94 253.119 139.739 253.119C139.537 253.018 139.336 252.816 139.336 252.614Z" fill="white"/>
<path d="M140.848 252.614C140.848 252.311 141.049 252.109 141.251 252.109C141.553 252.109 141.654 252.311 141.654 252.614C141.654 252.917 141.452 253.119 141.251 253.119C141.049 253.018 140.848 252.816 140.848 252.614Z" fill="white"/>
</g>
<path d="M175 0H173V180H175V0Z" fill="#79C9E8"/>
<path d="M344 0H342V199H344V0Z" fill="#79C9E8"/>
<defs>
<linearGradient id="paint0_linear" x1="273.45" y1="380.877" x2="273.45" y2="356.573" gradientUnits="userSpaceOnUse">
<stop stop-color="white"/>
<stop offset="1" stop-color="white" stop-opacity="0"/>
</linearGradient>
<clipPath id="clip0">
<rect width="503.749" height="397.697" fill="white" transform="translate(0 15.7739)"/>
</clipPath>
</defs>
</svg>
