<svg width="32" height="32" viewBox="0 0 32 32" fill="none" xmlns="http://www.w3.org/2000/svg">
<path d="M32.0005 16.0004C32.0005 24.8328 24.8329 32.0004 16.0005 32.0004C7.16804 32.0004 0.000488281 24.8469 0.000488281 16.0004C0.000488281 7.15381 7.16804 0.000366211 16.0005 0.000366211C24.8329 0.000366211 32.0005 7.16792 32.0005 16.0004ZM13.3338 8.79049H18.6672C18.8224 8.79049 18.9493 8.66351 18.9493 8.5083V7.64763C18.9493 7.49243 18.8224 7.36545 18.6672 7.36545H13.3338C13.1786 7.36545 13.0516 7.49243 13.0516 7.64763V8.5083C13.0516 8.6494 13.1786 8.79049 13.3338 8.79049ZM21.2209 7.63352H20.2897V8.49419C20.2897 9.38308 19.5702 10.1168 18.6672 10.1168H13.3338C12.4449 10.1168 11.7112 9.39719 11.7112 8.49419V7.63352H10.78C9.79238 7.63352 8.98814 8.43776 8.98814 9.42541V22.8575C8.98814 23.8452 9.79238 24.6494 10.78 24.6494H21.2068C22.1945 24.6494 22.9987 23.8452 22.9987 22.8575V9.42541C23.0128 8.43776 22.2086 7.63352 21.2209 7.63352ZM13.9829 18.1591L12.967 19.8099C12.8682 19.9651 12.6989 20.078 12.5155 20.1203C12.4732 20.1203 12.4308 20.1344 12.4026 20.1344C12.2474 20.1344 12.1063 20.078 11.9934 19.9933L11.0763 19.2737C10.7941 19.048 10.7377 18.6247 10.9635 18.3425C11.1892 18.0603 11.6125 18.0039 11.8947 18.2296L12.2192 18.4836L12.8541 17.4677C13.0516 17.1573 13.4608 17.0586 13.7712 17.2561C14.0816 17.4395 14.1663 17.8487 13.9829 18.1591ZM13.9829 13.376L12.967 15.0268C12.8682 15.182 12.6989 15.2949 12.5155 15.3372C12.4732 15.3372 12.4308 15.3513 12.4026 15.3513C12.2474 15.3513 12.1063 15.2949 11.9934 15.2102L11.0763 14.4907C10.7941 14.2649 10.7377 13.8416 10.9635 13.5594C11.1892 13.2773 11.6125 13.2208 11.8947 13.4466L12.2192 13.7005L12.8541 12.6847C13.0516 12.3743 13.4608 12.2755 13.7712 12.473C14.0816 12.6423 14.1663 13.0515 13.9829 13.376ZM19.9934 20.1344H15.6478C15.2809 20.1344 14.9846 19.8381 14.9846 19.4713C14.9846 19.1044 15.2809 18.8081 15.6478 18.8081H19.9934C20.3603 18.8081 20.6566 19.1044 20.6566 19.4713C20.6566 19.8381 20.3603 20.1344 19.9934 20.1344ZM19.9934 15.3372H15.6478C15.2809 15.3372 14.9846 15.0409 14.9846 14.6741C14.9846 14.3072 15.2809 14.0109 15.6478 14.0109H19.9934C20.3603 14.0109 20.6566 14.3072 20.6566 14.6741C20.6566 15.0409 20.3603 15.3372 19.9934 15.3372Z" fill="#0273BA"/>
</svg>
