<svg width="138" height="14" viewBox="0 0 138 14" fill="none" xmlns="http://www.w3.org/2000/svg">
<path d="M2.07148 9.66768C2.16886 9.67654 2.27952 9.68539 2.40345 9.69424C2.53624 9.69424 2.69116 9.69424 2.86821 9.69424C3.90395 9.69424 4.66969 9.43309 5.16543 8.91079C5.67002 8.3885 5.92232 7.66702 5.92232 6.74636C5.92232 5.78144 5.6833 5.05111 5.20527 4.55537C4.72723 4.05963 3.97034 3.81176 2.9346 3.81176C2.79296 3.81176 2.6469 3.81618 2.4964 3.82503C2.34591 3.82503 2.20427 3.83389 2.07148 3.85159V9.66768ZM8.0602 6.74636C8.0602 7.54308 7.93626 8.238 7.68839 8.83112C7.44052 9.42424 7.08642 9.91555 6.62609 10.3051C6.17462 10.6946 5.62133 10.9867 4.96625 11.1815C4.31117 11.3762 3.57641 11.4736 2.76198 11.4736C2.39017 11.4736 1.9564 11.4559 1.46066 11.4205C0.964922 11.3939 0.478035 11.332 0 11.2346V2.27142C0.478035 2.1829 0.973774 2.12536 1.48722 2.0988C2.00952 2.06339 2.45657 2.04568 2.82837 2.04568C3.61624 2.04568 4.32887 2.13421 4.96625 2.31126C5.61248 2.48831 6.16576 2.76716 6.62609 3.14782C7.08642 3.52848 7.44052 4.01536 7.68839 4.60848C7.93626 5.2016 8.0602 5.91422 8.0602 6.74636Z" fill="white"/>
<path d="M9.25933 11.3541V2.15191H15.4738V3.89143H11.3308V5.69734H15.009V7.39702H11.3308V9.61457H15.7792V11.3541H9.25933Z" fill="white"/>
<path d="M19.6591 11.3541C19.2961 10.5839 18.9376 9.78276 18.5835 8.95063C18.2294 8.1185 17.893 7.29521 17.5743 6.48078C17.2556 5.66635 16.9591 4.88733 16.6846 4.14372C16.4191 3.40012 16.1889 2.73618 15.9941 2.15191H18.2781C18.4551 2.68306 18.6455 3.25848 18.8491 3.87815C19.0615 4.48897 19.274 5.09979 19.4865 5.71062C19.7078 6.32144 19.9202 6.9057 20.1238 7.46341C20.3274 8.02112 20.5178 8.50358 20.6948 8.91079C20.863 8.50358 21.0489 8.02112 21.2525 7.46341C21.465 6.9057 21.6774 6.32144 21.8899 5.71062C22.1112 5.09979 22.3237 4.48897 22.5273 3.87815C22.7397 3.25848 22.9345 2.68306 23.1115 2.15191H25.3158C25.1122 2.73618 24.8776 3.40012 24.612 4.14372C24.3465 4.88733 24.0543 5.66635 23.7356 6.48078C23.417 7.29521 23.0806 8.1185 22.7265 8.95063C22.3724 9.78276 22.0138 10.5839 21.6509 11.3541H19.6591Z" fill="white"/>
<path d="M25.9755 11.3541V2.15191H32.19V3.89143H28.047V5.69734H31.7252V7.39702H28.047V9.61457H32.4954V11.3541H25.9755Z" fill="white"/>
<path d="M39.6452 9.57473V11.3541H33.4972V2.15191H35.5687V9.57473H39.6452Z" fill="white"/>
<path d="M41.9285 6.74636C41.9285 7.19784 41.9816 7.60505 42.0878 7.968C42.2029 8.33096 42.3622 8.64522 42.5658 8.91079C42.7783 9.16752 43.035 9.3667 43.336 9.50834C43.637 9.64998 43.9822 9.7208 44.3717 9.7208C44.7524 9.7208 45.0932 9.64998 45.3942 9.50834C45.704 9.3667 45.9608 9.16752 46.1644 8.91079C46.3768 8.64522 46.5362 8.33096 46.6424 7.968C46.7575 7.60505 46.815 7.19784 46.815 6.74636C46.815 6.29488 46.7575 5.88767 46.6424 5.52471C46.5362 5.15291 46.3768 4.83865 46.1644 4.58192C45.9608 4.31635 45.704 4.11274 45.3942 3.9711C45.0932 3.82946 44.7524 3.75864 44.3717 3.75864C43.9822 3.75864 43.637 3.83389 43.336 3.98438C43.035 4.12602 42.7783 4.32963 42.5658 4.5952C42.3622 4.85192 42.2029 5.16619 42.0878 5.53799C41.9816 5.90095 41.9285 6.30373 41.9285 6.74636ZM48.9529 6.74636C48.9529 7.53423 48.8334 8.22915 48.5944 8.83112C48.3642 9.42424 48.0455 9.9244 47.6383 10.3316C47.2311 10.73 46.7442 11.031 46.1777 11.2346C45.6199 11.4382 45.018 11.54 44.3717 11.54C43.7432 11.54 43.1501 11.4382 42.5924 11.2346C42.0347 11.031 41.5478 10.73 41.1317 10.3316C40.7157 9.9244 40.3881 9.42424 40.1491 8.83112C39.9101 8.22915 39.7906 7.53423 39.7906 6.74636C39.7906 5.95849 39.9145 5.26799 40.1624 4.67487C40.4103 4.0729 40.7422 3.56831 41.1583 3.1611C41.5832 2.75388 42.0701 2.44847 42.619 2.24486C43.1767 2.04126 43.7609 1.93945 44.3717 1.93945C45.0003 1.93945 45.5934 2.04126 46.1511 2.24486C46.7088 2.44847 47.1957 2.75388 47.6118 3.1611C48.0278 3.56831 48.3554 4.0729 48.5944 4.67487C48.8334 5.26799 48.9529 5.95849 48.9529 6.74636Z" fill="white"/>
<path d="M52.9105 2.04568C54.2826 2.04568 55.3361 2.28913 56.0708 2.77601C56.8056 3.25405 57.173 4.04192 57.173 5.13963C57.173 6.24619 56.8012 7.04734 56.0576 7.54308C55.3139 8.02997 54.2516 8.27341 52.8707 8.27341H52.22V11.3541H50.1485V2.2847C50.6 2.19618 51.078 2.13421 51.5826 2.0988C52.0872 2.06339 52.5298 2.04568 52.9105 2.04568ZM53.0433 3.81176C52.8928 3.81176 52.7423 3.81618 52.5918 3.82503C52.4502 3.83389 52.3262 3.84274 52.22 3.85159V6.50734H52.8707C53.5877 6.50734 54.1277 6.40996 54.4907 6.21521C54.8536 6.02045 55.0351 5.6575 55.0351 5.12635C55.0351 4.86963 54.9864 4.65717 54.889 4.48897C54.8005 4.32077 54.6677 4.18799 54.4907 4.09061C54.3225 3.98438 54.1144 3.91356 53.8666 3.87815C53.6187 3.83389 53.3443 3.81176 53.0433 3.81176Z" fill="white"/>
<path d="M58.163 11.3541V2.15191H64.3774V3.89143H60.2344V5.69734H63.9127V7.39702H60.2344V9.61457H64.6828V11.3541H58.163Z" fill="white"/>
<path d="M67.7561 9.66768C67.8535 9.67654 67.9642 9.68539 68.0881 9.69424C68.2209 9.69424 68.3758 9.69424 68.5529 9.69424C69.5886 9.69424 70.3543 9.43309 70.8501 8.91079C71.3547 8.3885 71.607 7.66702 71.607 6.74636C71.607 5.78144 71.3679 5.05111 70.8899 4.55537C70.4119 4.05963 69.655 3.81176 68.6192 3.81176C68.4776 3.81176 68.3315 3.81618 68.181 3.82503C68.0306 3.82503 67.8889 3.83389 67.7561 3.85159V9.66768ZM73.7448 6.74636C73.7448 7.54308 73.6209 8.238 73.373 8.83112C73.1252 9.42424 72.7711 9.91555 72.3107 10.3051C71.8593 10.6946 71.306 10.9867 70.6509 11.1815C69.9958 11.3762 69.2611 11.4736 68.4466 11.4736C68.0748 11.4736 67.641 11.4559 67.1453 11.4205C66.6496 11.3939 66.1627 11.332 65.6846 11.2346V2.27142C66.1627 2.1829 66.6584 2.12536 67.1719 2.0988C67.6942 2.06339 68.1412 2.04568 68.513 2.04568C69.3009 2.04568 70.0135 2.13421 70.6509 2.31126C71.2971 2.48831 71.8504 2.76716 72.3107 3.14782C72.7711 3.52848 73.1252 4.01536 73.373 4.60848C73.6209 5.2016 73.7448 5.91422 73.7448 6.74636Z" fill="white"/>
<path d="M80.6702 11.4736C80.1656 11.4736 79.661 11.4559 79.1565 11.4205C78.6607 11.3939 78.1428 11.3231 77.6028 11.208V2.2847C78.0278 2.20503 78.4925 2.14749 78.9971 2.11208C79.5017 2.06781 79.9709 2.04568 80.4046 2.04568C80.9889 2.04568 81.5245 2.08995 82.0114 2.17847C82.5071 2.25814 82.932 2.39978 83.2861 2.60339C83.6402 2.807 83.9147 3.077 84.1094 3.41339C84.313 3.74094 84.4148 4.14815 84.4148 4.63504C84.4148 5.3698 84.0607 5.94963 83.3525 6.37455C83.9368 6.59587 84.3352 6.89685 84.5476 7.27751C84.7601 7.65817 84.8663 8.08751 84.8663 8.56555C84.8663 9.53047 84.5122 10.2564 83.804 10.7433C83.1047 11.2301 82.0601 11.4736 80.6702 11.4736ZM79.6212 7.3439V9.7208C79.7717 9.7385 79.9355 9.75178 80.1125 9.76063C80.2896 9.76949 80.4843 9.77391 80.6968 9.77391C81.3165 9.77391 81.8166 9.68539 82.1973 9.50834C82.5779 9.33129 82.7683 9.00375 82.7683 8.52571C82.7683 8.10079 82.6089 7.79981 82.2902 7.62276C81.9715 7.43685 81.5156 7.3439 80.9225 7.3439H79.6212ZM79.6212 5.76373H80.6304C81.2678 5.76373 81.7237 5.68406 81.9981 5.52471C82.2725 5.35652 82.4097 5.09094 82.4097 4.72799C82.4097 4.35619 82.2681 4.09504 81.9848 3.94454C81.7015 3.79405 81.2855 3.7188 80.7366 3.7188C80.5596 3.7188 80.3692 3.72323 80.1656 3.73208C79.962 3.73208 79.7806 3.74094 79.6212 3.75864V5.76373Z" fill="white"/>
<path d="M88.9123 5.93636C89.2841 5.30783 89.6382 4.6793 89.9746 4.05077C90.311 3.42225 90.6208 2.78929 90.9041 2.15191H93.188C92.6834 3.14339 92.1611 4.10389 91.6211 5.0334C91.0811 5.96291 90.5102 6.89685 89.9082 7.83522V11.3541H87.8367V7.86177C87.2347 6.92341 86.6593 5.98504 86.1105 5.04668C85.5705 4.10831 85.0482 3.14339 84.5436 2.15191H86.947C87.2303 2.78929 87.5357 3.42225 87.8633 4.05077C88.1908 4.6793 88.5405 5.30783 88.9123 5.93636Z" fill="white"/>
<path d="M99.2053 11.4736C98.7007 11.4736 98.1961 11.4559 97.6916 11.4205C97.1958 11.3939 96.6779 11.3231 96.1379 11.208V2.2847C96.5629 2.20503 97.0276 2.14749 97.5322 2.11208C98.0368 2.06781 98.506 2.04568 98.9398 2.04568C99.524 2.04568 100.06 2.08995 100.546 2.17847C101.042 2.25814 101.467 2.39978 101.821 2.60339C102.175 2.807 102.45 3.077 102.645 3.41339C102.848 3.74094 102.95 4.14815 102.95 4.63504C102.95 5.3698 102.596 5.94963 101.888 6.37455C102.472 6.59587 102.87 6.89685 103.083 7.27751C103.295 7.65817 103.401 8.08751 103.401 8.56555C103.401 9.53047 103.047 10.2564 102.339 10.7433C101.64 11.2301 100.595 11.4736 99.2053 11.4736ZM98.1563 7.3439V9.7208C98.3068 9.7385 98.4706 9.75178 98.6476 9.76063C98.8247 9.76949 99.0194 9.77391 99.2319 9.77391C99.8516 9.77391 100.352 9.68539 100.732 9.50834C101.113 9.33129 101.303 9.00375 101.303 8.52571C101.303 8.10079 101.144 7.79981 100.825 7.62276C100.507 7.43685 100.051 7.3439 99.4576 7.3439H98.1563ZM98.1563 5.76373H99.1655C99.8029 5.76373 100.259 5.68406 100.533 5.52471C100.808 5.35652 100.945 5.09094 100.945 4.72799C100.945 4.35619 100.803 4.09504 100.52 3.94454C100.237 3.79405 99.8206 3.7188 99.2717 3.7188C99.0947 3.7188 98.9043 3.72323 98.7007 3.73208C98.4971 3.73208 98.3157 3.74094 98.1563 3.75864V5.76373Z" fill="#D82222"/>
<path d="M106.268 6.74636C106.268 7.19784 106.321 7.60505 106.427 7.968C106.542 8.33096 106.702 8.64522 106.905 8.91079C107.118 9.16752 107.375 9.3667 107.676 9.50834C107.976 9.64998 108.322 9.7208 108.711 9.7208C109.092 9.7208 109.433 9.64998 109.734 9.50834C110.044 9.3667 110.3 9.16752 110.504 8.91079C110.716 8.64522 110.876 8.33096 110.982 7.968C111.097 7.60505 111.155 7.19784 111.155 6.74636C111.155 6.29488 111.097 5.88767 110.982 5.52471C110.876 5.15291 110.716 4.83865 110.504 4.58192C110.3 4.31635 110.044 4.11274 109.734 3.9711C109.433 3.82946 109.092 3.75864 108.711 3.75864C108.322 3.75864 107.976 3.83389 107.676 3.98438C107.375 4.12602 107.118 4.32963 106.905 4.5952C106.702 4.85192 106.542 5.16619 106.427 5.53799C106.321 5.90095 106.268 6.30373 106.268 6.74636ZM113.292 6.74636C113.292 7.53423 113.173 8.22915 112.934 8.83112C112.704 9.42424 112.385 9.9244 111.978 10.3316C111.571 10.73 111.084 11.031 110.517 11.2346C109.959 11.4382 109.357 11.54 108.711 11.54C108.083 11.54 107.49 11.4382 106.932 11.2346C106.374 11.031 105.887 10.73 105.471 10.3316C105.055 9.9244 104.728 9.42424 104.489 8.83112C104.25 8.22915 104.13 7.53423 104.13 6.74636C104.13 5.95849 104.254 5.26799 104.502 4.67487C104.75 4.0729 105.082 3.56831 105.498 3.1611C105.923 2.75388 106.41 2.44847 106.958 2.24486C107.516 2.04126 108.1 1.93945 108.711 1.93945C109.34 1.93945 109.933 2.04126 110.491 2.24486C111.048 2.44847 111.535 2.75388 111.951 3.1611C112.367 3.56831 112.695 4.0729 112.934 4.67487C113.173 5.26799 113.292 5.95849 113.292 6.74636Z" fill="#D82222"/>
<path d="M113.666 0.346191H115.671L120.133 13.2H118.101L113.666 0.346191Z" fill="white"/>
<path d="M122.991 10.863C122.486 10.863 121.982 10.8453 121.477 10.8098C120.981 10.7833 120.464 10.7125 119.924 10.5974V1.67407C120.349 1.59439 120.813 1.53685 121.318 1.50144C121.822 1.45718 122.292 1.43505 122.725 1.43505C123.31 1.43505 123.845 1.47931 124.332 1.56784C124.828 1.64751 125.253 1.78915 125.607 1.99276C125.961 2.19636 126.235 2.46636 126.43 2.80276C126.634 3.1303 126.736 3.53752 126.736 4.0244C126.736 4.75916 126.382 5.339 125.673 5.76392C126.258 5.98523 126.656 6.28622 126.868 6.66687C127.081 7.04753 127.187 7.47688 127.187 7.95491C127.187 8.91983 126.833 9.64574 126.125 10.1326C125.425 10.6195 124.381 10.863 122.991 10.863ZM121.942 6.73327V9.11016C122.092 9.12787 122.256 9.14115 122.433 9.15C122.61 9.15885 122.805 9.16328 123.018 9.16328C123.637 9.16328 124.137 9.07475 124.518 8.8977C124.899 8.72065 125.089 8.39311 125.089 7.91508C125.089 7.49016 124.93 7.18917 124.611 7.01212C124.292 6.82622 123.836 6.73327 123.243 6.73327H121.942ZM121.942 5.1531H122.951C123.589 5.1531 124.044 5.07342 124.319 4.91408C124.593 4.74588 124.731 4.48031 124.731 4.11736C124.731 3.74555 124.589 3.4844 124.306 3.33391C124.022 3.18342 123.606 3.10817 123.057 3.10817C122.88 3.10817 122.69 3.1126 122.486 3.12145C122.283 3.12145 122.101 3.1303 121.942 3.14801V5.1531Z" fill="white"/>
<path d="M130.054 6.13572C130.054 6.5872 130.107 6.99442 130.213 7.35737C130.328 7.72032 130.487 8.03458 130.691 8.30016C130.903 8.55688 131.16 8.75606 131.461 8.8977C131.762 9.03934 132.107 9.11016 132.497 9.11016C132.878 9.11016 133.218 9.03934 133.519 8.8977C133.829 8.75606 134.086 8.55688 134.29 8.30016C134.502 8.03458 134.661 7.72032 134.768 7.35737C134.883 6.99442 134.94 6.5872 134.94 6.13572C134.94 5.68425 134.883 5.27703 134.768 4.91408C134.661 4.54227 134.502 4.22801 134.29 3.97129C134.086 3.70571 133.829 3.50211 133.519 3.36047C133.218 3.21883 132.878 3.14801 132.497 3.14801C132.107 3.14801 131.762 3.22325 131.461 3.37375C131.16 3.51539 130.903 3.71899 130.691 3.98457C130.487 4.24129 130.328 4.55555 130.213 4.92736C130.107 5.29031 130.054 5.6931 130.054 6.13572ZM137.078 6.13572C137.078 6.9236 136.959 7.61852 136.72 8.22049C136.489 8.8136 136.171 9.31377 135.764 9.72099C135.356 10.1193 134.869 10.4203 134.303 10.6239C133.745 10.8275 133.143 10.9294 132.497 10.9294C131.868 10.9294 131.275 10.8275 130.718 10.6239C130.16 10.4203 129.673 10.1193 129.257 9.72099C128.841 9.31377 128.513 8.8136 128.274 8.22049C128.035 7.61852 127.916 6.9236 127.916 6.13572C127.916 5.34785 128.04 4.65736 128.288 4.06424C128.535 3.46227 128.867 2.95768 129.283 2.55046C129.708 2.14325 130.195 1.83784 130.744 1.63423C131.302 1.43062 131.886 1.32882 132.497 1.32882C133.125 1.32882 133.719 1.43062 134.276 1.63423C134.834 1.83784 135.321 2.14325 135.737 2.55046C136.153 2.95768 136.481 3.46227 136.72 4.06424C136.959 4.65736 137.078 5.34785 137.078 6.13572Z" fill="white"/>
</svg>
