<svg width="30" height="30" viewBox="0 0 30 30" fill="none" xmlns="http://www.w3.org/2000/svg">
<path d="M3.0125 7.50042V7.5C3.0125 6.39787 3.9044 5.5 5 5.5H25C26.0989 5.5 27 6.40114 27 7.5V22.5C27 23.5989 26.0989 24.5 25 24.5H5C3.90121 24.5 3.0001 23.599 3 22.5002C3 22.5001 3 22.5001 3 22.5L3.0125 7.50042ZM25.265 10.424L25.5 10.2771V10V7.5V6.59788L24.735 7.076L15 13.1604L5.265 7.076L4.5 6.59788V7.5V10V10.2771L4.735 10.424L14.735 16.674L15 16.8396L15.265 16.674L25.265 10.424Z" stroke="black"/>
</svg>
