<svg width="196" height="304" viewBox="0 0 196 304" fill="none" xmlns="http://www.w3.org/2000/svg">
<mask id="path-1-outside-1" maskUnits="userSpaceOnUse" x="0" y="2" width="196" height="300" fill="black">
<rect fill="white" y="2" width="196" height="300"/>
<path d="M130.877 277.799L133.23 268.314C133.594 266.794 132.732 265.472 132.732 265.472L89.3879 201.359C96.1812 191.577 96.6783 178.259 89.6199 167.783C87.3665 164.445 84.5166 161.702 81.3354 159.587L79.2477 161.272C83.8539 165.965 87.0682 172.046 88.1949 179.019C90.4815 193.395 83.158 207.308 70.698 213.29C70.6318 213.323 73.9787 218.181 73.9787 218.181C74.8734 219.503 76.4309 219.635 76.4309 219.635L77.0605 219.701C78.618 219.866 79.5128 221.155 79.5128 221.155L93.0662 241.281C93.961 242.603 95.4853 242.901 95.4853 242.901L97.4405 243.297C98.9979 243.628 98.7328 245.181 98.7328 245.181L98.4015 247.23C98.1364 248.783 99.0311 250.105 99.0311 250.105L102.279 254.798C103.173 256.087 104.731 256.186 104.731 256.186L106.587 256.285C108.177 256.384 108.111 257.937 108.111 257.937L107.978 261.573C107.912 263.159 109.47 263.39 109.47 263.39L114.109 264.117C115.666 264.349 115.335 265.902 115.335 265.902L114.275 270.495C113.91 272.016 114.805 273.338 114.805 273.338L116.727 276.18C117.622 277.502 119.179 277.7 119.179 277.7L128.955 279.055C130.512 279.352 130.877 277.799 130.877 277.799ZM187.642 111.139C187.642 111.139 191.95 109.453 192.514 104.893L192.977 101.125C192.977 101.125 193.541 96.5645 189.034 97.6221L186.582 98.2169C186.582 98.2169 182.075 99.3075 182.638 94.7469L184.328 81.0321C184.328 81.0321 184.892 76.4714 187.477 76.7689C187.477 76.7689 190.061 77.0993 187.145 73.4971L150.992 28.6181C150.992 28.6181 148.109 25.0159 146.816 24.8837L145.524 24.7185C145.524 24.7185 145.524 24.7185 140.951 24.1567L81.3685 16.8531C81.3685 16.8531 76.7954 16.2913 77.3588 11.7307L77.4913 10.574C77.4913 10.574 78.0547 6.01339 73.4816 5.45158L69.969 5.02195C69.969 5.02195 65.396 4.46014 64.8326 9.02074L62.8112 25.3794C62.8112 25.3794 62.2478 29.94 61.3863 29.8409C61.3863 29.8409 60.5247 29.7418 61.088 25.1481L61.8502 19.1003C61.8502 19.1003 62.4135 14.5397 57.8405 13.9779L55.8853 13.7466C55.8853 13.7466 51.3123 13.1848 48.0316 16.4235L15.3575 48.7773C15.3575 48.7773 12.0768 52.016 14.6285 52.71C14.6285 52.71 17.1801 53.371 16.6167 57.9646L15.0261 70.9855C15.0261 70.9855 14.4628 75.5461 10.5193 73.1667L8.1334 71.7125C8.1334 71.7125 4.18997 69.3001 3.62662 73.8937L3.03014 78.8178C3.03014 78.8178 2.46679 83.3784 6.21139 86.0884L73.8462 135.197C73.4154 136.486 73.084 137.841 72.9183 139.229C72.4544 142.898 73.0508 146.434 74.3764 149.573L82.9923 142.633C82.926 141.939 82.926 141.212 83.0254 140.452C83.7213 134.9 88.7914 130.934 94.3586 131.628C99.9258 132.322 103.902 137.379 103.206 142.931C102.511 148.483 97.4405 152.448 91.8733 151.754C91.6413 151.721 91.4425 151.688 91.2105 151.655L82.2964 158.86C84.7486 160.413 87.5653 161.471 90.6471 161.834C101.782 163.189 111.955 155.291 113.314 144.187C113.479 142.765 113.512 141.377 113.38 140.022L187.642 111.139ZM172.564 101.621L101.284 118.905C101.284 118.905 96.7777 119.995 92.7349 117.814L87.3333 114.906C87.3333 114.906 83.2574 112.725 83.8207 108.131L86.6706 84.9317C86.6706 84.9317 87.2339 80.3711 82.7603 79.2475L75.7019 77.4959C75.7019 77.4959 71.2283 76.3723 70.6649 80.966L68.3452 99.8032C68.3452 99.8032 67.7819 104.364 63.7059 102.183L23.0124 80.2059C23.0124 80.2059 18.9364 78.0247 19.4998 73.431L21.2561 59.1874C21.2561 59.1874 21.8194 54.6268 26.2931 55.7835L94.7894 73.8276C94.7894 73.8276 99.263 75.0173 102.411 71.6465L142.276 34.4346C142.276 34.4346 145.424 31.0637 148.009 34.8972L177.469 72.043L180.054 75.8766C180.054 75.8766 180.054 75.8766 179.49 80.4702L177.568 96.0027C177.601 95.9697 177.038 100.53 172.564 101.621ZM158.812 96.7628C158.812 96.7628 163.352 95.8705 163.915 91.2769L164.578 85.8901C164.578 85.8901 165.141 81.3295 160.535 81.1642L130.91 80.2059C130.91 80.2059 126.304 80.0406 125.74 84.6343L123.951 99.1753C123.951 99.1753 123.388 103.736 127.927 102.844L158.812 96.7628ZM57.973 86.2206L59.1329 76.9011C59.1329 76.9011 59.6962 72.3405 55.2557 71.0185L34.3456 64.7725C34.3456 64.7725 29.9051 63.4506 29.3418 68.0442L28.911 71.6465C28.911 71.6465 28.3476 76.2071 32.4899 78.2891L53.3006 88.7322C53.3006 88.7322 57.4097 90.7812 57.973 86.2206ZM58.7352 170.063C58.7352 170.063 60.856 172.773 64.435 169.865L86.6706 152.118C86.6706 152.118 90.6471 149.606 88.1287 146.5C88.1287 146.5 86.0078 143.79 82.4289 146.698L60.1933 164.643C60.1933 164.643 56.2167 166.956 58.7352 170.063ZM54.9906 154.531C38.521 154.828 25.3983 168.345 25.6966 184.769C25.9285 197.162 33.716 207.638 44.5853 211.935L44.6847 217.52C44.7178 219.106 45.9439 220.097 45.9439 220.097L46.441 220.494C47.6671 221.485 47.7002 223.072 47.7002 223.072L47.8991 234.87C47.9322 236.456 49.0589 237.547 49.0589 237.547L50.4838 238.968C51.6105 240.058 50.5501 241.248 50.5501 241.248L49.1252 242.801C48.0648 243.958 48.0979 245.544 48.0979 245.544L48.4293 263.721C48.4624 265.307 49.7217 266.232 49.7217 266.232L51.246 267.323C52.5053 268.248 51.6105 269.537 51.6105 269.537L49.5228 272.511C48.6281 273.8 49.7879 274.858 49.7879 274.858L53.2674 277.964C54.4273 279.022 53.3006 280.112 53.3006 280.112L49.9205 283.384C48.7938 284.475 48.8269 286.061 48.8269 286.061L48.8932 289.498C48.9263 291.084 50.1193 292.109 50.1193 292.109L57.6085 298.553C58.8015 299.578 59.9613 298.52 59.9613 298.52L67.086 291.844C68.2458 290.754 68.2127 289.201 68.2127 289.201L66.8209 211.769C77.8559 207.242 85.5439 196.336 85.3451 183.745C85.2125 175.78 81.9318 168.609 76.7292 163.354L63.3745 174.128C62.6786 177.862 59.4311 180.704 55.4545 180.771C50.9146 180.837 47.2032 177.267 47.1037 172.74C47.0375 168.212 50.6164 164.511 55.1563 164.412C55.4214 164.412 55.6865 164.412 55.9516 164.445L65.9262 156.414C62.5461 155.125 58.8346 154.464 54.9906 154.531Z"/>
</mask>
<path d="M130.877 277.799L133.23 268.314C133.594 266.794 132.732 265.472 132.732 265.472L89.3879 201.359C96.1812 191.577 96.6783 178.259 89.6199 167.783C87.3665 164.445 84.5166 161.702 81.3354 159.587L79.2477 161.272C83.8539 165.965 87.0682 172.046 88.1949 179.019C90.4815 193.395 83.158 207.308 70.698 213.29C70.6318 213.323 73.9787 218.181 73.9787 218.181C74.8734 219.503 76.4309 219.635 76.4309 219.635L77.0605 219.701C78.618 219.866 79.5128 221.155 79.5128 221.155L93.0662 241.281C93.961 242.603 95.4853 242.901 95.4853 242.901L97.4405 243.297C98.9979 243.628 98.7328 245.181 98.7328 245.181L98.4015 247.23C98.1364 248.783 99.0311 250.105 99.0311 250.105L102.279 254.798C103.173 256.087 104.731 256.186 104.731 256.186L106.587 256.285C108.177 256.384 108.111 257.937 108.111 257.937L107.978 261.573C107.912 263.159 109.47 263.39 109.47 263.39L114.109 264.117C115.666 264.349 115.335 265.902 115.335 265.902L114.275 270.495C113.91 272.016 114.805 273.338 114.805 273.338L116.727 276.18C117.622 277.502 119.179 277.7 119.179 277.7L128.955 279.055C130.512 279.352 130.877 277.799 130.877 277.799ZM187.642 111.139C187.642 111.139 191.95 109.453 192.514 104.893L192.977 101.125C192.977 101.125 193.541 96.5645 189.034 97.6221L186.582 98.2169C186.582 98.2169 182.075 99.3075 182.638 94.7469L184.328 81.0321C184.328 81.0321 184.892 76.4714 187.477 76.7689C187.477 76.7689 190.061 77.0993 187.145 73.4971L150.992 28.6181C150.992 28.6181 148.109 25.0159 146.816 24.8837L145.524 24.7185C145.524 24.7185 145.524 24.7185 140.951 24.1567L81.3685 16.8531C81.3685 16.8531 76.7954 16.2913 77.3588 11.7307L77.4913 10.574C77.4913 10.574 78.0547 6.01339 73.4816 5.45158L69.969 5.02195C69.969 5.02195 65.396 4.46014 64.8326 9.02074L62.8112 25.3794C62.8112 25.3794 62.2478 29.94 61.3863 29.8409C61.3863 29.8409 60.5247 29.7418 61.088 25.1481L61.8502 19.1003C61.8502 19.1003 62.4135 14.5397 57.8405 13.9779L55.8853 13.7466C55.8853 13.7466 51.3123 13.1848 48.0316 16.4235L15.3575 48.7773C15.3575 48.7773 12.0768 52.016 14.6285 52.71C14.6285 52.71 17.1801 53.371 16.6167 57.9646L15.0261 70.9855C15.0261 70.9855 14.4628 75.5461 10.5193 73.1667L8.1334 71.7125C8.1334 71.7125 4.18997 69.3001 3.62662 73.8937L3.03014 78.8178C3.03014 78.8178 2.46679 83.3784 6.21139 86.0884L73.8462 135.197C73.4154 136.486 73.084 137.841 72.9183 139.229C72.4544 142.898 73.0508 146.434 74.3764 149.573L82.9923 142.633C82.926 141.939 82.926 141.212 83.0254 140.452C83.7213 134.9 88.7914 130.934 94.3586 131.628C99.9258 132.322 103.902 137.379 103.206 142.931C102.511 148.483 97.4405 152.448 91.8733 151.754C91.6413 151.721 91.4425 151.688 91.2105 151.655L82.2964 158.86C84.7486 160.413 87.5653 161.471 90.6471 161.834C101.782 163.189 111.955 155.291 113.314 144.187C113.479 142.765 113.512 141.377 113.38 140.022L187.642 111.139ZM172.564 101.621L101.284 118.905C101.284 118.905 96.7777 119.995 92.7349 117.814L87.3333 114.906C87.3333 114.906 83.2574 112.725 83.8207 108.131L86.6706 84.9317C86.6706 84.9317 87.2339 80.3711 82.7603 79.2475L75.7019 77.4959C75.7019 77.4959 71.2283 76.3723 70.6649 80.966L68.3452 99.8032C68.3452 99.8032 67.7819 104.364 63.7059 102.183L23.0124 80.2059C23.0124 80.2059 18.9364 78.0247 19.4998 73.431L21.2561 59.1874C21.2561 59.1874 21.8194 54.6268 26.2931 55.7835L94.7894 73.8276C94.7894 73.8276 99.263 75.0173 102.411 71.6465L142.276 34.4346C142.276 34.4346 145.424 31.0637 148.009 34.8972L177.469 72.043L180.054 75.8766C180.054 75.8766 180.054 75.8766 179.49 80.4702L177.568 96.0027C177.601 95.9697 177.038 100.53 172.564 101.621ZM158.812 96.7628C158.812 96.7628 163.352 95.8705 163.915 91.2769L164.578 85.8901C164.578 85.8901 165.141 81.3295 160.535 81.1642L130.91 80.2059C130.91 80.2059 126.304 80.0406 125.74 84.6343L123.951 99.1753C123.951 99.1753 123.388 103.736 127.927 102.844L158.812 96.7628ZM57.973 86.2206L59.1329 76.9011C59.1329 76.9011 59.6962 72.3405 55.2557 71.0185L34.3456 64.7725C34.3456 64.7725 29.9051 63.4506 29.3418 68.0442L28.911 71.6465C28.911 71.6465 28.3476 76.2071 32.4899 78.2891L53.3006 88.7322C53.3006 88.7322 57.4097 90.7812 57.973 86.2206ZM58.7352 170.063C58.7352 170.063 60.856 172.773 64.435 169.865L86.6706 152.118C86.6706 152.118 90.6471 149.606 88.1287 146.5C88.1287 146.5 86.0078 143.79 82.4289 146.698L60.1933 164.643C60.1933 164.643 56.2167 166.956 58.7352 170.063ZM54.9906 154.531C38.521 154.828 25.3983 168.345 25.6966 184.769C25.9285 197.162 33.716 207.638 44.5853 211.935L44.6847 217.52C44.7178 219.106 45.9439 220.097 45.9439 220.097L46.441 220.494C47.6671 221.485 47.7002 223.072 47.7002 223.072L47.8991 234.87C47.9322 236.456 49.0589 237.547 49.0589 237.547L50.4838 238.968C51.6105 240.058 50.5501 241.248 50.5501 241.248L49.1252 242.801C48.0648 243.958 48.0979 245.544 48.0979 245.544L48.4293 263.721C48.4624 265.307 49.7217 266.232 49.7217 266.232L51.246 267.323C52.5053 268.248 51.6105 269.537 51.6105 269.537L49.5228 272.511C48.6281 273.8 49.7879 274.858 49.7879 274.858L53.2674 277.964C54.4273 279.022 53.3006 280.112 53.3006 280.112L49.9205 283.384C48.7938 284.475 48.8269 286.061 48.8269 286.061L48.8932 289.498C48.9263 291.084 50.1193 292.109 50.1193 292.109L57.6085 298.553C58.8015 299.578 59.9613 298.52 59.9613 298.52L67.086 291.844C68.2458 290.754 68.2127 289.201 68.2127 289.201L66.8209 211.769C77.8559 207.242 85.5439 196.336 85.3451 183.745C85.2125 175.78 81.9318 168.609 76.7292 163.354L63.3745 174.128C62.6786 177.862 59.4311 180.704 55.4545 180.771C50.9146 180.837 47.2032 177.267 47.1037 172.74C47.0375 168.212 50.6164 164.511 55.1563 164.412C55.4214 164.412 55.6865 164.412 55.9516 164.445L65.9262 156.414C62.5461 155.125 58.8346 154.464 54.9906 154.531Z" fill="white"/>
<path d="M130.877 277.799L133.23 268.314C133.594 266.794 132.732 265.472 132.732 265.472L89.3879 201.359C96.1812 191.577 96.6783 178.259 89.6199 167.783C87.3665 164.445 84.5166 161.702 81.3354 159.587L79.2477 161.272C83.8539 165.965 87.0682 172.046 88.1949 179.019C90.4815 193.395 83.158 207.308 70.698 213.29C70.6318 213.323 73.9787 218.181 73.9787 218.181C74.8734 219.503 76.4309 219.635 76.4309 219.635L77.0605 219.701C78.618 219.866 79.5128 221.155 79.5128 221.155L93.0662 241.281C93.961 242.603 95.4853 242.901 95.4853 242.901L97.4405 243.297C98.9979 243.628 98.7328 245.181 98.7328 245.181L98.4015 247.23C98.1364 248.783 99.0311 250.105 99.0311 250.105L102.279 254.798C103.173 256.087 104.731 256.186 104.731 256.186L106.587 256.285C108.177 256.384 108.111 257.937 108.111 257.937L107.978 261.573C107.912 263.159 109.47 263.39 109.47 263.39L114.109 264.117C115.666 264.349 115.335 265.902 115.335 265.902L114.275 270.495C113.91 272.016 114.805 273.338 114.805 273.338L116.727 276.18C117.622 277.502 119.179 277.7 119.179 277.7L128.955 279.055C130.512 279.352 130.877 277.799 130.877 277.799ZM187.642 111.139C187.642 111.139 191.95 109.453 192.514 104.893L192.977 101.125C192.977 101.125 193.541 96.5645 189.034 97.6221L186.582 98.2169C186.582 98.2169 182.075 99.3075 182.638 94.7469L184.328 81.0321C184.328 81.0321 184.892 76.4714 187.477 76.7689C187.477 76.7689 190.061 77.0993 187.145 73.4971L150.992 28.6181C150.992 28.6181 148.109 25.0159 146.816 24.8837L145.524 24.7185C145.524 24.7185 145.524 24.7185 140.951 24.1567L81.3685 16.8531C81.3685 16.8531 76.7954 16.2913 77.3588 11.7307L77.4913 10.574C77.4913 10.574 78.0547 6.01339 73.4816 5.45158L69.969 5.02195C69.969 5.02195 65.396 4.46014 64.8326 9.02074L62.8112 25.3794C62.8112 25.3794 62.2478 29.94 61.3863 29.8409C61.3863 29.8409 60.5247 29.7418 61.088 25.1481L61.8502 19.1003C61.8502 19.1003 62.4135 14.5397 57.8405 13.9779L55.8853 13.7466C55.8853 13.7466 51.3123 13.1848 48.0316 16.4235L15.3575 48.7773C15.3575 48.7773 12.0768 52.016 14.6285 52.71C14.6285 52.71 17.1801 53.371 16.6167 57.9646L15.0261 70.9855C15.0261 70.9855 14.4628 75.5461 10.5193 73.1667L8.1334 71.7125C8.1334 71.7125 4.18997 69.3001 3.62662 73.8937L3.03014 78.8178C3.03014 78.8178 2.46679 83.3784 6.21139 86.0884L73.8462 135.197C73.4154 136.486 73.084 137.841 72.9183 139.229C72.4544 142.898 73.0508 146.434 74.3764 149.573L82.9923 142.633C82.926 141.939 82.926 141.212 83.0254 140.452C83.7213 134.9 88.7914 130.934 94.3586 131.628C99.9258 132.322 103.902 137.379 103.206 142.931C102.511 148.483 97.4405 152.448 91.8733 151.754C91.6413 151.721 91.4425 151.688 91.2105 151.655L82.2964 158.86C84.7486 160.413 87.5653 161.471 90.6471 161.834C101.782 163.189 111.955 155.291 113.314 144.187C113.479 142.765 113.512 141.377 113.38 140.022L187.642 111.139ZM172.564 101.621L101.284 118.905C101.284 118.905 96.7777 119.995 92.7349 117.814L87.3333 114.906C87.3333 114.906 83.2574 112.725 83.8207 108.131L86.6706 84.9317C86.6706 84.9317 87.2339 80.3711 82.7603 79.2475L75.7019 77.4959C75.7019 77.4959 71.2283 76.3723 70.6649 80.966L68.3452 99.8032C68.3452 99.8032 67.7819 104.364 63.7059 102.183L23.0124 80.2059C23.0124 80.2059 18.9364 78.0247 19.4998 73.431L21.2561 59.1874C21.2561 59.1874 21.8194 54.6268 26.2931 55.7835L94.7894 73.8276C94.7894 73.8276 99.263 75.0173 102.411 71.6465L142.276 34.4346C142.276 34.4346 145.424 31.0637 148.009 34.8972L177.469 72.043L180.054 75.8766C180.054 75.8766 180.054 75.8766 179.49 80.4702L177.568 96.0027C177.601 95.9697 177.038 100.53 172.564 101.621ZM158.812 96.7628C158.812 96.7628 163.352 95.8705 163.915 91.2769L164.578 85.8901C164.578 85.8901 165.141 81.3295 160.535 81.1642L130.91 80.2059C130.91 80.2059 126.304 80.0406 125.74 84.6343L123.951 99.1753C123.951 99.1753 123.388 103.736 127.927 102.844L158.812 96.7628ZM57.973 86.2206L59.1329 76.9011C59.1329 76.9011 59.6962 72.3405 55.2557 71.0185L34.3456 64.7725C34.3456 64.7725 29.9051 63.4506 29.3418 68.0442L28.911 71.6465C28.911 71.6465 28.3476 76.2071 32.4899 78.2891L53.3006 88.7322C53.3006 88.7322 57.4097 90.7812 57.973 86.2206ZM58.7352 170.063C58.7352 170.063 60.856 172.773 64.435 169.865L86.6706 152.118C86.6706 152.118 90.6471 149.606 88.1287 146.5C88.1287 146.5 86.0078 143.79 82.4289 146.698L60.1933 164.643C60.1933 164.643 56.2167 166.956 58.7352 170.063ZM54.9906 154.531C38.521 154.828 25.3983 168.345 25.6966 184.769C25.9285 197.162 33.716 207.638 44.5853 211.935L44.6847 217.52C44.7178 219.106 45.9439 220.097 45.9439 220.097L46.441 220.494C47.6671 221.485 47.7002 223.072 47.7002 223.072L47.8991 234.87C47.9322 236.456 49.0589 237.547 49.0589 237.547L50.4838 238.968C51.6105 240.058 50.5501 241.248 50.5501 241.248L49.1252 242.801C48.0648 243.958 48.0979 245.544 48.0979 245.544L48.4293 263.721C48.4624 265.307 49.7217 266.232 49.7217 266.232L51.246 267.323C52.5053 268.248 51.6105 269.537 51.6105 269.537L49.5228 272.511C48.6281 273.8 49.7879 274.858 49.7879 274.858L53.2674 277.964C54.4273 279.022 53.3006 280.112 53.3006 280.112L49.9205 283.384C48.7938 284.475 48.8269 286.061 48.8269 286.061L48.8932 289.498C48.9263 291.084 50.1193 292.109 50.1193 292.109L57.6085 298.553C58.8015 299.578 59.9613 298.52 59.9613 298.52L67.086 291.844C68.2458 290.754 68.2127 289.201 68.2127 289.201L66.8209 211.769C77.8559 207.242 85.5439 196.336 85.3451 183.745C85.2125 175.78 81.9318 168.609 76.7292 163.354L63.3745 174.128C62.6786 177.862 59.4311 180.704 55.4545 180.771C50.9146 180.837 47.2032 177.267 47.1037 172.74C47.0375 168.212 50.6164 164.511 55.1563 164.412C55.4214 164.412 55.6865 164.412 55.9516 164.445L65.9262 156.414C62.5461 155.125 58.8346 154.464 54.9906 154.531Z" stroke="#267300" stroke-width="6" mask="url(#path-1-outside-1)"/>
</svg>
