<svg width="219" height="224" viewBox="0 0 219 224" fill="none" xmlns="http://www.w3.org/2000/svg">
<path d="M130.95 59.0704L145.6 70.1002C147.249 71.3415 146.415 74.0886 144.33 74.1017L139.733 74.1302C139.729 74.1302 139.724 74.1302 139.72 74.1302C138.537 74.1302 137.572 73.1562 137.564 71.9526C137.543 68.4321 134.723 65.5886 131.262 65.6175C127.803 65.6392 125.016 68.5108 125.037 72.0313C125.078 78.833 129.604 84.5549 135.737 86.3168V86.6254C135.737 90.1459 138.541 93 142 93C145.459 93 148.264 90.1459 148.264 86.6254V86.3037C150.704 85.6152 152.938 84.291 154.766 82.4075C157.523 79.5661 159.027 75.8025 159 71.7997V71.7597C158.968 67.0841 156.744 62.6321 153.05 59.851L138.401 48.8216C136.737 47.5688 137.611 44.8694 139.683 44.8694H144.288C145.477 44.8694 146.444 45.8523 146.444 47.0605C146.444 50.581 149.248 53.4352 152.707 53.4352C156.166 53.4352 158.971 50.581 158.971 47.0605C158.971 40.2248 154.433 34.4502 148.263 32.6815V32.3746C148.263 28.8541 145.459 26 142 26C138.541 26 135.736 28.8541 135.736 32.3746V32.673C129.552 34.4319 125 40.2137 125 47.0605C125 51.7756 127.225 56.2651 130.95 59.0704Z" fill="white"/>
<path d="M142 116C172.908 116 198 90.6303 198 59.4998C198 28.3692 172.908 3 142 3C111.092 3 86 28.3696 86 59.5002C86 90.6308 111.092 116 142 116ZM142 21.672C162.621 21.672 179.45 38.6181 179.45 59.5002C179.45 80.3823 162.621 97.3284 142 97.3284C121.379 97.3284 104.55 80.3823 104.55 59.5002C104.55 38.6181 121.379 21.672 142 21.672Z" fill="white" stroke="#0273BA" stroke-width="6"/>
<path d="M62.8294 120.769C56.0755 125.055 50.4708 130.872 46.4541 137.725C44.3305 133.782 39.6049 131.842 35.2294 133.333L35.2293 133.333L0.315478 145.234C0.315451 145.234 0.315425 145.234 0.315399 145.234C-4.55453 146.894 -7.16652 152.188 -5.49622 157.062L-2.65825 156.09L-5.49621 157.062L15.6283 218.7C17.298 223.572 22.6023 226.157 27.4673 224.499L27.4675 224.499L62.3814 212.599L62.3817 212.599C65.8591 211.413 68.4142 208.245 68.6611 204.436L120.735 202.828C136.427 202.798 151.484 197.983 164.269 188.906L206.048 159.261L206.048 159.26C217.016 151.472 219.287 136.16 211.015 125.543C203.178 115.479 189.042 113.593 178.869 120.618L157.358 134.974C153.201 129.366 146.523 125.717 138.999 125.717H122.988C113.871 117.592 101.943 113 89.6425 113C80.1161 113 70.8418 115.685 62.8294 120.769L64.4367 123.303L62.8294 120.769ZM153.459 173.725L153.459 173.726C143.803 180.581 132.442 184.202 120.586 184.202C120.496 184.202 120.398 184.204 120.295 184.207C120.294 184.207 120.293 184.207 120.293 184.207L63.1216 185.972L52.8796 156.087L57.959 152.989L57.959 152.989C57.9776 152.977 57.9955 152.966 58.0127 152.955C59.5476 152.005 60.733 150.637 61.4663 149.147L61.4663 149.146C66.7847 138.333 77.5677 131.625 89.6425 131.625C98.3698 131.625 106.452 135.1 112.441 141.426C114.234 143.322 116.767 144.341 119.22 144.341H138.999C141.305 144.341 143.17 146.213 143.17 148.49C143.17 150.751 141.332 152.639 138.999 152.639H103.296C98.1515 152.639 93.9688 156.802 93.9688 161.952C93.9688 167.101 98.152 171.264 103.296 171.264H138.999C145.092 171.264 150.835 168.891 155.136 164.594C157.848 161.889 159.798 158.612 160.869 155.033L189.301 136.058C189.359 136.019 189.412 135.983 189.46 135.949C191.637 134.433 194.635 134.854 196.288 136.976L196.288 136.977C198.029 139.211 197.557 142.434 195.238 144.08L153.459 173.725ZM58.2926 152.753C58.289 152.756 58.2809 152.762 58.2693 152.772C58.2903 152.755 58.3122 152.737 58.2926 152.753ZM47.5203 197.983L30.2617 203.865L15.1766 159.85L32.4352 153.967C33.5479 157.214 35.2157 162.08 37.0706 167.492C40.7915 178.349 45.2653 191.403 47.5203 197.983Z" fill="white" stroke="#0273BA" stroke-width="6"/>
</svg>
