<svg width="32" height="32" viewBox="0 0 32 32" fill="none" xmlns="http://www.w3.org/2000/svg">
<g clip-path="url(#clip0)">
<path d="M27.3115 4.68422C21.0622 -1.56322 10.9315 -1.56172 4.6841 4.68766C-1.56334 10.937 -1.56184 21.0677 4.68754 27.3151C10.9369 33.5625 21.0675 33.561 27.315 27.3117C30.3153 24.3103 32.0005 20.24 31.9995 15.9962C31.9987 11.7531 30.3123 7.68409 27.3115 4.68422ZM24.231 22.2875C24.2303 22.2882 24.2296 22.2889 24.2288 22.2896V22.2843L23.4182 23.0896C22.3697 24.1513 20.8428 24.5881 19.3915 24.2416C17.9293 23.8502 16.5393 23.2272 15.2742 22.3963C14.0988 21.6451 13.0095 20.767 12.0262 19.7776C11.1213 18.8794 10.3085 17.8932 9.59947 16.8336C8.82397 15.6935 8.21016 14.4515 7.77547 13.1429C7.27716 11.6057 7.6901 9.91885 8.84216 8.78559L9.79147 7.83628C10.0554 7.57116 10.4843 7.57022 10.7493 7.83416C10.75 7.83484 10.7508 7.83553 10.7515 7.83628L13.7488 10.8336C14.0139 11.0975 14.0148 11.5264 13.7509 11.7915C13.7502 11.7922 13.7495 11.7928 13.7488 11.7936L11.9888 13.5536C11.4838 14.0531 11.4203 14.8468 11.8395 15.4203C12.476 16.2939 13.1805 17.116 13.9462 17.879C14.7998 18.7363 15.7279 19.5163 16.7195 20.2097C17.2924 20.6093 18.0692 20.5419 18.5648 20.0497L20.2661 18.3217C20.53 18.0565 20.9589 18.0556 21.224 18.3195C21.2247 18.3202 21.2253 18.3209 21.2261 18.3217L24.2288 21.3297C24.494 21.5935 24.4949 22.0223 24.231 22.2875Z" fill="black"/>
</g>
<defs>
<clipPath id="clip0">
<rect width="32" height="32" fill="white"/>
</clipPath>
</defs>
</svg>
