<svg width="32" height="32" viewBox="0 0 32 32" fill="none" xmlns="http://www.w3.org/2000/svg">
<path d="M32 16C32 24.8325 24.8325 32 16 32C7.16755 32 0 24.8466 0 16C0 7.15344 7.16755 0 16 0C24.8325 0 32 7.16755 32 16ZM13.3333 8.79012H18.6667C18.8219 8.79012 18.9489 8.66314 18.9489 8.50794V7.64727C18.9489 7.49206 18.8219 7.36508 18.6667 7.36508H13.3333C13.1781 7.36508 13.0511 7.49206 13.0511 7.64727V8.50794C13.0511 8.64903 13.1781 8.79012 13.3333 8.79012ZM21.2205 7.63316H20.2892V8.49383C20.2892 9.38272 19.5697 10.1164 18.6667 10.1164H13.3333C12.4444 10.1164 11.7108 9.39683 11.7108 8.49383V7.63316H10.7795C9.79189 7.63316 8.98765 8.43739 8.98765 9.42505V22.8571C8.98765 23.8448 9.79189 24.649 10.7795 24.649H21.2064C22.194 24.649 22.9982 23.8448 22.9982 22.8571V9.42505C23.0123 8.43739 22.2081 7.63316 21.2205 7.63316ZM13.9824 18.1587L12.9665 19.8095C12.8677 19.9647 12.6984 20.0776 12.515 20.1199C12.4727 20.1199 12.4303 20.134 12.4021 20.134C12.2469 20.134 12.1058 20.0776 11.9929 19.9929L11.0758 19.2734C10.7937 19.0476 10.7372 18.6243 10.963 18.3422C11.1887 18.06 11.612 18.0035 11.8942 18.2293L12.2187 18.4832L12.8536 17.4674C13.0511 17.157 13.4603 17.0582 13.7707 17.2557C14.0811 17.4392 14.1658 17.8483 13.9824 18.1587ZM13.9824 13.3757L12.9665 15.0265C12.8677 15.1817 12.6984 15.2945 12.515 15.3369C12.4727 15.3369 12.4303 15.351 12.4021 15.351C12.2469 15.351 12.1058 15.2945 11.9929 15.2099L11.0758 14.4903C10.7937 14.2646 10.7372 13.8413 10.963 13.5591C11.1887 13.2769 11.612 13.2205 11.8942 13.4462L12.2187 13.7002L12.8536 12.6843C13.0511 12.3739 13.4603 12.2751 13.7707 12.4727C14.0811 12.642 14.1658 13.0511 13.9824 13.3757ZM19.9929 20.134H15.6473C15.2804 20.134 14.9841 19.8377 14.9841 19.4709C14.9841 19.1041 15.2804 18.8078 15.6473 18.8078H19.9929C20.3598 18.8078 20.6561 19.1041 20.6561 19.4709C20.6561 19.8377 20.3598 20.134 19.9929 20.134ZM19.9929 15.3369H15.6473C15.2804 15.3369 14.9841 15.0406 14.9841 14.6737C14.9841 14.3069 15.2804 14.0106 15.6473 14.0106H19.9929C20.3598 14.0106 20.6561 14.3069 20.6561 14.6737C20.6561 15.0406 20.3598 15.3369 19.9929 15.3369Z" fill="black"/>
</svg>
