<svg width="188" height="270" viewBox="0 0 188 270" fill="none" xmlns="http://www.w3.org/2000/svg">
<path d="M66.6016 17.8809L64.9612 94.1613L62.8286 20.5056L66.4376 17.8809H66.6016Z" fill="url(#paint0_linear)"/>
<path d="M60.2047 22.8022L58.5642 90.5524L56.4316 25.2629L60.0406 22.8022H60.2047Z" fill="url(#paint1_linear)"/>
<path d="M72.836 13.2876L71.1956 96.6219L69.063 16.0763L72.836 13.2876Z" fill="url(#paint2_linear)"/>
<path d="M78.9058 8.8584L77.4294 99.2466L75.2969 11.6471L78.9058 8.8584Z" fill="url(#paint3_linear)"/>
<path d="M85.1392 4.42871L83.4988 102.199L81.3662 7.21746L85.1392 4.42871Z" fill="url(#paint4_linear)"/>
<path d="M91.3721 0L89.7317 105.152L87.4351 2.78875L91.3721 0Z" fill="url(#paint5_linear)"/>
<path d="M119.752 134.352L118.276 198.001L116.143 135.992L119.752 134.352Z" fill="url(#paint6_linear)"/>
<path d="M144.523 123.033L142.883 197.837L140.75 124.837L144.523 123.033Z" fill="url(#paint7_linear)"/>
<path d="M107.449 139.93L105.972 198.001L103.84 141.57L107.449 139.93Z" fill="url(#paint8_linear)"/>
<path d="M132.219 128.61L130.579 198.001L128.446 130.415L132.219 128.61Z" fill="url(#paint9_linear)"/>
<path d="M138.29 125.822L136.813 198.001L134.517 127.626L138.29 125.822Z" fill="url(#paint10_linear)"/>
<path d="M125.986 131.563L124.346 198.001L122.213 133.204L125.986 131.563Z" fill="url(#paint11_linear)"/>
<path d="M101.379 142.719L99.739 198.002L97.6064 144.523L101.379 142.719Z" fill="url(#paint12_linear)"/>
<path d="M113.683 137.141L112.042 198.165L109.91 138.781L113.683 137.141Z" fill="url(#paint13_linear)"/>
<path d="M92.0288 113.355L89.7322 198.166L88.0918 111.55L92.0288 113.355Z" fill="url(#paint14_linear)"/>
<path d="M85.7955 110.402L83.6629 198.001L82.0225 108.597L85.7955 110.402Z" fill="url(#paint15_linear)"/>
<path d="M79.5616 107.449L77.429 198.001L75.7886 105.808L79.5616 107.449Z" fill="url(#paint16_linear)"/>
<path d="M73.4922 104.66L71.1956 198.001L69.7192 102.856L73.4922 104.66Z" fill="url(#paint17_linear)"/>
<path d="M67.2584 101.707L65.1258 198.165L63.4854 100.067L67.2584 101.707Z" fill="url(#paint18_linear)"/>
<path d="M61.1885 98.9187L58.8919 198.001L57.2515 97.1143L61.1885 98.9187Z" fill="url(#paint19_linear)"/>
<path d="M54.9551 95.9656L52.8226 197.837L51.1821 94.1611L54.9551 95.9656Z" fill="url(#paint20_linear)"/>
<path d="M48.8853 93.177L46.5887 198.001L44.9482 91.3726L48.8853 93.177Z" fill="url(#paint21_linear)"/>
<path d="M125.658 69.883L123.525 125.658L121.885 67.0942L125.658 69.883Z" fill="url(#paint22_linear)"/>
<path d="M132.219 74.4758L130.087 123.033L128.446 71.687L132.219 74.4758Z" fill="url(#paint23_linear)"/>
<path d="M119.588 65.2892L117.455 128.446L115.815 62.5005L119.588 65.2892Z" fill="url(#paint24_linear)"/>
<path d="M113.355 60.696L111.222 131.235L109.582 57.9072L113.355 60.696Z" fill="url(#paint25_linear)"/>
<path d="M107.121 56.2673L104.988 134.024L103.512 53.4785L107.121 56.2673Z" fill="url(#paint26_linear)"/>
<path d="M101.051 51.6735L98.9188 137.14L97.2783 48.8848L101.051 51.6735Z" fill="url(#paint27_linear)"/>
<path d="M22.4742 231.302H10.0068L7.54615 237.043H1.14844L13.1236 209.976H19.3573L31.4966 237.043H24.9348L22.4742 231.302ZM20.5056 226.544L16.2405 216.21L11.9753 226.544H20.5056ZM59.22 237.043L53.9706 229.497H53.6425H48.2291V237.043H41.9954V209.976H53.6425C56.1032 209.976 58.0717 210.304 59.8762 211.124C61.6807 211.945 62.993 213.093 63.9773 214.569C64.9615 216.046 65.4537 217.85 65.4537 219.819C65.4537 221.787 64.9615 223.592 63.9773 225.068C62.993 226.544 61.6807 227.693 59.8762 228.349L65.9458 237.043H59.22ZM57.5796 216.374C56.5953 215.554 55.1189 215.225 53.3144 215.225H48.2291V224.576H53.3144C55.1189 224.576 56.5953 224.084 57.5796 223.264C58.5638 222.443 59.056 221.295 59.056 219.819C59.056 218.342 58.5638 217.194 57.5796 216.374ZM102.528 237.043V220.803L94.6535 234.09H91.8647L83.9906 221.131V237.043H78.0851V209.976H83.3345L93.5052 226.709L103.512 209.976H108.597V237.043H102.528ZM128.118 235.731C125.822 234.583 124.181 232.778 122.869 230.81C121.557 228.677 120.901 226.38 120.901 223.592C120.901 220.967 121.557 218.506 122.869 216.374C124.181 214.241 125.822 212.601 128.118 211.452C130.415 210.304 132.876 209.648 135.664 209.648C138.453 209.648 140.914 210.304 143.211 211.452C145.507 212.601 147.148 214.405 148.46 216.374C149.772 218.506 150.428 220.803 150.428 223.592C150.428 226.216 149.772 228.677 148.46 230.81C147.148 232.942 145.343 234.583 143.211 235.731C140.914 236.879 138.453 237.535 135.664 237.535C132.876 237.535 130.251 236.879 128.118 235.731ZM139.93 231.138C141.242 230.482 142.226 229.333 142.882 228.021C143.539 226.709 144.031 225.232 144.031 223.592C144.031 221.951 143.703 220.475 142.882 219.163C142.226 217.85 141.078 216.866 139.93 216.046C138.617 215.389 137.141 214.897 135.664 214.897C134.024 214.897 132.712 215.225 131.399 216.046C130.087 216.702 129.103 217.85 128.447 219.163C127.79 220.475 127.298 221.951 127.298 223.592C127.298 225.232 127.626 226.709 128.447 228.021C129.103 229.333 130.251 230.317 131.399 231.138C132.712 231.794 134.188 232.286 135.664 232.286C137.141 232.122 138.617 231.794 139.93 231.138ZM187.502 209.976V237.043H182.417L168.965 220.639V237.043H162.732V209.976H167.981L181.433 226.38V209.976H187.502Z" fill="#4F4E4E"/>
<path d="M42.1597 243.933H45.9327C46.9169 243.933 47.7371 244.097 48.5574 244.589C49.3776 244.917 49.8697 245.574 50.3618 246.23C50.854 246.886 51.018 247.706 51.018 248.69C51.018 249.675 50.854 250.331 50.3618 251.151C49.8697 251.807 49.3776 252.463 48.5574 252.791C47.7371 253.12 46.9169 253.448 45.9327 253.448H41.9956V243.933H42.1597ZM45.9327 252.135C46.7529 252.135 47.4091 251.971 47.9012 251.643C48.3933 251.315 48.8855 250.987 49.2135 250.495C49.5416 250.003 49.7057 249.347 49.7057 248.69C49.7057 248.034 49.5416 247.378 49.2135 246.886C48.8855 246.394 48.3933 245.902 47.9012 245.738C47.4091 245.41 46.7529 245.245 45.9327 245.245H43.472V252.135H45.9327ZM59.7124 252.135V253.284H52.9865V244.097H59.5483V245.245H54.2989V248.034H59.0562V249.183H54.4629V252.135H59.7124ZM69.719 243.933L65.6179 253.12H64.3056L60.2045 243.933H61.6809L64.9618 251.479L68.2426 243.933H69.719ZM77.7572 252.135V253.284H71.0314V244.097H77.5931V245.245H72.3437V248.034H76.937V249.183H72.3437V252.135H77.7572ZM79.8898 243.933H81.2021V251.971H86.2875V253.12H79.8898V243.933ZM89.2403 252.791C88.42 252.299 87.9279 251.807 87.4358 251.151C86.9436 250.495 86.7796 249.675 86.7796 248.69C86.7796 247.87 86.9436 247.05 87.4358 246.23C87.9279 245.574 88.42 244.917 89.2403 244.589C90.0605 244.261 90.8807 243.933 91.7009 243.933C92.6852 243.933 93.5054 244.097 94.1616 244.589C94.9818 245.081 95.4739 245.574 95.9661 246.23C96.4582 246.886 96.6222 247.706 96.6222 248.69C96.6222 249.511 96.4582 250.331 95.9661 251.151C95.4739 251.807 94.9818 252.463 94.1616 252.791C93.3414 253.12 92.5211 253.448 91.7009 253.448C90.7167 253.448 89.8964 253.12 89.2403 252.791ZM93.5054 251.807C93.9975 251.479 94.4897 251.151 94.8178 250.495C95.1458 250.003 95.3099 249.347 95.3099 248.69C95.3099 248.034 95.1458 247.378 94.8178 246.886C94.4897 246.394 93.9975 245.902 93.5054 245.574C93.0133 245.245 92.3571 245.081 91.7009 245.081C91.0448 245.081 90.3886 245.245 89.8964 245.574C89.4043 245.902 88.9122 246.23 88.5841 246.886C88.256 247.378 88.092 248.034 88.092 248.69C88.092 249.347 88.256 250.003 88.5841 250.495C88.9122 250.987 89.4043 251.479 89.8964 251.807C90.3886 252.135 91.0448 252.299 91.7009 252.299C92.3571 252.135 93.0133 251.971 93.5054 251.807ZM105.153 244.917C105.809 245.41 106.137 246.23 106.137 247.214C106.137 248.198 105.809 249.018 105.153 249.511C104.496 250.003 103.512 250.331 102.364 250.331H100.067V253.12H98.7548V243.933H102.364C103.512 243.933 104.332 244.261 105.153 244.917ZM104.168 248.69C104.66 248.362 104.824 247.87 104.824 247.214C104.824 246.558 104.66 246.066 104.168 245.738C103.676 245.41 103.02 245.245 102.2 245.245H99.9031V249.347H102.2C103.02 249.347 103.676 249.183 104.168 248.69ZM116.636 253.284V246.558L113.355 252.135H112.699L109.418 246.558V253.284H108.105V244.097H109.254L113.191 250.659L116.964 244.097H118.112V253.284H116.636ZM127.463 252.135V253.284H120.737V244.097H127.298V245.245H122.049V248.034H126.642V249.183H122.049V252.135H127.463ZM137.469 243.933V253.12H136.321L130.743 246.23V253.12H129.595V243.933H130.743L136.157 250.987V244.097H137.469V243.933ZM142.062 245.081H138.946V243.933H146.656V245.081H143.539V253.12H142.226V245.081H142.062Z" fill="url(#paint28_linear)"/>
<path d="M187.174 248.363H157.482V250.331H187.174V248.363Z" fill="#4F4E4E"/>
<path d="M29.692 248.363H0V250.331H29.692V248.363Z" fill="#4F4E4E"/>
<path d="M6.88986 263.126V269.36H6.39773V264.11L3.77303 268.539H3.44494L0.820238 264.11V269.36H0.164062V263.126H0.820238L3.60899 267.883L6.39773 263.126H6.88986Z" fill="#4F4E4E"/>
<path d="M20.6698 266.406H15.4204C15.4204 266.899 15.5844 267.391 15.7484 267.719C15.9125 268.047 16.2406 268.375 16.7327 268.539C17.0608 268.703 17.5529 268.867 18.0451 268.867C18.3731 268.867 18.8653 268.867 19.1934 268.703C19.5215 268.539 19.8495 268.375 20.0136 268.047L20.3417 268.375C20.0136 268.703 19.6855 268.867 19.3574 269.195C19.0293 269.359 18.5372 269.523 18.0451 269.523C17.3889 269.523 16.8967 269.359 16.4046 269.195C15.9125 268.867 15.5844 268.539 15.2563 268.047C14.9282 267.555 14.9282 267.063 14.9282 266.406C14.9282 265.75 15.0923 265.258 15.2563 264.766C15.5844 264.274 15.9125 263.946 16.2406 263.618C16.7327 263.29 17.2248 263.29 17.717 263.29C18.2091 263.29 18.7012 263.454 19.1934 263.618C19.6855 263.946 20.0136 264.274 20.1776 264.766C20.5057 265.258 20.5057 265.75 20.5057 266.406H20.6698ZM16.5687 263.782C16.2406 263.946 15.9125 264.274 15.7484 264.602C15.5844 264.93 15.4204 265.422 15.4204 265.75H20.1776C20.1776 265.258 20.0136 264.93 19.8495 264.602C19.6855 264.274 19.3574 263.946 19.0293 263.782C18.7012 263.618 18.3731 263.454 17.881 263.454C17.2248 263.618 16.8967 263.618 16.5687 263.782Z" fill="#4F4E4E"/>
<path d="M32.9726 263.125V269.359H32.3164V266.734C31.6602 267.063 30.84 267.227 30.1838 267.227C29.5276 267.227 28.8715 267.063 28.5434 266.734C28.0513 266.406 27.8872 265.914 27.8872 265.258V263.125H28.5434V265.094C28.5434 265.586 28.7074 265.914 29.0355 266.242C29.3636 266.57 29.8557 266.57 30.3479 266.57C31.004 266.57 31.6602 266.406 32.4804 266.078V262.961H32.9726V263.125Z" fill="#4F4E4E"/>
<path d="M45.6043 263.618H43.1437V269.196H42.4875V263.618H40.0269V263.126H45.4403V263.618H45.6043Z" fill="#4F4E4E"/>
<path d="M56.9239 265.915C57.2519 266.243 57.58 266.735 57.58 267.391C57.58 268.047 57.416 268.539 56.9239 268.868C56.4317 269.196 55.9396 269.36 55.1194 269.36H52.8228V263.126H53.4789V265.423H55.2834C55.9396 265.423 56.5958 265.587 56.9239 265.915ZM56.4317 268.375C56.7598 268.047 56.9239 267.719 56.9239 267.227C56.9239 266.735 56.7598 266.407 56.4317 266.079C56.1036 265.751 55.6115 265.751 54.9553 265.751H53.3149V268.703H54.9553C55.6115 268.868 56.1036 268.703 56.4317 268.375ZM58.7283 263.126H59.3845V269.36H58.7283V263.126Z" fill="#4F4E4E"/>
<path d="M77.5931 268.867C77.101 268.539 76.7729 268.211 76.4448 267.719C76.1167 267.227 76.1167 266.734 76.1167 266.078C76.1167 265.422 76.2807 264.93 76.4448 264.438C76.7729 263.946 77.101 263.618 77.5931 263.29C78.0852 262.961 78.5774 262.961 79.2335 262.961C79.7257 262.961 80.2178 263.125 80.5459 263.29C80.874 263.454 81.2021 263.782 81.5301 264.11L81.038 264.438C80.874 264.11 80.5459 263.946 80.2178 263.782C79.8897 263.618 79.5616 263.618 79.0695 263.618C78.5774 263.618 78.0852 263.782 77.7571 263.946C77.4291 264.11 77.101 264.438 76.9369 264.93C76.7729 265.258 76.6088 265.75 76.6088 266.242C76.6088 266.734 76.7729 267.227 76.9369 267.555C77.101 267.883 77.4291 268.211 77.7571 268.539C78.0852 268.703 78.5774 268.867 79.0695 268.867C79.3976 268.867 79.8897 268.867 80.2178 268.703C80.5459 268.539 80.874 268.375 81.038 268.047L81.5301 268.375C81.2021 268.703 80.874 269.031 80.5459 269.195C80.2178 269.359 79.7257 269.523 79.2335 269.523C78.5774 269.359 78.0852 269.195 77.5931 268.867Z" fill="#4F4E4E"/>
<path d="M93.6693 263.618C94.1615 263.946 94.4896 264.274 94.6536 264.767C94.8177 265.259 94.9817 265.751 94.9817 266.407C94.9817 267.063 94.8177 267.555 94.6536 268.047C94.3255 268.54 93.9974 268.868 93.5053 269.196C93.0132 269.524 92.521 269.524 91.8649 269.524C91.2087 269.524 90.5525 269.36 90.0604 269.032C89.5683 268.704 89.2402 268.211 88.9121 267.555C88.584 266.899 88.584 266.243 88.584 265.423C88.584 264.438 88.748 263.782 88.9121 263.126C89.0761 262.47 89.4042 261.978 89.8963 261.65C90.3885 261.322 90.8806 260.994 91.7008 260.83L94.4896 260.173L94.6536 260.665L92.0289 261.322C91.3727 261.486 90.8806 261.65 90.5525 261.978C90.2244 262.306 89.8963 262.634 89.7323 263.126C89.5682 263.618 89.4042 264.274 89.4042 265.095C89.5682 264.603 89.8963 264.11 90.3885 263.782C90.8806 263.454 91.3727 263.29 92.0289 263.29C92.6851 263.126 93.1772 263.29 93.6693 263.618ZM93.1772 268.54C93.5053 268.376 93.8334 268.047 93.9974 267.555C94.1615 267.227 94.3255 266.735 94.3255 266.243C94.3255 265.751 94.1615 265.259 93.9974 264.931C93.8334 264.603 93.5053 264.274 93.1772 264.11C92.8491 263.946 92.357 263.782 91.8649 263.782C91.3727 263.782 91.0446 263.946 90.5525 264.11C90.2244 264.274 89.8963 264.603 89.7323 264.931C89.5682 265.259 89.4042 265.751 89.4042 266.243C89.4042 266.735 89.5682 267.227 89.7323 267.555C89.8963 267.883 90.2244 268.211 90.5525 268.54C90.8806 268.704 91.3727 268.868 91.8649 268.868C92.521 268.868 92.8491 268.704 93.1772 268.54Z" fill="#4F4E4E"/>
<path d="M107.12 265.915C107.448 266.243 107.776 266.735 107.776 267.391C107.776 268.047 107.612 268.539 107.12 268.868C106.628 269.196 106.136 269.36 105.316 269.36H103.019V263.126H103.675V265.423H105.48C106.136 265.423 106.628 265.587 107.12 265.915ZM106.628 268.375C106.956 268.047 107.12 267.719 107.12 267.227C107.12 266.735 106.956 266.407 106.628 266.079C106.3 265.751 105.808 265.751 105.152 265.751H103.511V268.703H105.152C105.808 268.868 106.3 268.703 106.628 268.375ZM108.761 263.126H109.417V269.36H108.761V263.126Z" fill="#4F4E4E"/>
<path d="M122.869 267.555C122.869 268.047 122.705 268.539 122.213 268.868C121.885 269.196 121.229 269.36 120.408 269.36H117.784V263.126H120.408C121.065 263.126 121.557 263.29 122.049 263.454C122.541 263.618 122.705 264.11 122.705 264.602C122.705 264.93 122.541 265.259 122.377 265.587C122.213 265.915 121.885 266.079 121.557 266.079C122.377 266.243 122.869 266.735 122.869 267.555ZM118.44 265.915H120.408C120.901 265.915 121.393 265.751 121.557 265.587C121.885 265.423 122.049 265.095 122.049 264.766C122.049 264.438 121.885 264.11 121.557 263.946C121.229 263.782 120.901 263.618 120.408 263.618H118.44V265.915ZM122.377 267.555C122.377 267.063 122.213 266.899 122.049 266.571C121.721 266.407 121.393 266.243 120.736 266.243H118.604V268.703H120.736C121.721 268.868 122.377 268.375 122.377 267.555Z" fill="#4F4E4E"/>
<path d="M134.68 263.618C135.008 263.946 135.336 264.602 135.336 265.258V269.195H134.844V268.047C134.68 268.375 134.352 268.703 134.024 268.867C133.695 269.031 133.203 269.195 132.711 269.195C132.055 269.195 131.563 269.031 131.071 268.703C130.743 268.375 130.415 267.883 130.415 267.391C130.415 266.898 130.579 266.406 130.907 266.078C131.235 265.75 131.891 265.586 132.711 265.586H134.844V265.094C134.844 264.438 134.68 264.11 134.352 263.782C134.024 263.454 133.531 263.289 133.039 263.289C132.547 263.289 132.219 263.289 131.891 263.454C131.563 263.618 131.235 263.782 130.907 263.946L130.579 263.454C130.907 263.125 131.235 262.961 131.727 262.797C132.219 262.633 132.547 262.633 133.039 262.633C133.695 263.125 134.352 263.289 134.68 263.618ZM134.024 268.539C134.352 268.375 134.68 267.883 134.844 267.555V266.406H132.711C132.055 266.406 131.727 266.57 131.399 266.734C131.071 266.898 131.071 267.227 131.071 267.719C131.071 268.047 131.235 268.375 131.563 268.703C131.891 268.867 132.219 269.031 132.875 269.031C133.203 268.867 133.531 268.703 134.024 268.539Z" fill="#4F4E4E"/>
<path d="M150.428 263.454C150.921 263.782 151.249 264.11 151.577 264.602C151.905 265.095 151.905 265.587 151.905 266.243C151.905 266.899 151.741 267.391 151.577 267.883C151.249 268.375 150.921 268.703 150.428 269.032C149.936 269.36 149.444 269.36 148.952 269.36C148.46 269.36 147.968 269.196 147.476 269.032C146.984 268.868 146.655 268.375 146.491 268.047C146.163 267.555 145.999 267.063 145.999 266.571H144.359V269.36H143.703V263.126H144.359V265.915H145.999C145.999 265.423 146.163 264.93 146.491 264.438C146.819 263.946 147.148 263.618 147.476 263.454C147.968 263.29 148.46 263.126 148.952 263.126C149.444 263.126 149.936 263.126 150.428 263.454ZM150.1 268.539C150.428 268.375 150.757 268.047 150.921 267.555C151.085 267.227 151.249 266.735 151.249 266.243C151.249 265.751 151.085 265.259 150.921 264.93C150.757 264.602 150.428 264.274 150.1 263.946C149.772 263.782 149.28 263.618 148.788 263.618C148.296 263.618 147.968 263.782 147.476 263.946C147.148 264.11 146.819 264.438 146.655 264.93C146.491 265.259 146.327 265.751 146.327 266.243C146.327 266.735 146.491 267.227 146.655 267.555C146.819 267.883 147.148 268.211 147.476 268.539C147.804 268.868 148.296 268.868 148.788 268.868C149.28 268.868 149.772 268.703 150.1 268.539Z" fill="#4F4E4E"/>
<path d="M163.552 263.618H161.091V269.196H160.435V263.618H157.974V263.126H163.388V263.618H163.552Z" fill="#4F4E4E"/>
<path d="M171.426 268.867C170.933 268.539 170.605 268.211 170.277 267.719C169.949 267.227 169.949 266.734 169.949 266.078C169.949 265.422 170.113 264.93 170.277 264.438C170.605 263.946 170.933 263.618 171.426 263.29C171.918 262.961 172.41 262.961 173.066 262.961C173.558 262.961 174.05 263.125 174.378 263.29C174.707 263.454 175.035 263.782 175.363 264.11L174.871 264.438C174.706 264.11 174.378 263.946 174.05 263.782C173.722 263.618 173.394 263.618 172.902 263.618C172.41 263.618 171.918 263.782 171.59 263.946C171.262 264.11 170.933 264.438 170.769 264.93C170.605 265.258 170.441 265.75 170.441 266.242C170.441 266.734 170.605 267.227 170.769 267.555C170.933 267.883 171.262 268.211 171.59 268.539C171.918 268.703 172.41 268.867 172.902 268.867C173.23 268.867 173.722 268.867 174.05 268.703C174.378 268.539 174.706 268.375 174.871 268.047L175.363 268.375C175.035 268.703 174.707 269.031 174.378 269.195C174.05 269.359 173.558 269.523 173.066 269.523C172.41 269.359 171.918 269.195 171.426 268.867Z" fill="#4F4E4E"/>
<path d="M187.338 263.126V269.36H186.846V267.227H184.714C184.55 267.227 184.55 267.227 184.386 267.227L182.909 269.36H182.253L183.893 267.227C183.401 267.063 183.073 266.899 182.745 266.571C182.417 266.243 182.417 265.751 182.417 265.259C182.417 264.602 182.581 264.11 183.073 263.782C183.565 263.454 184.221 263.29 184.878 263.29H187.338V263.126ZM184.878 266.735H186.846V263.618H184.878C183.565 263.618 182.909 264.11 182.909 265.259C182.909 266.243 183.565 266.735 184.878 266.735Z" fill="#4F4E4E"/>
<defs>
<linearGradient id="paint0_linear" x1="64.7561" y1="94.1186" x2="64.7561" y2="17.8738" gradientUnits="userSpaceOnUse">
<stop stop-color="#187ABF"/>
<stop offset="0.6872" stop-color="#56A9DE"/>
<stop offset="1" stop-color="#187ABF"/>
</linearGradient>
<linearGradient id="paint1_linear" x1="58.2679" y1="90.6039" x2="58.2679" y2="22.7406" gradientUnits="userSpaceOnUse">
<stop stop-color="#187ABF"/>
<stop offset="0.6872" stop-color="#56A9DE"/>
<stop offset="1" stop-color="#187ABF"/>
</linearGradient>
<linearGradient id="paint2_linear" x1="70.9229" y1="96.659" x2="70.9229" y2="13.312" gradientUnits="userSpaceOnUse">
<stop stop-color="#187ABF"/>
<stop offset="0.6872" stop-color="#56A9DE"/>
<stop offset="1" stop-color="#187ABF"/>
</linearGradient>
<linearGradient id="paint3_linear" x1="77.0876" y1="99.2546" x2="77.0876" y2="8.88661" gradientUnits="userSpaceOnUse">
<stop stop-color="#187ABF"/>
<stop offset="0.6872" stop-color="#56A9DE"/>
<stop offset="1" stop-color="#187ABF"/>
</linearGradient>
<linearGradient id="paint4_linear" x1="83.2503" y1="102.174" x2="83.2503" y2="4.45741" gradientUnits="userSpaceOnUse">
<stop stop-color="#187ABF"/>
<stop offset="0.6872" stop-color="#56A9DE"/>
<stop offset="1" stop-color="#187ABF"/>
</linearGradient>
<linearGradient id="paint5_linear" x1="89.4057" y1="105.15" x2="89.4057" y2="0" gradientUnits="userSpaceOnUse">
<stop stop-color="#187ABF"/>
<stop offset="0.6872" stop-color="#56A9DE"/>
<stop offset="1" stop-color="#187ABF"/>
</linearGradient>
<linearGradient id="paint6_linear" x1="117.964" y1="197.941" x2="117.964" y2="134.304" gradientUnits="userSpaceOnUse">
<stop stop-color="#187ABF"/>
<stop offset="0.6872" stop-color="#56A9DE"/>
<stop offset="1" stop-color="#187ABF"/>
</linearGradient>
<linearGradient id="paint7_linear" x1="142.614" y1="197.834" x2="142.614" y2="123.02" gradientUnits="userSpaceOnUse">
<stop stop-color="#187ABF"/>
<stop offset="0.6872" stop-color="#56A9DE"/>
<stop offset="1" stop-color="#187ABF"/>
</linearGradient>
<linearGradient id="paint8_linear" x1="105.635" y1="197.942" x2="105.635" y2="139.931" gradientUnits="userSpaceOnUse">
<stop stop-color="#187ABF"/>
<stop offset="0.6872" stop-color="#56A9DE"/>
<stop offset="1" stop-color="#187ABF"/>
</linearGradient>
<linearGradient id="paint9_linear" x1="130.285" y1="198.048" x2="130.285" y2="128.649" gradientUnits="userSpaceOnUse">
<stop stop-color="#187ABF"/>
<stop offset="0.6872" stop-color="#56A9DE"/>
<stop offset="1" stop-color="#187ABF"/>
</linearGradient>
<linearGradient id="paint10_linear" x1="136.452" y1="198.049" x2="136.452" y2="125.84" gradientUnits="userSpaceOnUse">
<stop stop-color="#187ABF"/>
<stop offset="0.6872" stop-color="#56A9DE"/>
<stop offset="1" stop-color="#187ABF"/>
</linearGradient>
<linearGradient id="paint11_linear" x1="124.127" y1="198.049" x2="124.127" y2="131.485" gradientUnits="userSpaceOnUse">
<stop stop-color="#187ABF"/>
<stop offset="0.6872" stop-color="#56A9DE"/>
<stop offset="1" stop-color="#187ABF"/>
</linearGradient>
<linearGradient id="paint12_linear" x1="99.4692" y1="197.942" x2="99.4692" y2="142.737" gradientUnits="userSpaceOnUse">
<stop stop-color="#187ABF"/>
<stop offset="0.6872" stop-color="#56A9DE"/>
<stop offset="1" stop-color="#187ABF"/>
</linearGradient>
<linearGradient id="paint13_linear" x1="111.798" y1="198.159" x2="111.798" y2="137.114" gradientUnits="userSpaceOnUse">
<stop stop-color="#187ABF"/>
<stop offset="0.6872" stop-color="#56A9DE"/>
<stop offset="1" stop-color="#187ABF"/>
</linearGradient>
<linearGradient id="paint14_linear" x1="90.052" y1="198.104" x2="90.052" y2="111.526" gradientUnits="userSpaceOnUse">
<stop stop-color="#187ABF"/>
<stop offset="0.6872" stop-color="#56A9DE"/>
<stop offset="1" stop-color="#187ABF"/>
</linearGradient>
<linearGradient id="paint15_linear" x1="83.8862" y1="197.941" x2="83.8862" y2="108.647" gradientUnits="userSpaceOnUse">
<stop stop-color="#187ABF"/>
<stop offset="0.6872" stop-color="#56A9DE"/>
<stop offset="1" stop-color="#187ABF"/>
</linearGradient>
<linearGradient id="paint16_linear" x1="77.7231" y1="197.996" x2="77.7231" y2="105.766" gradientUnits="userSpaceOnUse">
<stop stop-color="#187ABF"/>
<stop offset="0.6872" stop-color="#56A9DE"/>
<stop offset="1" stop-color="#187ABF"/>
</linearGradient>
<linearGradient id="paint17_linear" x1="71.5573" y1="198.049" x2="71.5573" y2="102.889" gradientUnits="userSpaceOnUse">
<stop stop-color="#187ABF"/>
<stop offset="0.6872" stop-color="#56A9DE"/>
<stop offset="1" stop-color="#187ABF"/>
</linearGradient>
<linearGradient id="paint18_linear" x1="65.396" y1="198.104" x2="65.396" y2="100.001" gradientUnits="userSpaceOnUse">
<stop stop-color="#187ABF"/>
<stop offset="0.6872" stop-color="#56A9DE"/>
<stop offset="1" stop-color="#187ABF"/>
</linearGradient>
<linearGradient id="paint19_linear" x1="59.2361" y1="197.997" x2="59.2361" y2="97.107" gradientUnits="userSpaceOnUse">
<stop stop-color="#187ABF"/>
<stop offset="0.6872" stop-color="#56A9DE"/>
<stop offset="1" stop-color="#187ABF"/>
</linearGradient>
<linearGradient id="paint20_linear" x1="53.067" y1="197.886" x2="53.067" y2="94.2353" gradientUnits="userSpaceOnUse">
<stop stop-color="#187ABF"/>
<stop offset="0.6872" stop-color="#56A9DE"/>
<stop offset="1" stop-color="#187ABF"/>
</linearGradient>
<linearGradient id="paint21_linear" x1="46.9056" y1="197.941" x2="46.9056" y2="91.3414" gradientUnits="userSpaceOnUse">
<stop stop-color="#187ABF"/>
<stop offset="0.6872" stop-color="#56A9DE"/>
<stop offset="1" stop-color="#187ABF"/>
</linearGradient>
<linearGradient id="paint22_linear" x1="123.819" y1="125.59" x2="123.819" y2="67.099" gradientUnits="userSpaceOnUse">
<stop stop-color="#187ABF"/>
<stop offset="0.6872" stop-color="#56A9DE"/>
<stop offset="1" stop-color="#187ABF"/>
</linearGradient>
<linearGradient id="paint23_linear" x1="130.307" y1="122.994" x2="130.307" y2="71.6408" gradientUnits="userSpaceOnUse">
<stop stop-color="#187ABF"/>
<stop offset="0.6872" stop-color="#56A9DE"/>
<stop offset="1" stop-color="#187ABF"/>
</linearGradient>
<linearGradient id="paint24_linear" x1="117.659" y1="128.51" x2="117.659" y2="62.5464" gradientUnits="userSpaceOnUse">
<stop stop-color="#187ABF"/>
<stop offset="0.6872" stop-color="#56A9DE"/>
<stop offset="1" stop-color="#187ABF"/>
</linearGradient>
<linearGradient id="paint25_linear" x1="111.496" y1="131.267" x2="111.496" y2="57.9879" gradientUnits="userSpaceOnUse">
<stop stop-color="#187ABF"/>
<stop offset="0.6872" stop-color="#56A9DE"/>
<stop offset="1" stop-color="#187ABF"/>
</linearGradient>
<linearGradient id="paint26_linear" x1="105.335" y1="134.026" x2="105.335" y2="53.4267" gradientUnits="userSpaceOnUse">
<stop stop-color="#187ABF"/>
<stop offset="0.6872" stop-color="#56A9DE"/>
<stop offset="1" stop-color="#187ABF"/>
</linearGradient>
<linearGradient id="paint27_linear" x1="99.1804" y1="137.107" x2="99.1804" y2="48.8352" gradientUnits="userSpaceOnUse">
<stop stop-color="#187ABF"/>
<stop offset="0.6872" stop-color="#56A9DE"/>
<stop offset="1" stop-color="#187ABF"/>
</linearGradient>
<linearGradient id="paint28_linear" x1="108.63" y1="273.359" x2="79.2829" y2="222.529" gradientUnits="userSpaceOnUse">
<stop stop-color="#187ABF"/>
<stop offset="0.6872" stop-color="#56A9DE"/>
<stop offset="1" stop-color="#187ABF"/>
</linearGradient>
</defs>
</svg>
