<svg width="16" height="20" viewBox="0 0 16 20" fill="none" xmlns="http://www.w3.org/2000/svg">
<path d="M11.6744 5H16L11 0V4.32561C11 4.69769 11.3023 5 11.6744 5Z" fill="white"/>
<path d="M1.84615 20H14.1538C15.1719 20 16 19.2115 16 18.2422V5.85938H11.6923C10.6743 5.85938 9.84615 5.07086 9.84615 4.10156V0H1.84615C0.828144 0 0 0.788516 0 1.75781V18.2422C0 19.2115 0.828144 20 1.84615 20ZM5.53846 9.41406H11.6923C12.0325 9.41406 12.3077 9.67613 12.3077 10C12.3077 10.3239 12.0325 10.5859 11.6923 10.5859H5.53846C5.19832 10.5859 4.92308 10.3239 4.92308 10C4.92308 9.67613 5.19832 9.41406 5.53846 9.41406ZM5.53846 11.7578H11.6923C12.0325 11.7578 12.3077 12.0199 12.3077 12.3438C12.3077 12.6676 12.0325 12.9297 11.6923 12.9297H5.53846C5.19832 12.9297 4.92308 12.6676 4.92308 12.3438C4.92308 12.0199 5.19832 11.7578 5.53846 11.7578ZM5.53846 14.1016H11.6923C12.0325 14.1016 12.3077 14.3636 12.3077 14.6875C12.3077 15.0114 12.0325 15.2734 11.6923 15.2734H5.53846C5.19832 15.2734 4.92308 15.0114 4.92308 14.6875C4.92308 14.3636 5.19832 14.1016 5.53846 14.1016ZM3.07692 9.41406C3.41678 9.41406 3.69231 9.67641 3.69231 10C3.69231 10.3236 3.41678 10.5859 3.07692 10.5859C2.73707 10.5859 2.46154 10.3236 2.46154 10C2.46154 9.67641 2.73707 9.41406 3.07692 9.41406ZM3.07692 11.7578C3.41678 11.7578 3.69231 12.0202 3.69231 12.3438C3.69231 12.6673 3.41678 12.9297 3.07692 12.9297C2.73707 12.9297 2.46154 12.6673 2.46154 12.3438C2.46154 12.0202 2.73707 11.7578 3.07692 11.7578ZM3.07692 14.1016C3.41678 14.1016 3.69231 14.3639 3.69231 14.6875C3.69231 15.0111 3.41678 15.2734 3.07692 15.2734C2.73707 15.2734 2.46154 15.0111 2.46154 14.6875C2.46154 14.3639 2.73707 14.1016 3.07692 14.1016Z" fill="white"/>
</svg>
