<svg width="59" height="59" viewBox="0 0 59 59" fill="none" xmlns="http://www.w3.org/2000/svg">
<path d="M57.3423 49.3622L39.5076 31.5284C44.0569 23.4709 42.9263 13.048 36.0757 6.19221C32.0819 2.19834 26.7725 0 21.1274 0C15.4803 0 10.1709 2.19834 6.17887 6.19221C-2.0571 14.431 -2.05515 27.8386 6.18131 36.0797C10.1766 40.0718 15.484 42.27 21.1311 42.27C24.8393 42.27 28.393 41.3044 31.5321 39.5219L49.3569 57.3467C51.5598 59.5506 55.1331 59.5516 57.3404 57.3467C58.3992 56.2873 58.9936 54.8519 58.9954 53.3546C58.9954 51.8566 58.3992 50.4211 57.3423 49.3622ZM10.3712 31.8886C4.44465 25.9587 4.44465 16.3112 10.3693 10.3821C13.242 7.50854 17.0621 5.92659 21.1272 5.92659C25.1903 5.92659 29.0104 7.50854 31.885 10.3813C37.8098 16.3112 37.8079 25.9605 31.8831 31.8904C29.0104 34.7622 25.1921 36.3433 21.1309 36.3433C17.0679 36.3433 13.2463 34.7613 10.3712 31.8886Z" fill="white"/>
</svg>
