<svg width="40" height="49" viewBox="0 0 40 49" fill="none" xmlns="http://www.w3.org/2000/svg">
<path d="M11.6653 11.4334H14.932C15.383 11.4334 15.7486 11.0678 15.7486 10.6168V7.35011C15.7486 6.89911 15.383 6.53345 14.932 6.53345H11.6653C11.2143 6.53345 10.8486 6.89911 10.8486 7.35011V10.6168C10.8486 11.0678 11.2143 11.4334 11.6653 11.4334ZM12.482 8.16678H14.1153V9.80011H12.482V8.16678Z" fill="white"/>
<path d="M18.1985 11.4334H21.4652C21.9162 11.4334 22.2818 11.0678 22.2818 10.6168V7.35011C22.2818 6.89911 21.9162 6.53345 21.4652 6.53345H18.1985C17.7475 6.53345 17.3818 6.89911 17.3818 7.35011V10.6168C17.3818 11.0678 17.7475 11.4334 18.1985 11.4334ZM19.0152 8.16678H20.6485V9.80011H19.0152V8.16678Z" fill="white"/>
<path d="M24.7337 11.4334H28.0003C28.4513 11.4334 28.817 11.0678 28.817 10.6168V7.35011C28.817 6.89911 28.4513 6.53345 28.0003 6.53345H24.7337C24.2827 6.53345 23.917 6.89911 23.917 7.35011V10.6168C23.917 11.0678 24.2827 11.4334 24.7337 11.4334ZM25.5503 8.16678H27.1837V9.80011H25.5503V8.16678Z" fill="white"/>
<path d="M11.6653 17.9667H14.932C15.383 17.9667 15.7486 17.601 15.7486 17.15V13.8833C15.7486 13.4323 15.383 13.0667 14.932 13.0667H11.6653C11.2143 13.0667 10.8486 13.4323 10.8486 13.8833V17.15C10.8486 17.601 11.2143 17.9667 11.6653 17.9667ZM12.482 14.7H14.1153V16.3333H12.482V14.7Z" fill="white"/>
<path d="M18.1985 17.9667H21.4652C21.9162 17.9667 22.2818 17.601 22.2818 17.15V13.8833C22.2818 13.4323 21.9162 13.0667 21.4652 13.0667H18.1985C17.7475 13.0667 17.3818 13.4323 17.3818 13.8833V17.15C17.3818 17.601 17.7475 17.9667 18.1985 17.9667ZM19.0152 14.7H20.6485V16.3333H19.0152V14.7Z" fill="white"/>
<path d="M24.7337 17.9667H28.0003C28.4513 17.9667 28.817 17.601 28.817 17.15V13.8833C28.817 13.4323 28.4513 13.0667 28.0003 13.0667H24.7337C24.2827 13.0667 23.917 13.4323 23.917 13.8833V17.15C23.917 17.601 24.2827 17.9667 24.7337 17.9667ZM25.5503 14.7H27.1837V16.3333H25.5503V14.7Z" fill="white"/>
<path d="M11.6653 24.5001H14.932C15.383 24.5001 15.7486 24.1344 15.7486 23.6834V20.4168C15.7486 19.9658 15.383 19.6001 14.932 19.6001H11.6653C11.2143 19.6001 10.8486 19.9658 10.8486 20.4168V23.6834C10.8486 24.1344 11.2143 24.5001 11.6653 24.5001ZM12.482 21.2334H14.1153V22.8668H12.482V21.2334Z" fill="white"/>
<path d="M18.1985 24.5001H21.4652C21.9162 24.5001 22.2818 24.1344 22.2818 23.6834V20.4168C22.2818 19.9658 21.9162 19.6001 21.4652 19.6001H18.1985C17.7475 19.6001 17.3818 19.9658 17.3818 20.4168V23.6834C17.3818 24.1344 17.7475 24.5001 18.1985 24.5001ZM19.0152 21.2334H20.6485V22.8668H19.0152V21.2334Z" fill="white"/>
<path d="M24.7337 24.5001H28.0003C28.4513 24.5001 28.817 24.1344 28.817 23.6834V20.4168C28.817 19.9658 28.4513 19.6001 28.0003 19.6001H24.7337C24.2827 19.6001 23.917 19.9658 23.917 20.4168V23.6834C23.917 24.1344 24.2827 24.5001 24.7337 24.5001ZM25.5503 21.2334H27.1837V22.8668H25.5503V21.2334Z" fill="white"/>
<path d="M11.6653 31.0333H14.932C15.383 31.0333 15.7486 30.6676 15.7486 30.2166V26.95C15.7486 26.499 15.383 26.1333 14.932 26.1333H11.6653C11.2143 26.1333 10.8486 26.499 10.8486 26.95V30.2166C10.8486 30.6676 11.2143 31.0333 11.6653 31.0333ZM12.482 27.7666H14.1153V29.4H12.482V27.7666Z" fill="white"/>
<path d="M18.1985 31.0333H21.4652C21.9162 31.0333 22.2818 30.6676 22.2818 30.2166V26.95C22.2818 26.499 21.9162 26.1333 21.4652 26.1333H18.1985C17.7475 26.1333 17.3818 26.499 17.3818 26.95V30.2166C17.3818 30.6676 17.7475 31.0333 18.1985 31.0333ZM19.0152 27.7666H20.6485V29.4H19.0152V27.7666Z" fill="white"/>
<path d="M24.7337 31.0333H28.0003C28.4513 31.0333 28.817 30.6676 28.817 30.2166V26.95C28.817 26.499 28.4513 26.1333 28.0003 26.1333H24.7337C24.2827 26.1333 23.917 26.499 23.917 26.95V30.2166C23.917 30.6676 24.2827 31.0333 24.7337 31.0333ZM25.5503 27.7666H27.1837V29.4H25.5503V27.7666Z" fill="white"/>
<path d="M11.6653 37.5667H14.932C15.383 37.5667 15.7486 37.2011 15.7486 36.7501V33.4834C15.7486 33.0324 15.383 32.6667 14.932 32.6667H11.6653C11.2143 32.6667 10.8486 33.0324 10.8486 33.4834V36.7501C10.8486 37.2011 11.2143 37.5667 11.6653 37.5667ZM12.482 34.3001H14.1153V35.9334H12.482V34.3001Z" fill="white"/>
<path d="M18.1985 37.5667H21.4652C21.9162 37.5667 22.2818 37.2011 22.2818 36.7501V33.4834C22.2818 33.0324 21.9162 32.6667 21.4652 32.6667H18.1985C17.7475 32.6667 17.3818 33.0324 17.3818 33.4834V36.7501C17.3818 37.2011 17.7475 37.5667 18.1985 37.5667ZM19.0152 34.3001H20.6485V35.9334H19.0152V34.3001Z" fill="white"/>
<path d="M24.7337 37.5667H28.0003C28.4513 37.5667 28.817 37.2011 28.817 36.7501V33.4834C28.817 33.0324 28.4513 32.6667 28.0003 32.6667H24.7337C24.2827 32.6667 23.917 33.0324 23.917 33.4834V36.7501C23.917 37.2011 24.2827 37.5667 24.7337 37.5667ZM25.5503 34.3001H27.1837V35.9334H25.5503V34.3001Z" fill="white"/>
<path d="M32.0824 47.3667V4.9H32.8991C33.3501 4.9 33.7158 4.53434 33.7158 4.08333V0.816667C33.7158 0.365662 33.3501 0 32.8991 0H6.76575C6.31475 0 5.94909 0.365662 5.94909 0.816667V4.08333C5.94909 4.53434 6.31475 4.9 6.76575 4.9H7.58242V47.3667H0.232422V49H39.4324V47.3667H32.0824ZM7.58242 1.63333H32.0824V3.26667H7.58242V1.63333ZM19.0158 47.3667H15.7491V40.8333H19.0158V47.3667ZM23.9158 47.3667H20.6491V40.8333H23.9158V47.3667ZM30.4491 47.3667H25.5491V40.0167C25.5491 39.5657 25.1834 39.2 24.7324 39.2H14.9324C14.4814 39.2 14.1158 39.5657 14.1158 40.0167V47.3667H9.21575V4.9H30.4491V47.3667Z" fill="white"/>
</svg>
