<svg width="42" height="43" viewBox="0 0 42 43" fill="none" xmlns="http://www.w3.org/2000/svg">
<g clip-path="url(#clip0)">
<path d="M7.87857 5.5867C7.65457 5.5867 7.43057 5.50095 7.25907 5.3312L4.37857 2.44895L1.49807 5.3312C1.15682 5.67245 0.60207 5.67245 0.26082 5.3312C-0.0804297 4.98995 -0.0804297 4.4352 0.26082 4.09395L3.76082 0.59395C4.10207 0.2527 4.65682 0.2527 4.99807 0.59395L8.49807 4.09395C8.83932 4.4352 8.83932 4.98995 8.49807 5.3312C8.32657 5.50095 8.10257 5.5867 7.87857 5.5867Z" fill="white"/>
<path d="M37.6254 42.3334C37.4014 42.3334 37.1774 42.2476 37.0059 42.0779C36.6647 41.7366 36.6647 41.1819 37.0059 40.8406L39.8864 37.9601L37.0059 35.0796C36.6647 34.7384 36.6647 34.1836 37.0059 33.8424C37.3472 33.5011 37.9019 33.5011 38.2432 33.8424L41.7432 37.3424C42.0844 37.6836 42.0844 38.2384 41.7432 38.5796L38.2432 42.0796C38.0734 42.2476 37.8494 42.3334 37.6254 42.3334Z" fill="white"/>
<path d="M4.375 42.3334C3.892 42.3334 3.5 41.9414 3.5 41.4584V1.64587C3.5 1.16287 3.892 0.770874 4.375 0.770874C4.858 0.770874 5.25 1.16287 5.25 1.64587V41.4584C5.25 41.9414 4.858 42.3334 4.375 42.3334Z" fill="white"/>
<path d="M40.6875 38.8334H0.875C0.392 38.8334 0 38.4414 0 37.9584C0 37.4754 0.392 37.0834 0.875 37.0834H40.6875C41.1705 37.0834 41.5625 37.4754 41.5625 37.9584C41.5625 38.4414 41.1705 38.8334 40.6875 38.8334Z" fill="white"/>
<path d="M22.75 17.8334C22.6433 17.8334 22.5365 17.8141 22.435 17.7756L11.06 13.4006C10.7223 13.2711 10.5 12.9456 10.5 12.5834C10.5 12.2211 10.7223 11.8956 11.06 11.7661L22.435 7.39112C22.6362 7.31412 22.862 7.31412 23.0632 7.39112L34.4383 11.7661C34.7778 11.8956 35 12.2211 35 12.5834C35 12.9456 34.7778 13.2711 34.44 13.4006L23.065 17.7756C22.9635 17.8141 22.8567 17.8334 22.75 17.8334ZM13.8128 12.5834L22.75 16.0204L31.6873 12.5834L22.75 9.14637L13.8128 12.5834Z" fill="white"/>
<path d="M22.75 31.8334C22.6433 31.8334 22.5365 31.8141 22.435 31.7756L11.06 27.4006C10.7223 27.2711 10.5 26.9456 10.5 26.5834V12.5834C10.5 12.1004 10.892 11.7084 11.375 11.7084C11.858 11.7084 12.25 12.1004 12.25 12.5834V25.9831L22.75 30.0221L33.25 25.9831V12.5834C33.25 12.1004 33.642 11.7084 34.125 11.7084C34.608 11.7084 35 12.1004 35 12.5834V26.5834C35 26.9456 34.7778 27.2711 34.44 27.4006L23.065 31.7756C22.9635 31.8141 22.8567 31.8334 22.75 31.8334Z" fill="white"/>
<path d="M22.75 31.8334C22.267 31.8334 21.875 31.4414 21.875 30.9584V16.9584C21.875 16.4754 22.267 16.0834 22.75 16.0834C23.233 16.0834 23.625 16.4754 23.625 16.9584V30.9584C23.625 31.4414 23.233 31.8334 22.75 31.8334Z" fill="white"/>
</g>
<defs>
<clipPath id="clip0">
<rect width="42" height="42" fill="white" transform="translate(0 0.333374)"/>
</clipPath>
</defs>
</svg>
