<svg width="72" height="31" viewBox="0 0 72 31" fill="none" xmlns="http://www.w3.org/2000/svg">
<path d="M1.66543 5.93486C1.74021 5.94166 1.82519 5.94845 1.92037 5.95525C2.02234 5.95525 2.14131 5.95525 2.27727 5.95525C3.07267 5.95525 3.66071 5.7547 4.04142 5.35361C4.42891 4.95251 4.62266 4.39846 4.62266 3.69144C4.62266 2.95043 4.43911 2.38958 4.07201 2.00888C3.7049 1.62818 3.12365 1.43783 2.32826 1.43783C2.21949 1.43783 2.10732 1.44123 1.99175 1.44802C1.87618 1.44802 1.76741 1.45482 1.66543 1.46842V5.93486ZM6.26444 3.69144C6.26444 4.30328 6.16926 4.83694 5.97891 5.29243C5.78856 5.74791 5.51663 6.12521 5.16312 6.42433C4.81641 6.72345 4.39152 6.94779 3.88845 7.09736C3.38539 7.24692 2.82113 7.3217 2.19569 7.3217C1.91017 7.3217 1.57706 7.3081 1.19635 7.28091C0.815653 7.26051 0.441751 7.21293 0.074646 7.13815V0.254934C0.441751 0.186952 0.822452 0.142763 1.21675 0.122368C1.61784 0.0951755 1.96116 0.081579 2.24668 0.081579C2.85172 0.081579 3.39898 0.149561 3.88845 0.285526C4.38473 0.421491 4.80962 0.635635 5.16312 0.927959C5.51663 1.22028 5.78856 1.59419 5.97891 2.04967C6.16926 2.50515 6.26444 3.05241 6.26444 3.69144Z" fill="white"/>
<path d="M7.18531 7.22992V0.163158H11.9577V1.49901H8.77609V2.88585H11.6008V4.19111H8.77609V5.89407H12.1922V7.22992H7.18531Z" fill="white"/>
<path d="M15.1717 7.22992C14.893 6.63847 14.6177 6.02323 14.3458 5.3842C14.0738 4.74517 13.8155 4.11293 13.5708 3.48749C13.326 2.86206 13.0983 2.26381 12.8875 1.69276C12.6836 1.12171 12.5068 0.611841 12.3573 0.163158H14.1112C14.2472 0.571052 14.3933 1.01294 14.5497 1.48881C14.7129 1.95789 14.876 2.42697 15.0392 2.89605C15.2091 3.36513 15.3723 3.81381 15.5287 4.2421C15.685 4.67039 15.8312 5.04089 15.9671 5.35361C16.0963 5.04089 16.2391 4.67039 16.3954 4.2421C16.5586 3.81381 16.7217 3.36513 16.8849 2.89605C17.0549 2.42697 17.218 1.95789 17.3744 1.48881C17.5375 1.01294 17.6871 0.571052 17.8231 0.163158H19.5158C19.3595 0.611841 19.1793 1.12171 18.9754 1.69276C18.7714 2.26381 18.5471 2.86206 18.3023 3.48749C18.0576 4.11293 17.7993 4.74517 17.5273 5.3842C17.2554 6.02323 16.9801 6.63847 16.7013 7.22992H15.1717Z" fill="white"/>
<path d="M20.0224 7.22992V0.163158H24.7948V1.49901H21.6132V2.88585H24.4379V4.19111H21.6132V5.89407H25.0293V7.22992H20.0224Z" fill="white"/>
<path d="M30.52 5.86348V7.22992H25.7987V0.163158H27.3894V5.86348H30.52Z" fill="white"/>
<path d="M32.2734 3.69144C32.2734 4.03815 32.3142 4.35087 32.3958 4.6296C32.4842 4.90832 32.6065 5.14966 32.7629 5.35361C32.926 5.55076 33.1232 5.70372 33.3543 5.81249C33.5855 5.92126 33.8506 5.97565 34.1497 5.97565C34.4421 5.97565 34.7038 5.92126 34.9349 5.81249C35.1729 5.70372 35.37 5.55076 35.5264 5.35361C35.6895 5.14966 35.8119 4.90832 35.8935 4.6296C35.9819 4.35087 36.026 4.03815 36.026 3.69144C36.026 3.34473 35.9819 3.03201 35.8935 2.75328C35.8119 2.46776 35.6895 2.22642 35.5264 2.02927C35.37 1.82533 35.1729 1.66897 34.9349 1.56019C34.7038 1.45142 34.4421 1.39704 34.1497 1.39704C33.8506 1.39704 33.5855 1.45482 33.3543 1.57039C33.1232 1.67916 32.926 1.83552 32.7629 2.03947C32.6065 2.23662 32.4842 2.47796 32.3958 2.76348C32.3142 3.04221 32.2734 3.35153 32.2734 3.69144ZM37.6678 3.69144C37.6678 4.29648 37.576 4.83014 37.3925 5.29243C37.2157 5.74791 36.971 6.13201 36.6583 6.44473C36.3456 6.75065 35.9717 6.98179 35.5366 7.13815C35.1083 7.29451 34.646 7.37268 34.1497 7.37268C33.6671 7.37268 33.2116 7.29451 32.7833 7.13815C32.355 6.98179 31.9811 6.75065 31.6616 6.44473C31.3421 6.13201 31.0905 5.74791 30.907 5.29243C30.7234 4.83014 30.6316 4.29648 30.6316 3.69144C30.6316 3.0864 30.7268 2.55614 30.9172 2.10065C31.1075 1.63837 31.3624 1.25087 31.682 0.938156C32.0083 0.625437 32.3822 0.390898 32.8037 0.234539C33.232 0.0781797 33.6806 0 34.1497 0C34.6324 0 35.0879 0.0781797 35.5162 0.234539C35.9445 0.390898 36.3184 0.625437 36.6379 0.938156C36.9574 1.25087 37.2089 1.63837 37.3925 2.10065C37.576 2.55614 37.6678 3.0864 37.6678 3.69144Z" fill="white"/>
<path d="M40.707 0.081579C41.7607 0.081579 42.5697 0.26853 43.134 0.642433C43.6982 1.00954 43.9804 1.61458 43.9804 2.45756C43.9804 3.30734 43.6948 3.92258 43.1238 4.30328C42.5527 4.67718 41.737 4.86414 40.6764 4.86414H40.1768V7.22992H38.586V0.265131C38.9327 0.197149 39.2998 0.149561 39.6873 0.122368C40.0748 0.0951755 40.4147 0.081579 40.707 0.081579ZM40.809 1.43783C40.6934 1.43783 40.5779 1.44123 40.4623 1.44802C40.3535 1.45482 40.2583 1.46162 40.1768 1.46842V3.50789H40.6764C41.2271 3.50789 41.6418 3.43311 41.9205 3.28355C42.1992 3.13399 42.3386 2.85526 42.3386 2.44736C42.3386 2.25022 42.3012 2.08706 42.2264 1.95789C42.1584 1.82872 42.0565 1.72675 41.9205 1.65197C41.7913 1.57039 41.6316 1.51601 41.4412 1.48881C41.2509 1.45482 41.0401 1.43783 40.809 1.43783Z" fill="white"/>
<path d="M44.7406 7.22992V0.163158H49.513V1.49901H46.3314V2.88585H49.1561V4.19111H46.3314V5.89407H49.7475V7.22992H44.7406Z" fill="white"/>
<path d="M52.1077 5.93486C52.1824 5.94166 52.2674 5.94845 52.3626 5.95525C52.4646 5.95525 52.5835 5.95525 52.7195 5.95525C53.5149 5.95525 54.1029 5.7547 54.4836 5.35361C54.8711 4.95251 55.0649 4.39846 55.0649 3.69144C55.0649 2.95043 54.8813 2.38958 54.5142 2.00888C54.1471 1.62818 53.5659 1.43783 52.7705 1.43783C52.6617 1.43783 52.5495 1.44123 52.434 1.44802C52.3184 1.44802 52.2096 1.45482 52.1077 1.46842V5.93486ZM56.7067 3.69144C56.7067 4.30328 56.6115 4.83694 56.4211 5.29243C56.2308 5.74791 55.9589 6.12521 55.6054 6.42433C55.2586 6.72345 54.8338 6.94779 54.3307 7.09736C53.8276 7.24692 53.2634 7.3217 52.6379 7.3217C52.3524 7.3217 52.0193 7.3081 51.6386 7.28091C51.2579 7.26051 50.884 7.21293 50.5169 7.13815V0.254934C50.884 0.186952 51.2647 0.142763 51.659 0.122368C52.0601 0.0951755 52.4034 0.081579 52.6889 0.081579C53.2939 0.081579 53.8412 0.149561 54.3307 0.285526C54.827 0.421491 55.2518 0.635635 55.6054 0.927959C55.9589 1.22028 56.2308 1.59419 56.4211 2.04967C56.6115 2.50515 56.7067 3.05241 56.7067 3.69144Z" fill="white"/>
<path d="M62.025 7.3217C61.6375 7.3217 61.25 7.3081 60.8625 7.28091C60.4818 7.26051 60.0841 7.20613 59.6694 7.11775V0.265131C59.9957 0.203947 60.3526 0.159759 60.7401 0.132566C61.1276 0.0985745 61.4879 0.081579 61.821 0.081579C62.2697 0.081579 62.681 0.11557 63.0549 0.183552C63.4356 0.244736 63.7619 0.353508 64.0339 0.509868C64.3058 0.666227 64.5165 0.873573 64.6661 1.13191C64.8224 1.38344 64.9006 1.69616 64.9006 2.07006C64.9006 2.63432 64.6287 3.0796 64.0848 3.40592C64.5335 3.57587 64.8394 3.80701 65.0026 4.09934C65.1658 4.39166 65.2473 4.72137 65.2473 5.08848C65.2473 5.82949 64.9754 6.38694 64.4316 6.76084C63.8945 7.13475 63.0923 7.3217 62.025 7.3217ZM61.2194 4.15032V5.97565C61.335 5.98924 61.4607 5.99944 61.5967 6.00624C61.7327 6.01304 61.8822 6.01644 62.0454 6.01644C62.5212 6.01644 62.9053 5.94845 63.1977 5.81249C63.49 5.67653 63.6362 5.42499 63.6362 5.05789C63.6362 4.73157 63.5138 4.50043 63.2691 4.36447C63.0243 4.2217 62.6742 4.15032 62.2187 4.15032H61.2194ZM61.2194 2.93684H61.9944C62.4839 2.93684 62.834 2.87565 63.0447 2.75328C63.2555 2.62412 63.3608 2.42017 63.3608 2.14144C63.3608 1.85592 63.2521 1.65537 63.0345 1.5398C62.817 1.42423 62.4975 1.36644 62.076 1.36644C61.94 1.36644 61.7938 1.36984 61.6375 1.37664C61.4811 1.37664 61.3418 1.38344 61.2194 1.39704V2.93684Z" fill="white"/>
<path d="M68.3544 3.0694C68.64 2.58673 68.9119 2.10405 69.1702 1.62138C69.4286 1.1387 69.6665 0.652631 69.884 0.163158H71.638C71.2505 0.92456 70.8494 1.66217 70.4347 2.37598C70.02 3.0898 69.5815 3.80701 69.1192 4.52762V7.22992H67.5284V4.54802C67.0662 3.82741 66.6243 3.10679 66.2028 2.38618C65.7881 1.66557 65.387 0.92456 64.9995 0.163158H66.8452C67.0628 0.652631 67.2973 1.1387 67.5488 1.62138C67.8004 2.10405 68.0689 2.58673 68.3544 3.0694Z" fill="white"/>
<path d="M5.326 28.0318C4.46214 28.0318 3.59828 28.0017 2.73442 27.9415C1.88572 27.8964 0.999127 27.776 0.074646 27.5804V12.4156C0.802106 12.2802 1.59777 12.1824 2.46162 12.1222C3.32548 12.047 4.12872 12.0094 4.87134 12.0094C5.87159 12.0094 6.7885 12.0846 7.62205 12.2351C8.47075 12.3705 9.19821 12.6112 9.80443 12.9572C10.4106 13.3032 10.8805 13.7621 11.2139 14.3338C11.5625 14.8904 11.7367 15.5825 11.7367 16.4099C11.7367 17.6586 11.1305 18.644 9.91809 19.3662C10.9184 19.7423 11.6003 20.2538 11.9641 20.9007C12.3278 21.5476 12.5097 22.2773 12.5097 23.0897C12.5097 24.7295 11.9035 25.9632 10.691 26.7906C9.49374 27.6181 7.7054 28.0318 5.326 28.0318ZM3.53008 21.0135V25.053C3.78772 25.0831 4.0681 25.1056 4.37121 25.1207C4.67432 25.1357 5.00774 25.1432 5.37147 25.1432C6.43235 25.1432 7.28863 24.9928 7.94031 24.6919C8.59199 24.391 8.91784 23.8344 8.91784 23.022C8.91784 22.2998 8.64504 21.7883 8.09944 21.4874C7.55385 21.1715 6.77334 21.0135 5.75793 21.0135H3.53008ZM3.53008 18.3281H5.2578C6.34899 18.3281 7.1295 18.1927 7.59931 17.9219C8.06913 17.636 8.30404 17.1847 8.30404 16.5679C8.30404 15.936 8.06155 15.4922 7.57658 15.2364C7.09161 14.9807 6.3793 14.8528 5.43967 14.8528C5.13656 14.8528 4.81072 14.8603 4.46214 14.8754C4.11357 14.8754 3.80288 14.8904 3.53008 14.9205V18.3281Z" fill="#D82222"/>
<path d="M17.4172 19.998C17.4172 20.7653 17.5081 21.4573 17.69 22.0742C17.887 22.691 18.1598 23.2251 18.5084 23.6764C18.8721 24.1127 19.3116 24.4512 19.8269 24.6919C20.3422 24.9326 20.9332 25.053 21.6001 25.053C22.2518 25.053 22.8352 24.9326 23.3505 24.6919C23.881 24.4512 24.3205 24.1127 24.6691 23.6764C25.0328 23.2251 25.3056 22.691 25.4874 22.0742C25.6845 21.4573 25.783 20.7653 25.783 19.998C25.783 19.2308 25.6845 18.5387 25.4874 17.9219C25.3056 17.29 25.0328 16.7559 24.6691 16.3196C24.3205 15.8683 23.881 15.5223 23.3505 15.2816C22.8352 15.0409 22.2518 14.9205 21.6001 14.9205C20.9332 14.9205 20.3422 15.0484 19.8269 15.3041C19.3116 15.5448 18.8721 15.8909 18.5084 16.3422C18.1598 16.7785 17.887 17.3126 17.69 17.9444C17.5081 18.5613 17.4172 19.2458 17.4172 19.998ZM29.443 19.998C29.443 21.337 29.2384 22.518 28.8292 23.541C28.4352 24.549 27.8896 25.399 27.1924 26.091C26.4953 26.768 25.6617 27.2796 24.6918 27.6256C23.737 27.9716 22.7064 28.1446 21.6001 28.1446C20.524 28.1446 19.5086 27.9716 18.5538 27.6256C17.599 27.2796 16.7655 26.768 16.0532 26.091C15.3409 25.399 14.7801 24.549 14.3709 23.541C13.9617 22.518 13.7571 21.337 13.7571 19.998C13.7571 18.6591 13.9693 17.4856 14.3937 16.4776C14.818 15.4546 15.3864 14.597 16.0987 13.905C16.8261 13.213 17.6597 12.6939 18.5993 12.3479C19.5541 12.0019 20.5544 11.8289 21.6001 11.8289C22.6761 11.8289 23.6915 12.0019 24.6463 12.3479C25.6011 12.6939 26.4347 13.213 27.147 13.905C27.8593 14.597 28.42 15.4546 28.8292 16.4776C29.2384 17.4856 29.443 18.6591 29.443 19.998Z" fill="#D82222"/>
<path d="M30.2589 8.97363H33.6823L41.3001 30.9999H37.8313L30.2589 8.97363Z" fill="white"/>
<path d="M46.1803 26.9951C45.3187 26.9951 44.4572 26.9648 43.5957 26.9041C42.7492 26.8586 41.865 26.7372 40.943 26.54V11.2491C41.6685 11.1125 42.4621 11.0139 43.3236 10.9533C44.1851 10.8774 44.9862 10.8395 45.7268 10.8395C46.7244 10.8395 47.6388 10.9153 48.4702 11.067C49.3166 11.2036 50.0421 11.4463 50.6467 11.7952C51.2513 12.1441 51.7198 12.6068 52.0523 13.1832C52.4 13.7445 52.5738 14.4423 52.5738 15.2766C52.5738 16.5357 51.9692 17.5293 50.76 18.2574C51.7576 18.6367 52.4378 19.1524 52.8005 19.8047C53.1633 20.457 53.3446 21.1928 53.3446 22.0119C53.3446 23.6654 52.74 24.9093 51.5309 25.7436C50.3368 26.578 48.5533 26.9951 46.1803 26.9951ZM44.3892 19.9185V23.9915C44.6461 24.0219 44.9258 24.0446 45.2281 24.0598C45.5303 24.075 45.8629 24.0826 46.2256 24.0826C47.2836 24.0826 48.1376 23.9309 48.7876 23.6275C49.4375 23.3241 49.7625 22.7628 49.7625 21.9437C49.7625 21.2155 49.4904 20.6997 48.9463 20.3964C48.4021 20.0778 47.6237 19.9185 46.611 19.9185H44.3892ZM44.3892 17.2107H46.1123C47.2005 17.2107 47.9789 17.0742 48.4475 16.8012C48.916 16.5129 49.1503 16.0578 49.1503 15.4359C49.1503 14.7988 48.9085 14.3513 48.4248 14.0934C47.9411 13.8355 47.2307 13.7066 46.2936 13.7066C45.9913 13.7066 45.6664 13.7141 45.3187 13.7293C44.9711 13.7293 44.6613 13.7445 44.3892 13.7748V17.2107Z" fill="white"/>
<path d="M58.239 18.8946C58.239 19.6682 58.3296 20.366 58.511 20.988C58.7075 21.6099 58.9796 22.1484 59.3272 22.6035C59.69 23.0434 60.1283 23.3848 60.6422 23.6275C61.1561 23.8702 61.7456 23.9915 62.4106 23.9915C63.0605 23.9915 63.6425 23.8702 64.1564 23.6275C64.6854 23.3848 65.1237 23.0434 65.4713 22.6035C65.8341 22.1484 66.1061 21.6099 66.2875 20.988C66.484 20.366 66.5823 19.6682 66.5823 18.8946C66.5823 18.1209 66.484 17.4231 66.2875 16.8012C66.1061 16.164 65.8341 15.6255 65.4713 15.1856C65.1237 14.7305 64.6854 14.3816 64.1564 14.1389C63.6425 13.8962 63.0605 13.7748 62.4106 13.7748C61.7456 13.7748 61.1561 13.9038 60.6422 14.1616C60.1283 14.4044 59.69 14.7533 59.3272 15.2083C58.9796 15.6483 58.7075 16.1868 58.511 16.8239C58.3296 17.4459 58.239 18.1361 58.239 18.8946ZM70.2325 18.8946C70.2325 20.2447 70.0284 21.4355 69.6203 22.467C69.2273 23.4834 68.6832 24.3404 67.9879 25.0383C67.2927 25.7209 66.4613 26.2367 65.494 26.5856C64.5418 26.9345 63.514 27.1089 62.4106 27.1089C61.3375 27.1089 60.3248 26.9345 59.3726 26.5856C58.4203 26.2367 57.589 25.7209 56.8786 25.0383C56.1682 24.3404 55.609 23.4834 55.2009 22.467C54.7928 21.4355 54.5888 20.2447 54.5888 18.8946C54.5888 17.5445 54.8004 16.3612 55.2236 15.3449C55.6468 14.3133 56.2136 13.4487 56.924 12.7509C57.6495 12.0531 58.4808 11.5297 59.4179 11.1808C60.3701 10.8319 61.3677 10.6575 62.4106 10.6575C63.4837 10.6575 64.4964 10.8319 65.4487 11.1808C66.4009 11.5297 67.2322 12.0531 67.9426 12.7509C68.653 13.4487 69.2122 14.3133 69.6203 15.3449C70.0284 16.3612 70.2325 17.5445 70.2325 18.8946Z" fill="white"/>
</svg>
