<svg width="473" height="459" viewBox="0 0 473 459" fill="none" xmlns="http://www.w3.org/2000/svg">
<path d="M314.227 39.2215V39.0423L314.22 38.8632C313.164 12.3497 274.716 12.4071 273.672 38.8665L273.665 39.044V39.2215V63.3878C273.665 74.5885 282.745 83.6688 293.946 83.6688C305.147 83.6688 314.227 74.5885 314.227 63.3878V39.2215Z" fill="white" stroke="#0273BA" stroke-width="18"/>
<path d="M415.134 139.779L414.956 139.772H414.779H390.612H390.432L390.253 139.78C363.74 140.836 363.797 179.283 390.257 180.328L390.434 180.335H390.612H414.779H414.958L415.137 180.327C441.665 179.272 441.578 140.825 415.134 139.779Z" fill="white" stroke="#0273BA" stroke-width="18"/>
<path d="M365.045 60.2725L365.045 60.2725L347.959 77.361C347.959 77.361 347.959 77.361 347.959 77.361C340.04 85.2818 340.041 98.1235 347.962 106.043C355.883 113.963 368.725 113.961 376.643 106.04C376.644 106.04 376.644 106.04 376.644 106.039L393.729 88.9515C401.648 81.0307 401.647 68.189 393.726 60.2699C385.805 52.3505 372.964 52.352 365.045 60.2725Z" fill="white" stroke="#0273BA" stroke-width="18"/>
<path d="M203.317 56.1132L203.316 56.1135C196.118 58.363 190.759 64.4221 189.41 71.8458L181.447 115.643C99.0926 117.528 31.8744 185.519 32.0002 268.811C32.0041 353.284 100.711 421.992 185.183 422C268.474 422.129 336.476 354.91 338.358 272.554L382.157 264.59C389.578 263.241 395.639 257.884 397.888 250.683C400.137 243.482 398.203 235.629 392.87 230.296L354.606 192.032C385.985 132.737 321.222 68.0289 261.968 99.3936L223.706 61.1325C218.371 55.7943 210.514 53.8652 203.317 56.1132ZM294.576 132.002C310.022 132.168 321.55 145.261 322.02 159.445L294.576 132.002ZM293.946 123.002L294.022 131.449L293.946 131.372V123.002ZM134.608 355.647L134.61 355.649C143.177 364.211 156.04 368.527 168.881 365.751L184.529 381.399C39.7479 374.451 36.1182 173.551 173.914 157.078L166.377 198.526L98.361 266.543C83.743 281.152 83.7598 304.801 98.3565 319.392C98.3572 319.392 98.3578 319.393 98.3585 319.394L134.608 355.647ZM297.278 280.023C295.047 302.491 286.187 323.036 272.671 339.681L238.045 305.053L255.474 287.624L297.278 280.023ZM216.932 268.803L161.031 324.705L129.297 292.969L185.197 237.068L216.932 268.803ZM241.817 366.189C238.583 368.076 235.257 369.798 231.845 371.351L201.796 341.302L209.363 333.735L241.817 366.189ZM252.439 246.948L207.051 201.559L222.393 117.183L336.817 231.607L252.439 246.948Z" fill="white" stroke="#0273BA" stroke-width="18"/>
</svg>
