<svg width="196" height="196" viewBox="0 0 196 196" fill="none" xmlns="http://www.w3.org/2000/svg">
<mask id="path-1-outside-1" maskUnits="userSpaceOnUse" x="22.9807" y="1.53845" width="151" height="193" fill="black">
<rect fill="white" x="22.9807" y="1.53845" width="151" height="193"/>
<path d="M167.019 157.285C166.617 132.696 141.477 125.432 123.12 120.127C120.978 119.509 118.919 118.913 116.988 118.319V108.176C120.741 105.823 124.03 102.796 126.682 99.2647H137.864C143.336 99.2647 147.788 94.8126 147.788 89.3407V77.3277C148.452 75.7813 148.82 74.0795 148.82 72.2926V68.5564C148.82 66.7712 148.452 65.0704 147.788 63.5252V57.3278C147.788 29.8741 125.453 7.53845 98 7.53845C70.5518 7.53845 48.2215 29.8741 48.2215 57.3282V63.3481C48.2215 63.3955 48.2268 63.4411 48.2286 63.4881C47.5551 65.0436 47.1798 66.7567 47.1798 68.5568V72.2929C47.1798 79.3557 52.9213 85.1017 59.9784 85.1017H62.8986C64.9213 94.801 70.8759 103.073 79.0114 108.174V118.319C77.081 118.913 75.0216 119.508 72.8798 120.127C54.5231 125.432 29.3832 132.697 28.9811 157.285C28.9807 157.304 28.9807 157.323 28.9807 157.343V184.928C28.9807 186.879 30.5631 188.462 32.5144 188.462H42.991C44.9423 188.462 46.5247 186.879 46.5247 184.928C46.5247 182.976 44.9423 181.394 42.991 181.394H36.0477V157.372C36.1965 148.793 40.1372 142.362 48.4487 137.134C53.9334 133.684 60.6385 131.226 67.2479 129.17L75.7856 145.805C76.7372 147.659 79.1736 148.289 80.9051 147.12L84.712 144.553L87.9802 156.837L82.3804 181.394H74.7223C72.771 181.394 71.1886 182.976 71.1886 184.927C71.1886 186.879 72.771 188.461 74.7223 188.461H163.486C165.437 188.461 167.019 186.879 167.019 184.927V157.342C167.019 157.323 167.019 157.304 167.019 157.285ZM121.158 126.917C121.391 126.984 121.628 127.053 121.862 127.121L115.754 139.034L104.322 131.325L114.008 124.792C116.258 125.5 118.651 126.192 121.158 126.917ZM98.0024 135.588L105.088 140.366L101.664 153.238H94.3362L90.9128 140.37L98.0024 135.588ZM98.0017 127.064L86.0784 119.024V111.584C89.8103 112.904 93.8214 113.628 97.9996 113.628C102.177 113.628 106.189 112.907 109.921 111.587V119.024L98.0017 127.064ZM126.788 57.9745C126.74 57.9437 126.692 57.913 126.644 57.8823C119.393 53.2666 113.13 49.2803 103.318 52.0877C103.227 52.1139 103.136 52.1436 103.048 52.1768C100.968 52.9581 99.076 53.6864 97.2462 54.3906C86.0717 58.6922 79.9705 61.0414 69.2112 60.7389V57.9091C69.2112 42.0345 82.1257 29.1196 97.9996 29.1196C113.874 29.1196 126.788 42.0345 126.788 57.9091L126.788 57.9745ZM140.721 89.3407C140.721 90.916 139.44 92.1973 137.864 92.1973H130.822C131.817 89.9432 132.587 87.5689 133.102 85.1014H136.022C137.681 85.1014 139.265 84.7805 140.721 84.2028L140.721 89.3407ZM141.753 72.2926C141.753 75.4584 139.182 78.0341 136.022 78.0341H133.853C133.853 77.9464 133.856 62.8248 133.856 62.8248H136.022C139.182 62.8248 141.753 65.3959 141.753 68.5564L141.753 72.2926ZM59.9784 78.0344C56.8182 78.0344 54.2471 75.4587 54.2471 72.2929V68.5568C54.2471 65.3962 56.8179 62.8252 59.9784 62.8252H62.1442C62.1442 62.8252 62.147 77.9468 62.1477 78.0344H59.9784ZM62.2103 55.7575H59.978C58.3261 55.7575 56.7483 56.0755 55.2973 56.6479C55.6624 33.4035 74.6763 14.6058 98 14.6058C121.33 14.6058 140.35 33.4056 140.712 56.6518C139.259 56.0769 137.677 55.7575 136.022 55.7575H133.789C132.673 36.9838 117.048 22.0523 98 22.0523C78.9514 22.0523 63.3269 36.9841 62.2103 55.7575ZM69.4239 81.2094C69.4235 81.2059 69.4228 81.2023 69.4225 81.1988C69.2886 80.0741 69.2115 78.932 69.2115 77.7719V67.8059C81.3013 68.1006 88.5131 65.3259 99.7852 60.9866C101.56 60.3032 103.396 59.5968 105.395 58.8452C112.07 56.9819 115.91 59.4275 122.848 63.8443C124.052 64.6107 125.373 65.4507 126.788 66.3132V77.7719C126.788 83.0268 125.366 87.9527 122.897 92.1977H98C96.0487 92.1977 94.4663 93.7797 94.4663 95.7314C94.4663 97.683 96.0487 99.265 98 99.265H117.126C112.036 103.799 105.336 106.561 98 106.561C83.2896 106.561 71.1289 95.4681 69.4239 81.2094ZM80.2546 139.034L74.1392 127.12C74.3731 127.052 74.6092 126.984 74.8417 126.917C77.3485 126.192 79.7415 125.5 81.9924 124.792L91.6825 131.326L80.2546 139.034ZM89.6294 181.394L94.4384 160.305H101.563L106.379 181.394H89.6294ZM159.952 181.394H113.628L108.02 156.836L111.289 144.548L115.105 147.121C116.838 148.289 119.274 147.659 120.225 145.803L128.753 129.171C135.362 131.227 142.067 133.685 147.552 137.134C155.863 142.362 159.804 148.793 159.953 157.372L159.952 181.394Z"/>
</mask>
<path d="M167.019 157.285C166.617 132.696 141.477 125.432 123.12 120.127C120.978 119.509 118.919 118.913 116.988 118.319V108.176C120.741 105.823 124.03 102.796 126.682 99.2647H137.864C143.336 99.2647 147.788 94.8126 147.788 89.3407V77.3277C148.452 75.7813 148.82 74.0795 148.82 72.2926V68.5564C148.82 66.7712 148.452 65.0704 147.788 63.5252V57.3278C147.788 29.8741 125.453 7.53845 98 7.53845C70.5518 7.53845 48.2215 29.8741 48.2215 57.3282V63.3481C48.2215 63.3955 48.2268 63.4411 48.2286 63.4881C47.5551 65.0436 47.1798 66.7567 47.1798 68.5568V72.2929C47.1798 79.3557 52.9213 85.1017 59.9784 85.1017H62.8986C64.9213 94.801 70.8759 103.073 79.0114 108.174V118.319C77.081 118.913 75.0216 119.508 72.8798 120.127C54.5231 125.432 29.3832 132.697 28.9811 157.285C28.9807 157.304 28.9807 157.323 28.9807 157.343V184.928C28.9807 186.879 30.5631 188.462 32.5144 188.462H42.991C44.9423 188.462 46.5247 186.879 46.5247 184.928C46.5247 182.976 44.9423 181.394 42.991 181.394H36.0477V157.372C36.1965 148.793 40.1372 142.362 48.4487 137.134C53.9334 133.684 60.6385 131.226 67.2479 129.17L75.7856 145.805C76.7372 147.659 79.1736 148.289 80.9051 147.12L84.712 144.553L87.9802 156.837L82.3804 181.394H74.7223C72.771 181.394 71.1886 182.976 71.1886 184.927C71.1886 186.879 72.771 188.461 74.7223 188.461H163.486C165.437 188.461 167.019 186.879 167.019 184.927V157.342C167.019 157.323 167.019 157.304 167.019 157.285ZM121.158 126.917C121.391 126.984 121.628 127.053 121.862 127.121L115.754 139.034L104.322 131.325L114.008 124.792C116.258 125.5 118.651 126.192 121.158 126.917ZM98.0024 135.588L105.088 140.366L101.664 153.238H94.3362L90.9128 140.37L98.0024 135.588ZM98.0017 127.064L86.0784 119.024V111.584C89.8103 112.904 93.8214 113.628 97.9996 113.628C102.177 113.628 106.189 112.907 109.921 111.587V119.024L98.0017 127.064ZM126.788 57.9745C126.74 57.9437 126.692 57.913 126.644 57.8823C119.393 53.2666 113.13 49.2803 103.318 52.0877C103.227 52.1139 103.136 52.1436 103.048 52.1768C100.968 52.9581 99.076 53.6864 97.2462 54.3906C86.0717 58.6922 79.9705 61.0414 69.2112 60.7389V57.9091C69.2112 42.0345 82.1257 29.1196 97.9996 29.1196C113.874 29.1196 126.788 42.0345 126.788 57.9091L126.788 57.9745ZM140.721 89.3407C140.721 90.916 139.44 92.1973 137.864 92.1973H130.822C131.817 89.9432 132.587 87.5689 133.102 85.1014H136.022C137.681 85.1014 139.265 84.7805 140.721 84.2028L140.721 89.3407ZM141.753 72.2926C141.753 75.4584 139.182 78.0341 136.022 78.0341H133.853C133.853 77.9464 133.856 62.8248 133.856 62.8248H136.022C139.182 62.8248 141.753 65.3959 141.753 68.5564L141.753 72.2926ZM59.9784 78.0344C56.8182 78.0344 54.2471 75.4587 54.2471 72.2929V68.5568C54.2471 65.3962 56.8179 62.8252 59.9784 62.8252H62.1442C62.1442 62.8252 62.147 77.9468 62.1477 78.0344H59.9784ZM62.2103 55.7575H59.978C58.3261 55.7575 56.7483 56.0755 55.2973 56.6479C55.6624 33.4035 74.6763 14.6058 98 14.6058C121.33 14.6058 140.35 33.4056 140.712 56.6518C139.259 56.0769 137.677 55.7575 136.022 55.7575H133.789C132.673 36.9838 117.048 22.0523 98 22.0523C78.9514 22.0523 63.3269 36.9841 62.2103 55.7575ZM69.4239 81.2094C69.4235 81.2059 69.4228 81.2023 69.4225 81.1988C69.2886 80.0741 69.2115 78.932 69.2115 77.7719V67.8059C81.3013 68.1006 88.5131 65.3259 99.7852 60.9866C101.56 60.3032 103.396 59.5968 105.395 58.8452C112.07 56.9819 115.91 59.4275 122.848 63.8443C124.052 64.6107 125.373 65.4507 126.788 66.3132V77.7719C126.788 83.0268 125.366 87.9527 122.897 92.1977H98C96.0487 92.1977 94.4663 93.7797 94.4663 95.7314C94.4663 97.683 96.0487 99.265 98 99.265H117.126C112.036 103.799 105.336 106.561 98 106.561C83.2896 106.561 71.1289 95.4681 69.4239 81.2094ZM80.2546 139.034L74.1392 127.12C74.3731 127.052 74.6092 126.984 74.8417 126.917C77.3485 126.192 79.7415 125.5 81.9924 124.792L91.6825 131.326L80.2546 139.034ZM89.6294 181.394L94.4384 160.305H101.563L106.379 181.394H89.6294ZM159.952 181.394H113.628L108.02 156.836L111.289 144.548L115.105 147.121C116.838 148.289 119.274 147.659 120.225 145.803L128.753 129.171C135.362 131.227 142.067 133.685 147.552 137.134C155.863 142.362 159.804 148.793 159.953 157.372L159.952 181.394Z" fill="white"/>
<path d="M167.019 157.285C166.617 132.696 141.477 125.432 123.12 120.127C120.978 119.509 118.919 118.913 116.988 118.319V108.176C120.741 105.823 124.03 102.796 126.682 99.2647H137.864C143.336 99.2647 147.788 94.8126 147.788 89.3407V77.3277C148.452 75.7813 148.82 74.0795 148.82 72.2926V68.5564C148.82 66.7712 148.452 65.0704 147.788 63.5252V57.3278C147.788 29.8741 125.453 7.53845 98 7.53845C70.5518 7.53845 48.2215 29.8741 48.2215 57.3282V63.3481C48.2215 63.3955 48.2268 63.4411 48.2286 63.4881C47.5551 65.0436 47.1798 66.7567 47.1798 68.5568V72.2929C47.1798 79.3557 52.9213 85.1017 59.9784 85.1017H62.8986C64.9213 94.801 70.8759 103.073 79.0114 108.174V118.319C77.081 118.913 75.0216 119.508 72.8798 120.127C54.5231 125.432 29.3832 132.697 28.9811 157.285C28.9807 157.304 28.9807 157.323 28.9807 157.343V184.928C28.9807 186.879 30.5631 188.462 32.5144 188.462H42.991C44.9423 188.462 46.5247 186.879 46.5247 184.928C46.5247 182.976 44.9423 181.394 42.991 181.394H36.0477V157.372C36.1965 148.793 40.1372 142.362 48.4487 137.134C53.9334 133.684 60.6385 131.226 67.2479 129.17L75.7856 145.805C76.7372 147.659 79.1736 148.289 80.9051 147.12L84.712 144.553L87.9802 156.837L82.3804 181.394H74.7223C72.771 181.394 71.1886 182.976 71.1886 184.927C71.1886 186.879 72.771 188.461 74.7223 188.461H163.486C165.437 188.461 167.019 186.879 167.019 184.927V157.342C167.019 157.323 167.019 157.304 167.019 157.285ZM121.158 126.917C121.391 126.984 121.628 127.053 121.862 127.121L115.754 139.034L104.322 131.325L114.008 124.792C116.258 125.5 118.651 126.192 121.158 126.917ZM98.0024 135.588L105.088 140.366L101.664 153.238H94.3362L90.9128 140.37L98.0024 135.588ZM98.0017 127.064L86.0784 119.024V111.584C89.8103 112.904 93.8214 113.628 97.9996 113.628C102.177 113.628 106.189 112.907 109.921 111.587V119.024L98.0017 127.064ZM126.788 57.9745C126.74 57.9437 126.692 57.913 126.644 57.8823C119.393 53.2666 113.13 49.2803 103.318 52.0877C103.227 52.1139 103.136 52.1436 103.048 52.1768C100.968 52.9581 99.076 53.6864 97.2462 54.3906C86.0717 58.6922 79.9705 61.0414 69.2112 60.7389V57.9091C69.2112 42.0345 82.1257 29.1196 97.9996 29.1196C113.874 29.1196 126.788 42.0345 126.788 57.9091L126.788 57.9745ZM140.721 89.3407C140.721 90.916 139.44 92.1973 137.864 92.1973H130.822C131.817 89.9432 132.587 87.5689 133.102 85.1014H136.022C137.681 85.1014 139.265 84.7805 140.721 84.2028L140.721 89.3407ZM141.753 72.2926C141.753 75.4584 139.182 78.0341 136.022 78.0341H133.853C133.853 77.9464 133.856 62.8248 133.856 62.8248H136.022C139.182 62.8248 141.753 65.3959 141.753 68.5564L141.753 72.2926ZM59.9784 78.0344C56.8182 78.0344 54.2471 75.4587 54.2471 72.2929V68.5568C54.2471 65.3962 56.8179 62.8252 59.9784 62.8252H62.1442C62.1442 62.8252 62.147 77.9468 62.1477 78.0344H59.9784ZM62.2103 55.7575H59.978C58.3261 55.7575 56.7483 56.0755 55.2973 56.6479C55.6624 33.4035 74.6763 14.6058 98 14.6058C121.33 14.6058 140.35 33.4056 140.712 56.6518C139.259 56.0769 137.677 55.7575 136.022 55.7575H133.789C132.673 36.9838 117.048 22.0523 98 22.0523C78.9514 22.0523 63.3269 36.9841 62.2103 55.7575ZM69.4239 81.2094C69.4235 81.2059 69.4228 81.2023 69.4225 81.1988C69.2886 80.0741 69.2115 78.932 69.2115 77.7719V67.8059C81.3013 68.1006 88.5131 65.3259 99.7852 60.9866C101.56 60.3032 103.396 59.5968 105.395 58.8452C112.07 56.9819 115.91 59.4275 122.848 63.8443C124.052 64.6107 125.373 65.4507 126.788 66.3132V77.7719C126.788 83.0268 125.366 87.9527 122.897 92.1977H98C96.0487 92.1977 94.4663 93.7797 94.4663 95.7314C94.4663 97.683 96.0487 99.265 98 99.265H117.126C112.036 103.799 105.336 106.561 98 106.561C83.2896 106.561 71.1289 95.4681 69.4239 81.2094ZM80.2546 139.034L74.1392 127.12C74.3731 127.052 74.6092 126.984 74.8417 126.917C77.3485 126.192 79.7415 125.5 81.9924 124.792L91.6825 131.326L80.2546 139.034ZM89.6294 181.394L94.4384 160.305H101.563L106.379 181.394H89.6294ZM159.952 181.394H113.628L108.02 156.836L111.289 144.548L115.105 147.121C116.838 148.289 119.274 147.659 120.225 145.803L128.753 129.171C135.362 131.227 142.067 133.685 147.552 137.134C155.863 142.362 159.804 148.793 159.953 157.372L159.952 181.394Z" stroke="#F27405" stroke-width="12" mask="url(#path-1-outside-1)"/>
<path d="M145.997 162.225H128.189C125.409 162.225 123.155 164.478 123.155 167.259C123.155 170.039 125.409 172.292 128.189 172.292H145.997C148.777 172.292 151.031 170.039 151.031 167.259C151.031 164.478 148.778 162.225 145.997 162.225Z" fill="white" stroke="#F27405" stroke-width="3"/>
<path d="M58.8569 179.894C56.0773 179.894 53.8232 182.148 53.8232 184.928C53.8232 187.708 56.0773 189.962 58.8569 189.962H58.8668C61.6493 189.962 63.8951 187.705 63.8951 184.928C63.8951 182.145 61.634 179.894 58.8569 179.894Z" fill="white" stroke="#F27405" stroke-width="3"/>
</svg>
