<svg width="41" height="41" viewBox="0 0 41 41" fill="none" xmlns="http://www.w3.org/2000/svg">
<path d="M20.5001 31.7095C20.4792 31.6859 20.4576 31.6613 20.4351 31.6358C20.1577 31.3205 19.7606 30.8605 19.2837 30.2843C18.3295 29.1312 17.0579 27.5152 15.7875 25.6624C14.516 23.8082 13.2518 21.7259 12.3071 19.6396C11.3596 17.5471 10.7501 15.4867 10.7501 13.6665C10.7501 8.28806 15.1216 3.9165 20.5001 3.9165C25.8785 3.9165 30.2501 8.28806 30.2501 13.6665C30.2501 15.4867 29.6406 17.5471 28.6931 19.6396C27.7483 21.7259 26.4842 23.8082 25.2127 25.6624C23.9422 27.5152 22.6707 29.1312 21.7165 30.2843C21.2396 30.8605 20.8425 31.3205 20.5651 31.6358C20.5426 31.6613 20.521 31.6859 20.5001 31.7095ZM20.5001 9.74984C18.3448 9.74984 16.5834 11.5112 16.5834 13.6665C16.5834 15.8218 18.3448 17.5832 20.5001 17.5832C22.6741 17.5832 24.4168 15.8202 24.4168 13.6665C24.4168 11.5112 22.6554 9.74984 20.5001 9.74984ZM31.9584 37.0832H9.04175V34.6665H31.9584V37.0832Z" stroke="black"/>
</svg>
