<svg width="102" height="102" viewBox="0 0 102 102" fill="none" xmlns="http://www.w3.org/2000/svg">
<path d="M51 0C22.8339 0 0 22.8335 0 51C0 79.1665 22.8339 102 51 102C79.1661 102 102 79.1665 102 51C102 22.8335 79.1661 0 51 0ZM68.6269 53.7034L43.1269 69.6409C42.6109 69.963 42.0242 70.125 41.4375 70.125C40.906 70.125 40.3737 69.9927 39.892 69.725C38.8787 69.1632 38.25 68.097 38.25 66.9375V35.0625C38.25 33.903 38.8787 32.8368 39.892 32.275C40.9052 31.71 42.1441 31.7443 43.1269 32.3591L68.6269 48.2966C69.5584 48.8803 70.125 49.9013 70.125 51C70.125 52.0987 69.5584 53.1199 68.6269 53.7034Z" fill="white"/>
</svg>
