<svg width="32" height="32" viewBox="0 0 32 32" fill="none" xmlns="http://www.w3.org/2000/svg">
<g clip-path="url(#clip0)">
<path d="M31.8848 25.1153L30.0263 19.7063C30.9221 17.875 31.3956 15.8382 31.3988 13.7889C31.4043 10.2256 30.0256 6.85637 27.5168 4.30199C25.0074 1.74711 21.6635 0.308918 18.101 0.252481C14.4069 0.194106 10.9347 1.59923 8.32421 4.20961C5.80708 6.72668 4.41095 10.045 4.36677 13.591C1.88589 15.4589 0.421571 18.3711 0.426384 21.4816C0.428696 22.9373 0.756322 24.3842 1.37714 25.6927L0.0969457 29.4182C-0.123117 30.0586 0.037633 30.754 0.516509 31.2329C0.85351 31.5699 1.29782 31.7494 1.75476 31.7494C1.94701 31.7494 2.14151 31.7176 2.3312 31.6524L6.05677 30.3722C7.36521 30.993 8.81215 31.3207 10.2678 31.323C10.273 31.323 10.278 31.323 10.2833 31.323C13.4402 31.3229 16.3745 29.8208 18.2356 27.2791C20.1723 27.2281 22.0885 26.7593 23.8208 25.9118L29.2298 27.7705C29.4552 27.8479 29.6863 27.8857 29.9148 27.8857C30.4578 27.8857 30.9858 27.6724 31.3863 27.2718C31.9553 26.7027 32.1463 25.8764 31.8848 25.1153ZM10.2832 29.4182C10.2791 29.4182 10.2748 29.4182 10.2707 29.4182C8.98234 29.4163 7.7029 29.0987 6.57096 28.4998C6.33821 28.3767 6.06496 28.3554 5.81608 28.4409L1.99589 29.7536L3.30858 25.9335C3.39408 25.6845 3.37283 25.4113 3.2497 25.1786C2.65083 24.0466 2.3332 22.7672 2.3312 21.4788C2.32801 19.4063 3.1342 17.442 4.54402 15.9711C5.00452 18.7784 6.34246 21.3653 8.41634 23.4023C10.4749 25.4242 13.0625 26.7116 15.8545 27.1325C14.3803 28.5855 12.393 29.4182 10.2832 29.4182ZM30.0393 25.9249C29.9851 25.9791 29.9209 25.9938 29.8486 25.969L24.0581 23.9792C23.9576 23.9447 23.8529 23.9275 23.7487 23.9275C23.595 23.9275 23.4419 23.9647 23.3033 24.0381C21.65 24.9127 19.7817 25.3766 17.9004 25.3795C17.8942 25.3795 17.8885 25.3795 17.8824 25.3795C11.5784 25.3795 6.37133 20.2586 6.27146 13.9561C6.22115 10.7821 7.42852 7.799 9.67109 5.55643C11.9137 3.31386 14.8972 2.10692 18.0709 2.15692C24.3794 2.25698 29.5038 7.47368 29.494 13.7859C29.4911 15.6673 29.0273 17.5356 28.1527 19.1888C28.0296 19.4215 28.0083 19.6947 28.0938 19.9436L30.0835 25.7342C30.1083 25.8067 30.0934 25.8708 30.0393 25.9249Z" fill="black"/>
<path d="M23.5558 8.71954H12.2082C11.6822 8.71954 11.2559 9.14598 11.2559 9.67192C11.2559 10.1979 11.6823 10.6243 12.2082 10.6243H23.5558C24.0818 10.6243 24.5081 10.1979 24.5081 9.67192C24.5081 9.14598 24.0818 8.71954 23.5558 8.71954Z" fill="black"/>
<path d="M23.5558 12.6364H12.2082C11.6822 12.6364 11.2559 13.0628 11.2559 13.5887C11.2559 14.1147 11.6823 14.5411 12.2082 14.5411H23.5558C24.0818 14.5411 24.5081 14.1147 24.5081 13.5887C24.5081 13.0628 24.0818 12.6364 23.5558 12.6364Z" fill="black"/>
<path d="M19.1878 16.5532H12.2082C11.6822 16.5532 11.2559 16.9797 11.2559 17.5056C11.2559 18.0316 11.6823 18.458 12.2082 18.458H19.1878C19.7138 18.458 20.1401 18.0315 20.1401 17.5056C20.1401 16.9797 19.7138 16.5532 19.1878 16.5532Z" fill="black"/>
</g>
<defs>
<clipPath id="clip0">
<rect width="32" height="32" fill="white"/>
</clipPath>
</defs>
</svg>
