<svg width="82" height="82" viewBox="0 0 82 82" fill="none" xmlns="http://www.w3.org/2000/svg">
<g filter="url(#filter0_d)">
<path d="M37 16C25.4202 16 16 25.4202 16 37C16 48.5798 25.4202 58 37 58C48.5798 58 58 48.5798 58 37C58 25.4202 48.5798 16 37 16ZM43.4873 38.2373L34.7372 46.9872C34.396 47.3285 33.948 47.5 33.5 47.5C33.052 47.5 32.6039 47.3285 32.2627 46.9872C31.5785 46.303 31.5785 45.197 32.2627 44.5128L39.7755 37L32.2628 29.4873C31.5786 28.803 31.5786 27.697 32.2628 27.0128C32.947 26.3286 34.053 26.3286 34.7372 27.0128L43.4873 35.7628C44.1715 36.447 44.1715 37.553 43.4873 38.2373Z" fill="white"/>
</g>
<defs>
<filter id="filter0_d" x="0" y="3.8147e-06" width="82" height="82" filterUnits="userSpaceOnUse" color-interpolation-filters="sRGB">
<feFlood flood-opacity="0" result="BackgroundImageFix"/>
<feColorMatrix in="SourceAlpha" type="matrix" values="0 0 0 0 0 0 0 0 0 0 0 0 0 0 0 0 0 0 127 0"/>
<feOffset dx="4" dy="4"/>
<feGaussianBlur stdDeviation="10"/>
<feColorMatrix type="matrix" values="0 0 0 0 0 0 0 0 0 0 0 0 0 0 0 0 0 0 0.25 0"/>
<feBlend mode="normal" in2="BackgroundImageFix" result="effect1_dropShadow"/>
<feBlend mode="normal" in="SourceGraphic" in2="effect1_dropShadow" result="shape"/>
</filter>
</defs>
</svg>
