<svg width="82" height="82" viewBox="0 0 82 82" fill="none" xmlns="http://www.w3.org/2000/svg">
<g filter="url(#filter0_d)">
<path d="M37 58C48.5798 58 58 48.5798 58 37C58 25.4202 48.5798 16 37 16C25.4202 16 16 25.4202 16 37C16 48.5798 25.4202 58 37 58ZM30.5127 35.7627L39.2628 27.0128C39.604 26.6715 40.052 26.5 40.5 26.5C40.948 26.5 41.3961 26.6715 41.7373 27.0128C42.4215 27.697 42.4215 28.803 41.7373 29.4873L34.2245 37L41.7372 44.5128C42.4214 45.197 42.4214 46.303 41.7372 46.9872C41.053 47.6714 39.947 47.6714 39.2628 46.9872L30.5127 38.2372C29.8285 37.553 29.8285 36.447 30.5127 35.7627Z" fill="white"/>
</g>
<defs>
<filter id="filter0_d" x="0" y="0" width="82" height="82" filterUnits="userSpaceOnUse" color-interpolation-filters="sRGB">
<feFlood flood-opacity="0" result="BackgroundImageFix"/>
<feColorMatrix in="SourceAlpha" type="matrix" values="0 0 0 0 0 0 0 0 0 0 0 0 0 0 0 0 0 0 127 0"/>
<feOffset dx="4" dy="4"/>
<feGaussianBlur stdDeviation="10"/>
<feColorMatrix type="matrix" values="0 0 0 0 0 0 0 0 0 0 0 0 0 0 0 0 0 0 0.25 0"/>
<feBlend mode="normal" in2="BackgroundImageFix" result="effect1_dropShadow"/>
<feBlend mode="normal" in="SourceGraphic" in2="effect1_dropShadow" result="shape"/>
</filter>
</defs>
</svg>
