<?xml version="1.0" encoding="utf-8"?>
<!-- Generator: Adobe Illustrator 24.1.1, SVG Export Plug-In . SVG Version: 6.00 Build 0)  -->
<svg version="1.1" id="Слой_1" xmlns="http://www.w3.org/2000/svg" xmlns:xlink="http://www.w3.org/1999/xlink" x="0px" y="0px"
	 viewBox="0 0 233.9 392.9" style="enable-background:new 0 0 233.9 392.9;" xml:space="preserve">
<style type="text/css">
	.st0{clip-path:url(#SVGID_2_);}
	.st1{opacity:0.3;}
	.st2{fill:url(#SVGID_3_);}
	.st3{fill:url(#SVGID_4_);}
	.st4{fill:url(#SVGID_5_);}
	.st5{fill:url(#SVGID_6_);}
	.st6{fill:url(#SVGID_7_);}
	.st7{fill:url(#SVGID_8_);}
	.st8{fill:url(#SVGID_9_);}
	.st9{fill:url(#SVGID_10_);}
	.st10{fill:url(#SVGID_11_);}
	.st11{fill:url(#SVGID_12_);}
	.st12{fill:url(#SVGID_13_);}
	.st13{fill:url(#SVGID_14_);}
	.st14{fill:url(#SVGID_15_);}
	.st15{fill:url(#SVGID_16_);}
	.st16{fill:url(#SVGID_17_);}
	.st17{fill:url(#SVGID_18_);}
	.st18{fill:url(#SVGID_19_);}
	.st19{fill:url(#SVGID_20_);}
	.st20{fill:url(#SVGID_21_);}
	.st21{fill:url(#SVGID_22_);}
	.st22{fill:url(#SVGID_23_);}
	.st23{fill:url(#SVGID_24_);}
	.st24{fill:url(#SVGID_25_);}
	.st25{fill:url(#SVGID_26_);}
	.st26{fill:url(#SVGID_27_);}
	.st27{fill:url(#SVGID_28_);}
	.st28{fill:url(#SVGID_29_);}
	.st29{fill:url(#SVGID_30_);}
	.st30{fill:url(#SVGID_31_);}
	.st31{fill:url(#SVGID_32_);}
	.st32{fill:url(#SVGID_33_);}
	.st33{fill:url(#SVGID_34_);}
	.st34{fill:url(#SVGID_35_);}
	.st35{fill:url(#SVGID_36_);}
	.st36{fill:url(#SVGID_37_);}
	.st37{fill:url(#SVGID_38_);}
	.st38{fill:url(#SVGID_39_);}
	.st39{fill:url(#SVGID_40_);}
	.st40{fill:url(#SVGID_41_);}
	.st41{fill:url(#SVGID_42_);}
	.st42{fill:url(#SVGID_43_);}
	.st43{fill:url(#SVGID_44_);}
	.st44{fill:url(#SVGID_45_);}
	.st45{fill:url(#SVGID_46_);}
	.st46{fill:url(#SVGID_47_);}
	.st47{fill:url(#SVGID_48_);}
	.st48{fill:url(#SVGID_49_);}
	.st49{fill:url(#SVGID_50_);}
	.st50{fill:url(#SVGID_51_);}
	.st51{fill:url(#SVGID_52_);}
	.st52{fill:url(#SVGID_53_);}
	.st53{fill:url(#SVGID_54_);}
	.st54{fill:url(#SVGID_55_);}
	.st55{fill:url(#SVGID_56_);}
	.st56{fill:url(#SVGID_57_);}
	.st57{fill:url(#SVGID_58_);}
	.st58{fill:url(#SVGID_59_);}
	.st59{fill:url(#SVGID_60_);}
	.st60{fill:url(#SVGID_61_);}
	.st61{fill:url(#SVGID_62_);}
	.st62{fill:url(#SVGID_63_);}
	.st63{fill:url(#SVGID_64_);}
	.st64{fill:url(#SVGID_65_);}
	.st65{fill:url(#SVGID_66_);}
	.st66{fill:url(#SVGID_67_);}
	.st67{fill:url(#SVGID_68_);}
	.st68{fill:url(#SVGID_69_);}
	.st69{fill:url(#SVGID_70_);}
	.st70{fill:url(#SVGID_71_);}
	.st71{fill:url(#SVGID_72_);}
	.st72{fill:url(#SVGID_73_);}
	.st73{fill:url(#SVGID_74_);}
</style>
<g>
	<g>
		<defs>
			<rect id="SVGID_1_" x="0" y="0" width="240.8" height="397.2"/>
		</defs>
		<clipPath id="SVGID_2_">
			<use xlink:href="#SVGID_1_"  style="overflow:visible;"/>
		</clipPath>
		<g class="st0">
			<g>
				<g>
					<g class="st1">
						
							<linearGradient id="SVGID_3_" gradientUnits="userSpaceOnUse" x1="292.25" y1="-9679.1514" x2="292.25" y2="-9529.751" gradientTransform="matrix(-1 0 0 -1 240.8 -9310.5508)">
							<stop  offset="0" style="stop-color:#187ABF"/>
							<stop  offset="0.6872" style="stop-color:#56A8DE"/>
							<stop  offset="1" style="stop-color:#187ABF"/>
						</linearGradient>
						<path class="st2" d="M-54.4,219.2l0.4,0l5.5,5.1l-3.4,144.3L-54.4,219.2L-54.4,219.2z"/>
						
							<linearGradient id="SVGID_4_" gradientUnits="userSpaceOnUse" x1="282.2" y1="-9672.251" x2="282.2" y2="-9539.251" gradientTransform="matrix(-1 0 0 -1 240.8 -9310.5508)">
							<stop  offset="0" style="stop-color:#187ABF"/>
							<stop  offset="0.6872" style="stop-color:#56A8DE"/>
							<stop  offset="1" style="stop-color:#187ABF"/>
						</linearGradient>
						<path class="st3" d="M-44.3,228.7l0.2,0l5.6,5.2l-3.4,127.8L-44.3,228.7L-44.3,228.7z"/>
						
							<linearGradient id="SVGID_5_" gradientUnits="userSpaceOnUse" x1="301.7" y1="-9684.1514" x2="301.7" y2="-9520.8516" gradientTransform="matrix(-1 0 0 -1 240.8 -9310.5508)">
							<stop  offset="0" style="stop-color:#187ABF"/>
							<stop  offset="0.6872" style="stop-color:#56A8DE"/>
							<stop  offset="1" style="stop-color:#187ABF"/>
						</linearGradient>
						<path class="st4" d="M-58,215.6l-3.4,158l-2.4-163.3L-58,215.6z"/>
						
							<linearGradient id="SVGID_6_" gradientUnits="userSpaceOnUse" x1="311.2" y1="-9689.1514" x2="311.2" y2="-9512.1514" gradientTransform="matrix(-1 0 0 -1 240.8 -9310.5508)">
							<stop  offset="0" style="stop-color:#187ABF"/>
							<stop  offset="0.6872" style="stop-color:#56A8DE"/>
							<stop  offset="1" style="stop-color:#187ABF"/>
						</linearGradient>
						<path class="st5" d="M-67.5,206.8l-3.4,171.8l-2.4-177L-67.5,206.8z"/>
						
							<linearGradient id="SVGID_7_" gradientUnits="userSpaceOnUse" x1="320.6" y1="-9694.8516" x2="320.6" y2="-9503.4512" gradientTransform="matrix(-1 0 0 -1 240.8 -9310.5508)">
							<stop  offset="0" style="stop-color:#187ABF"/>
							<stop  offset="0.6872" style="stop-color:#56A8DE"/>
							<stop  offset="1" style="stop-color:#187ABF"/>
						</linearGradient>
						<path class="st6" d="M-76.9,198.1l-3.4,186.2l-2.4-191.4L-76.9,198.1z"/>
						
							<linearGradient id="SVGID_8_" gradientUnits="userSpaceOnUse" x1="330.15" y1="-9700.751" x2="330.15" y2="-9494.751" gradientTransform="matrix(-1 0 0 -1 240.8 -9310.5508)">
							<stop  offset="0" style="stop-color:#187ABF"/>
							<stop  offset="0.6872" style="stop-color:#56A8DE"/>
							<stop  offset="1" style="stop-color:#187ABF"/>
						</linearGradient>
						<path class="st7" d="M-86.4,189.5l-3.4,200.7l-2.5-206L-86.4,189.5z"/>
						
							<linearGradient id="SVGID_9_" gradientUnits="userSpaceOnUse" x1="316.6" y1="-9464.3516" x2="316.6" y2="-9349.751" gradientTransform="matrix(-1 0 0 -1 240.8 -9310.5508)">
							<stop  offset="0" style="stop-color:#187ABF"/>
							<stop  offset="0.6872" style="stop-color:#56A8DE"/>
							<stop  offset="1" style="stop-color:#187ABF"/>
						</linearGradient>
						<path class="st8" d="M-72.9,39.2l-2.5,114.6l-3.3-109.1L-72.9,39.2z"/>
						
							<linearGradient id="SVGID_10_" gradientUnits="userSpaceOnUse" x1="326.5" y1="-9459.251" x2="326.5" y2="-9358.5508" gradientTransform="matrix(-1 0 0 -1 240.8 -9310.5508)">
							<stop  offset="0" style="stop-color:#187ABF"/>
							<stop  offset="0.6872" style="stop-color:#56A8DE"/>
							<stop  offset="1" style="stop-color:#187ABF"/>
						</linearGradient>
						<path class="st9" d="M-82.8,48l-2.5,100.7l-3.3-95.1L-82.8,48z"/>
						
							<linearGradient id="SVGID_11_" gradientUnits="userSpaceOnUse" x1="307.15" y1="-9470.0508" x2="307.15" y2="-9340.751" gradientTransform="matrix(-1 0 0 -1 240.8 -9310.5508)">
							<stop  offset="0" style="stop-color:#187ABF"/>
							<stop  offset="0.6872" style="stop-color:#56A8DE"/>
							<stop  offset="1" style="stop-color:#187ABF"/>
						</linearGradient>
						<path class="st10" d="M-63.5,30.2l-2.4,129.3l-3.3-123.8L-63.5,30.2z"/>
						
							<linearGradient id="SVGID_12_" gradientUnits="userSpaceOnUse" x1="297.65" y1="-9479.751" x2="297.65" y2="-9331.8516" gradientTransform="matrix(-1 0 0 -1 240.8 -9310.5508)">
							<stop  offset="0" style="stop-color:#187ABF"/>
							<stop  offset="0.6872" style="stop-color:#56A8DE"/>
							<stop  offset="1" style="stop-color:#187ABF"/>
						</linearGradient>
						<path class="st11" d="M-54,21.3l-2.4,147.9l-3.3-142.3L-54,21.3z"/>
						
							<linearGradient id="SVGID_13_" gradientUnits="userSpaceOnUse" x1="288.15" y1="-9491.4512" x2="288.15" y2="-9323.0508" gradientTransform="matrix(-1 0 0 -1 240.8 -9310.5508)">
							<stop  offset="0" style="stop-color:#187ABF"/>
							<stop  offset="0.6872" style="stop-color:#56A8DE"/>
							<stop  offset="1" style="stop-color:#187ABF"/>
						</linearGradient>
						<path class="st12" d="M-44.5,12.5l-2.4,168.4l-3.3-162.7L-44.5,12.5z"/>
						
							<linearGradient id="SVGID_14_" gradientUnits="userSpaceOnUse" x1="278.6" y1="-9500.751" x2="278.6" y2="-9313.9512" gradientTransform="matrix(-1 0 0 -1 240.8 -9310.5508)">
							<stop  offset="0" style="stop-color:#187ABF"/>
							<stop  offset="0.6872" style="stop-color:#56A8DE"/>
							<stop  offset="1" style="stop-color:#187ABF"/>
						</linearGradient>
						<path class="st13" d="M-34.9,3.4l-2.4,186.8L-40.7,9.4L-34.9,3.4z"/>
						
							<linearGradient id="SVGID_15_" gradientUnits="userSpaceOnUse" x1="379.5" y1="-9675.751" x2="379.5" y2="-9526.3516" gradientTransform="matrix(-1 0 0 -1 240.8 -9310.5508)">
							<stop  offset="0" style="stop-color:#187ABF"/>
							<stop  offset="0.6872" style="stop-color:#56A8DE"/>
							<stop  offset="1" style="stop-color:#187ABF"/>
						</linearGradient>
						<path class="st14" d="M-141.3,215.8l5.5,5.1l-3.4,144.3l-2.4-149.4H-141.3z"/>
						
							<linearGradient id="SVGID_16_" gradientUnits="userSpaceOnUse" x1="369.5" y1="-9668.8516" x2="369.5" y2="-9535.8516" gradientTransform="matrix(-1 0 0 -1 240.8 -9310.5508)">
							<stop  offset="0" style="stop-color:#187ABF"/>
							<stop  offset="0.6872" style="stop-color:#56A8DE"/>
							<stop  offset="1" style="stop-color:#187ABF"/>
						</linearGradient>
						<path class="st15" d="M-131.6,225.3l0.2,0l5.6,5.1l-3.3,127.9L-131.6,225.3L-131.6,225.3z"/>
						
							<linearGradient id="SVGID_17_" gradientUnits="userSpaceOnUse" x1="389" y1="-9680.751" x2="389" y2="-9517.4512" gradientTransform="matrix(-1 0 0 -1 240.8 -9310.5508)">
							<stop  offset="0" style="stop-color:#187ABF"/>
							<stop  offset="0.6872" style="stop-color:#56A8DE"/>
							<stop  offset="1" style="stop-color:#187ABF"/>
						</linearGradient>
						<path class="st16" d="M-145.3,212.2l-3.3,158l-2.5-163.3L-145.3,212.2z"/>
						
							<linearGradient id="SVGID_18_" gradientUnits="userSpaceOnUse" x1="398.45" y1="-9685.751" x2="398.45" y2="-9508.6514" gradientTransform="matrix(-1 0 0 -1 240.8 -9310.5508)">
							<stop  offset="0" style="stop-color:#187ABF"/>
							<stop  offset="0.6872" style="stop-color:#56A8DE"/>
							<stop  offset="1" style="stop-color:#187ABF"/>
						</linearGradient>
						<path class="st17" d="M-154.8,203.4l-3.3,171.8l-2.4-177.1L-154.8,203.4z"/>
						
							<linearGradient id="SVGID_19_" gradientUnits="userSpaceOnUse" x1="407.95" y1="-9691.5508" x2="407.95" y2="-9500.0508" gradientTransform="matrix(-1 0 0 -1 240.8 -9310.5508)">
							<stop  offset="0" style="stop-color:#187ABF"/>
							<stop  offset="0.6872" style="stop-color:#56A8DE"/>
							<stop  offset="1" style="stop-color:#187ABF"/>
						</linearGradient>
						<path class="st18" d="M-164.3,194.7l-3.3,186.3l-2.4-191.5L-164.3,194.7z"/>
						
							<linearGradient id="SVGID_20_" gradientUnits="userSpaceOnUse" x1="417.4" y1="-9697.3516" x2="417.4" y2="-9491.251" gradientTransform="matrix(-1 0 0 -1 240.8 -9310.5508)">
							<stop  offset="0" style="stop-color:#187ABF"/>
							<stop  offset="0.6872" style="stop-color:#56A8DE"/>
							<stop  offset="1" style="stop-color:#187ABF"/>
						</linearGradient>
						<path class="st19" d="M-173.7,186l-3.4,200.8l-2.4-206.1L-173.7,186z"/>
						
							<linearGradient id="SVGID_21_" gradientUnits="userSpaceOnUse" x1="403.85" y1="-9460.9512" x2="403.85" y2="-9346.251" gradientTransform="matrix(-1 0 0 -1 240.8 -9310.5508)">
							<stop  offset="0" style="stop-color:#187ABF"/>
							<stop  offset="0.6872" style="stop-color:#56A8DE"/>
							<stop  offset="1" style="stop-color:#187ABF"/>
						</linearGradient>
						<path class="st20" d="M-160.2,35.7l-2.4,114.7l-3.3-109.1L-160.2,35.7z"/>
						
							<linearGradient id="SVGID_22_" gradientUnits="userSpaceOnUse" x1="413.8" y1="-9455.8516" x2="413.8" y2="-9355.1514" gradientTransform="matrix(-1 0 0 -1 240.8 -9310.5508)">
							<stop  offset="0" style="stop-color:#187ABF"/>
							<stop  offset="0.6872" style="stop-color:#56A8DE"/>
							<stop  offset="1" style="stop-color:#187ABF"/>
						</linearGradient>
						<path class="st21" d="M-170.1,44.6l-2.4,100.7l-3.4-95.2L-170.1,44.6z"/>
						
							<linearGradient id="SVGID_23_" gradientUnits="userSpaceOnUse" x1="394.35" y1="-9466.751" x2="394.35" y2="-9337.4512" gradientTransform="matrix(-1 0 0 -1 240.8 -9310.5508)">
							<stop  offset="0" style="stop-color:#187ABF"/>
							<stop  offset="0.6872" style="stop-color:#56A8DE"/>
							<stop  offset="1" style="stop-color:#187ABF"/>
						</linearGradient>
						<path class="st22" d="M-150.7,26.9l-2.4,129.3l-3.3-123.9L-150.7,26.9z"/>
						
							<linearGradient id="SVGID_24_" gradientUnits="userSpaceOnUse" x1="384.9" y1="-9476.3516" x2="384.9" y2="-9328.5508" gradientTransform="matrix(-1 0 0 -1 240.8 -9310.5508)">
							<stop  offset="0" style="stop-color:#187ABF"/>
							<stop  offset="0.6872" style="stop-color:#56A8DE"/>
							<stop  offset="1" style="stop-color:#187ABF"/>
						</linearGradient>
						<path class="st23" d="M-141.2,18l-2.5,147.8L-147,23.5L-141.2,18z"/>
						
							<linearGradient id="SVGID_25_" gradientUnits="userSpaceOnUse" x1="375.4" y1="-9487.8516" x2="375.4" y2="-9319.5508" gradientTransform="matrix(-1 0 0 -1 240.8 -9310.5508)">
							<stop  offset="0" style="stop-color:#187ABF"/>
							<stop  offset="0.6872" style="stop-color:#56A8DE"/>
							<stop  offset="1" style="stop-color:#187ABF"/>
						</linearGradient>
						<path class="st24" d="M-131.7,9l-2.5,168.3l-3.3-162.5L-131.7,9z"/>
						
							<linearGradient id="SVGID_26_" gradientUnits="userSpaceOnUse" x1="365.85" y1="-9497.3516" x2="365.85" y2="-9310.5508" gradientTransform="matrix(-1 0 0 -1 240.8 -9310.5508)">
							<stop  offset="0" style="stop-color:#187ABF"/>
							<stop  offset="0.6872" style="stop-color:#56A8DE"/>
							<stop  offset="1" style="stop-color:#187ABF"/>
						</linearGradient>
						<path class="st25" d="M-122.1,0l-2.5,186.8L-128,6L-122.1,0z"/>
						
							<linearGradient id="SVGID_27_" gradientUnits="userSpaceOnUse" x1="466" y1="-9675.751" x2="466" y2="-9526.3516" gradientTransform="matrix(-1 0 0 -1 240.8 -9310.5508)">
							<stop  offset="0" style="stop-color:#187ABF"/>
							<stop  offset="0.6872" style="stop-color:#56A8DE"/>
							<stop  offset="1" style="stop-color:#187ABF"/>
						</linearGradient>
						<path class="st26" d="M-227.9,215.8l5.6,5.1l-3.4,144.3l-2.4-149.4H-227.9z"/>
						
							<linearGradient id="SVGID_28_" gradientUnits="userSpaceOnUse" x1="456.1" y1="-9668.8516" x2="456.1" y2="-9535.8516" gradientTransform="matrix(-1 0 0 -1 240.8 -9310.5508)">
							<stop  offset="0" style="stop-color:#187ABF"/>
							<stop  offset="0.6872" style="stop-color:#56A8DE"/>
							<stop  offset="1" style="stop-color:#187ABF"/>
						</linearGradient>
						<path class="st27" d="M-218.2,225.3l0.3,0l5.5,5.1l-3.4,127.9L-218.2,225.3L-218.2,225.3z"/>
						
							<linearGradient id="SVGID_29_" gradientUnits="userSpaceOnUse" x1="475.5" y1="-9680.751" x2="475.5" y2="-9517.4512" gradientTransform="matrix(-1 0 0 -1 240.8 -9310.5508)">
							<stop  offset="0" style="stop-color:#187ABF"/>
							<stop  offset="0.6872" style="stop-color:#56A8DE"/>
							<stop  offset="1" style="stop-color:#187ABF"/>
						</linearGradient>
						<path class="st28" d="M-231.8,212.2l-3.4,158l-2.4-163.3L-231.8,212.2z"/>
						
							<linearGradient id="SVGID_30_" gradientUnits="userSpaceOnUse" x1="485" y1="-9685.751" x2="485" y2="-9508.6514" gradientTransform="matrix(-1 0 0 -1 240.8 -9310.5508)">
							<stop  offset="0" style="stop-color:#187ABF"/>
							<stop  offset="0.6872" style="stop-color:#56A8DE"/>
							<stop  offset="1" style="stop-color:#187ABF"/>
						</linearGradient>
						<path class="st29" d="M-241.3,203.4l-3.4,171.8l-2.4-177.1L-241.3,203.4z"/>
						
							<linearGradient id="SVGID_31_" gradientUnits="userSpaceOnUse" x1="494.45" y1="-9691.5508" x2="494.45" y2="-9500.0508" gradientTransform="matrix(-1 0 0 -1 240.8 -9310.5508)">
							<stop  offset="0" style="stop-color:#187ABF"/>
							<stop  offset="0.6872" style="stop-color:#56A8DE"/>
							<stop  offset="1" style="stop-color:#187ABF"/>
						</linearGradient>
						<path class="st30" d="M-250.8,194.7l-3.3,186.3l-2.4-191.5L-250.8,194.7z"/>
						
							<linearGradient id="SVGID_32_" gradientUnits="userSpaceOnUse" x1="503.95" y1="-9697.3516" x2="503.95" y2="-9491.251" gradientTransform="matrix(-1 0 0 -1 240.8 -9310.5508)">
							<stop  offset="0" style="stop-color:#187ABF"/>
							<stop  offset="0.6872" style="stop-color:#56A8DE"/>
							<stop  offset="1" style="stop-color:#187ABF"/>
						</linearGradient>
						<path class="st31" d="M-260.2,186.1l-3.4,200.7l-2.5-206.1L-260.2,186.1z"/>
						
							<linearGradient id="SVGID_33_" gradientUnits="userSpaceOnUse" x1="490.4" y1="-9460.9512" x2="490.4" y2="-9346.251" gradientTransform="matrix(-1 0 0 -1 240.8 -9310.5508)">
							<stop  offset="0" style="stop-color:#187ABF"/>
							<stop  offset="0.6872" style="stop-color:#56A8DE"/>
							<stop  offset="1" style="stop-color:#187ABF"/>
						</linearGradient>
						<path class="st32" d="M-246.7,35.7l-2.5,114.7l-3.3-109.1L-246.7,35.7z"/>
						
							<linearGradient id="SVGID_34_" gradientUnits="userSpaceOnUse" x1="500.4" y1="-9455.8516" x2="500.4" y2="-9355.1514" gradientTransform="matrix(-1 0 0 -1 240.8 -9310.5508)">
							<stop  offset="0" style="stop-color:#187ABF"/>
							<stop  offset="0.6872" style="stop-color:#56A8DE"/>
							<stop  offset="1" style="stop-color:#187ABF"/>
						</linearGradient>
						<path class="st33" d="M-256.7,44.6l-2.5,100.7l-3.3-95.2L-256.7,44.6z"/>
						
							<linearGradient id="SVGID_35_" gradientUnits="userSpaceOnUse" x1="480.95" y1="-9466.751" x2="480.95" y2="-9337.4512" gradientTransform="matrix(-1 0 0 -1 240.8 -9310.5508)">
							<stop  offset="0" style="stop-color:#187ABF"/>
							<stop  offset="0.6872" style="stop-color:#56A8DE"/>
							<stop  offset="1" style="stop-color:#187ABF"/>
						</linearGradient>
						<path class="st34" d="M-237.3,26.9l-2.4,129.3L-243,32.3L-237.3,26.9z"/>
						
							<linearGradient id="SVGID_36_" gradientUnits="userSpaceOnUse" x1="471.45" y1="-9476.4512" x2="471.45" y2="-9328.5508" gradientTransform="matrix(-1 0 0 -1 240.8 -9310.5508)">
							<stop  offset="0" style="stop-color:#187ABF"/>
							<stop  offset="0.6872" style="stop-color:#56A8DE"/>
							<stop  offset="1" style="stop-color:#187ABF"/>
						</linearGradient>
						<path class="st35" d="M-227.8,18l-2.4,147.9l-3.3-142.4L-227.8,18z"/>
						
							<linearGradient id="SVGID_37_" gradientUnits="userSpaceOnUse" x1="461.95" y1="-9487.9512" x2="461.95" y2="-9319.5508" gradientTransform="matrix(-1 0 0 -1 240.8 -9310.5508)">
							<stop  offset="0" style="stop-color:#187ABF"/>
							<stop  offset="0.6872" style="stop-color:#56A8DE"/>
							<stop  offset="1" style="stop-color:#187ABF"/>
						</linearGradient>
						<path class="st36" d="M-218.3,9l-2.4,168.4L-224,14.8L-218.3,9z"/>
						
							<linearGradient id="SVGID_38_" gradientUnits="userSpaceOnUse" x1="452.5" y1="-9497.3516" x2="452.5" y2="-9310.5508" gradientTransform="matrix(-1 0 0 -1 240.8 -9310.5508)">
							<stop  offset="0" style="stop-color:#187ABF"/>
							<stop  offset="0.6872" style="stop-color:#56A8DE"/>
							<stop  offset="1" style="stop-color:#187ABF"/>
						</linearGradient>
						<path class="st37" d="M-208.8,0l-2.4,186.8L-214.6,6L-208.8,0z"/>
						
							<linearGradient id="SVGID_39_" gradientUnits="userSpaceOnUse" x1="215.15" y1="-9682.0508" x2="215.15" y2="-9532.6514" gradientTransform="matrix(-1 0 0 -1 240.8 -9310.5508)">
							<stop  offset="0" style="stop-color:#187ABF"/>
							<stop  offset="0.6872" style="stop-color:#56A8DE"/>
							<stop  offset="1" style="stop-color:#187ABF"/>
						</linearGradient>
						<path class="st38" d="M28.6,222.1l-0.3,0l-5.6,5.1l3.4,144.3L28.6,222.1L28.6,222.1z"/>
						
							<linearGradient id="SVGID_40_" gradientUnits="userSpaceOnUse" x1="225.15" y1="-9675.1514" x2="225.15" y2="-9542.1514" gradientTransform="matrix(-1 0 0 -1 240.8 -9310.5508)">
							<stop  offset="0" style="stop-color:#187ABF"/>
							<stop  offset="0.6872" style="stop-color:#56A8DE"/>
							<stop  offset="1" style="stop-color:#187ABF"/>
						</linearGradient>
						<path class="st39" d="M18.3,231.6l-5.6,5.1l3.4,127.9l2.5-133H18.3z"/>
						
							<linearGradient id="SVGID_41_" gradientUnits="userSpaceOnUse" x1="205.65" y1="-9687.0508" x2="205.65" y2="-9523.751" gradientTransform="matrix(-1 0 0 -1 240.8 -9310.5508)">
							<stop  offset="0" style="stop-color:#187ABF"/>
							<stop  offset="0.6872" style="stop-color:#56A8DE"/>
							<stop  offset="1" style="stop-color:#187ABF"/>
						</linearGradient>
						<path class="st40" d="M32.3,218.5l3.3,158L38,213.2L32.3,218.5z"/>
						
							<linearGradient id="SVGID_42_" gradientUnits="userSpaceOnUse" x1="196.15" y1="-9692.0508" x2="196.15" y2="-9515.0508" gradientTransform="matrix(-1 0 0 -1 240.8 -9310.5508)">
							<stop  offset="0" style="stop-color:#187ABF"/>
							<stop  offset="0.6872" style="stop-color:#56A8DE"/>
							<stop  offset="1" style="stop-color:#187ABF"/>
						</linearGradient>
						<path class="st41" d="M41.8,209.7l3.3,171.8l2.4-177L41.8,209.7z"/>
						
							<linearGradient id="SVGID_43_" gradientUnits="userSpaceOnUse" x1="186.7" y1="-9697.8516" x2="186.7" y2="-9506.3516" gradientTransform="matrix(-1 0 0 -1 240.8 -9310.5508)">
							<stop  offset="0" style="stop-color:#187ABF"/>
							<stop  offset="0.6872" style="stop-color:#56A8DE"/>
							<stop  offset="1" style="stop-color:#187ABF"/>
						</linearGradient>
						<path class="st42" d="M51.2,201l3.4,186.3L57,195.8L51.2,201z"/>
						
							<linearGradient id="SVGID_44_" gradientUnits="userSpaceOnUse" x1="177.2" y1="-9703.6514" x2="177.2" y2="-9497.6514" gradientTransform="matrix(-1 0 0 -1 240.8 -9310.5508)">
							<stop  offset="0" style="stop-color:#187ABF"/>
							<stop  offset="0.6872" style="stop-color:#56A8DE"/>
							<stop  offset="1" style="stop-color:#187ABF"/>
						</linearGradient>
						<path class="st43" d="M60.7,192.4l3.4,200.7l2.4-206L60.7,192.4z"/>
						
							<linearGradient id="SVGID_45_" gradientUnits="userSpaceOnUse" x1="190.9" y1="-9464.1514" x2="190.9" y2="-9349.5508" gradientTransform="matrix(-1 0 0 -1 240.8 -9310.5508)">
							<stop  offset="0" style="stop-color:#187ABF"/>
							<stop  offset="0.6872" style="stop-color:#56A8DE"/>
							<stop  offset="1" style="stop-color:#187ABF"/>
						</linearGradient>
						<path class="st44" d="M47,39l2.5,114.6l3.3-109.1L47,39z"/>
						
							<linearGradient id="SVGID_46_" gradientUnits="userSpaceOnUse" x1="180.9" y1="-9459.0508" x2="180.9" y2="-9358.3516" gradientTransform="matrix(-1 0 0 -1 240.8 -9310.5508)">
							<stop  offset="0" style="stop-color:#187ABF"/>
							<stop  offset="0.6872" style="stop-color:#56A8DE"/>
							<stop  offset="1" style="stop-color:#187ABF"/>
						</linearGradient>
						<path class="st45" d="M57,47.8l2.5,100.7l3.3-95.2L57,47.8z"/>
						
							<linearGradient id="SVGID_47_" gradientUnits="userSpaceOnUse" x1="200.35" y1="-9469.9512" x2="200.35" y2="-9340.6514" gradientTransform="matrix(-1 0 0 -1 240.8 -9310.5508)">
							<stop  offset="0" style="stop-color:#187ABF"/>
							<stop  offset="0.6872" style="stop-color:#56A8DE"/>
							<stop  offset="1" style="stop-color:#187ABF"/>
						</linearGradient>
						<path class="st46" d="M37.6,30.1L40,159.4l3.3-123.8L37.6,30.1z"/>
						
							<linearGradient id="SVGID_48_" gradientUnits="userSpaceOnUse" x1="209.85" y1="-9479.5508" x2="209.85" y2="-9331.6514" gradientTransform="matrix(-1 0 0 -1 240.8 -9310.5508)">
							<stop  offset="0" style="stop-color:#187ABF"/>
							<stop  offset="0.6872" style="stop-color:#56A8DE"/>
							<stop  offset="1" style="stop-color:#187ABF"/>
						</linearGradient>
						<path class="st47" d="M28.1,21.1L30.5,169l3.3-142.3L28.1,21.1z"/>
						
							<linearGradient id="SVGID_49_" gradientUnits="userSpaceOnUse" x1="219.35" y1="-9491.251" x2="219.35" y2="-9322.8516" gradientTransform="matrix(-1 0 0 -1 240.8 -9310.5508)">
							<stop  offset="0" style="stop-color:#187ABF"/>
							<stop  offset="0.6872" style="stop-color:#56A8DE"/>
							<stop  offset="1" style="stop-color:#187ABF"/>
						</linearGradient>
						<path class="st48" d="M18.6,12.3L21,180.7L24.3,18L18.6,12.3z"/>
						
							<linearGradient id="SVGID_50_" gradientUnits="userSpaceOnUse" x1="228.8" y1="-9500.5508" x2="228.8" y2="-9313.751" gradientTransform="matrix(-1 0 0 -1 240.8 -9310.5508)">
							<stop  offset="0" style="stop-color:#187ABF"/>
							<stop  offset="0.6872" style="stop-color:#56A8DE"/>
							<stop  offset="1" style="stop-color:#187ABF"/>
						</linearGradient>
						<path class="st49" d="M9.1,3.2L11.5,190L14.9,9.2L9.1,3.2z"/>
						
							<linearGradient id="SVGID_51_" gradientUnits="userSpaceOnUse" x1="126.5" y1="-9679.751" x2="126.5" y2="-9530.3516" gradientTransform="matrix(-1 0 0 -1 240.8 -9310.5508)">
							<stop  offset="0" style="stop-color:#187ABF"/>
							<stop  offset="0.6872" style="stop-color:#56A8DE"/>
							<stop  offset="1" style="stop-color:#187ABF"/>
						</linearGradient>
						<path class="st50" d="M116.9,219.8l-5.5,5.1l3.4,144.3l2.4-149.4H116.9z"/>
						
							<linearGradient id="SVGID_52_" gradientUnits="userSpaceOnUse" x1="136.5" y1="-9672.8516" x2="136.5" y2="-9539.9512" gradientTransform="matrix(-1 0 0 -1 240.8 -9310.5508)">
							<stop  offset="0" style="stop-color:#187ABF"/>
							<stop  offset="0.6872" style="stop-color:#56A8DE"/>
							<stop  offset="1" style="stop-color:#187ABF"/>
						</linearGradient>
						<path class="st51" d="M107.2,229.4l-0.2,0l-5.6,5.1l3.4,127.8L107.2,229.4L107.2,229.4z"/>
						
							<linearGradient id="SVGID_53_" gradientUnits="userSpaceOnUse" x1="117" y1="-9684.751" x2="117" y2="-9521.4512" gradientTransform="matrix(-1 0 0 -1 240.8 -9310.5508)">
							<stop  offset="0" style="stop-color:#187ABF"/>
							<stop  offset="0.6872" style="stop-color:#56A8DE"/>
							<stop  offset="1" style="stop-color:#187ABF"/>
						</linearGradient>
						<path class="st52" d="M120.9,216.3l3.4,157.9l2.4-163.3L120.9,216.3z"/>
						
							<linearGradient id="SVGID_54_" gradientUnits="userSpaceOnUse" x1="107.6" y1="-9689.8516" x2="107.6" y2="-9512.8516" gradientTransform="matrix(-1 0 0 -1 240.8 -9310.5508)">
							<stop  offset="0" style="stop-color:#187ABF"/>
							<stop  offset="0.6872" style="stop-color:#56A8DE"/>
							<stop  offset="1" style="stop-color:#187ABF"/>
						</linearGradient>
						<path class="st53" d="M130.3,207.5l3.4,171.8l2.4-177L130.3,207.5z"/>
						
							<linearGradient id="SVGID_55_" gradientUnits="userSpaceOnUse" x1="98.05" y1="-9695.5508" x2="98.05" y2="-9504.1514" gradientTransform="matrix(-1 0 0 -1 240.8 -9310.5508)">
							<stop  offset="0" style="stop-color:#187ABF"/>
							<stop  offset="0.6872" style="stop-color:#56A8DE"/>
							<stop  offset="1" style="stop-color:#187ABF"/>
						</linearGradient>
						<path class="st54" d="M139.9,198.8l3.3,186.2l2.4-191.4L139.9,198.8z"/>
						
							<linearGradient id="SVGID_56_" gradientUnits="userSpaceOnUse" x1="88.55" y1="-9701.4512" x2="88.55" y2="-9495.4512" gradientTransform="matrix(-1 0 0 -1 240.8 -9310.5508)">
							<stop  offset="0" style="stop-color:#187ABF"/>
							<stop  offset="0.6872" style="stop-color:#56A8DE"/>
							<stop  offset="1" style="stop-color:#187ABF"/>
						</linearGradient>
						<path class="st55" d="M149.3,190.2l3.4,200.7l2.5-206L149.3,190.2z"/>
						
							<linearGradient id="SVGID_57_" gradientUnits="userSpaceOnUse" x1="102.1" y1="-9461.8516" x2="102.1" y2="-9347.251" gradientTransform="matrix(-1 0 0 -1 240.8 -9310.5508)">
							<stop  offset="0" style="stop-color:#187ABF"/>
							<stop  offset="0.6872" style="stop-color:#56A8DE"/>
							<stop  offset="1" style="stop-color:#187ABF"/>
						</linearGradient>
						<path class="st56" d="M135.8,36.7l2.4,114.6l3.4-109.1L135.8,36.7z"/>
						
							<linearGradient id="SVGID_58_" gradientUnits="userSpaceOnUse" x1="92.2" y1="-9456.8516" x2="92.2" y2="-9356.251" gradientTransform="matrix(-1 0 0 -1 240.8 -9310.5508)">
							<stop  offset="0" style="stop-color:#187ABF"/>
							<stop  offset="0.6872" style="stop-color:#56A8DE"/>
							<stop  offset="1" style="stop-color:#187ABF"/>
						</linearGradient>
						<path class="st57" d="M145.7,45.7l2.5,100.6l3.3-95.1L145.7,45.7z"/>
						
							<linearGradient id="SVGID_59_" gradientUnits="userSpaceOnUse" x1="111.6" y1="-9467.6514" x2="111.6" y2="-9338.3516" gradientTransform="matrix(-1 0 0 -1 240.8 -9310.5508)">
							<stop  offset="0" style="stop-color:#187ABF"/>
							<stop  offset="0.6872" style="stop-color:#56A8DE"/>
							<stop  offset="1" style="stop-color:#187ABF"/>
						</linearGradient>
						<path class="st58" d="M126.3,27.8l2.5,129.3l3.3-123.8L126.3,27.8z"/>
						
							<linearGradient id="SVGID_60_" gradientUnits="userSpaceOnUse" x1="121.05" y1="-9477.4512" x2="121.05" y2="-9329.4512" gradientTransform="matrix(-1 0 0 -1 240.8 -9310.5508)">
							<stop  offset="0" style="stop-color:#187ABF"/>
							<stop  offset="0.6872" style="stop-color:#56A8DE"/>
							<stop  offset="1" style="stop-color:#187ABF"/>
						</linearGradient>
						<path class="st59" d="M116.9,18.9l2.4,148l3.3-142.3L116.9,18.9z"/>
						
							<linearGradient id="SVGID_61_" gradientUnits="userSpaceOnUse" x1="130.6" y1="-9488.9512" x2="130.6" y2="-9320.5508" gradientTransform="matrix(-1 0 0 -1 240.8 -9310.5508)">
							<stop  offset="0" style="stop-color:#187ABF"/>
							<stop  offset="0.6872" style="stop-color:#56A8DE"/>
							<stop  offset="1" style="stop-color:#187ABF"/>
						</linearGradient>
						<path class="st60" d="M107.3,10l2.5,168.4l3.3-162.6L107.3,10z"/>
						
							<linearGradient id="SVGID_62_" gradientUnits="userSpaceOnUse" x1="140.1" y1="-9498.4512" x2="140.1" y2="-9311.5508" gradientTransform="matrix(-1 0 0 -1 240.8 -9310.5508)">
							<stop  offset="0" style="stop-color:#187ABF"/>
							<stop  offset="0.6872" style="stop-color:#56A8DE"/>
							<stop  offset="1" style="stop-color:#187ABF"/>
						</linearGradient>
						<path class="st61" d="M97.8,1l2.4,186.9L103.6,7L97.8,1z"/>
						
							<linearGradient id="SVGID_63_" gradientUnits="userSpaceOnUse" x1="40.7" y1="-9678.8516" x2="40.7" y2="-9529.4512" gradientTransform="matrix(-1 0 0 -1 240.8 -9310.5508)">
							<stop  offset="0" style="stop-color:#187ABF"/>
							<stop  offset="0.6872" style="stop-color:#56A8DE"/>
							<stop  offset="1" style="stop-color:#187ABF"/>
						</linearGradient>
						<path class="st62" d="M202.8,218.9l-5.6,5.1l3.3,144.3l2.5-149.4H202.8z"/>
						
							<linearGradient id="SVGID_64_" gradientUnits="userSpaceOnUse" x1="50.75" y1="-9671.9512" x2="50.75" y2="-9538.9512" gradientTransform="matrix(-1 0 0 -1 240.8 -9310.5508)">
							<stop  offset="0" style="stop-color:#187ABF"/>
							<stop  offset="0.6872" style="stop-color:#56A8DE"/>
							<stop  offset="1" style="stop-color:#187ABF"/>
						</linearGradient>
						<path class="st63" d="M192.7,228.4l-5.6,5.1l3.4,127.9l2.5-133H192.7z"/>
						
							<linearGradient id="SVGID_65_" gradientUnits="userSpaceOnUse" x1="31.25" y1="-9683.8516" x2="31.25" y2="-9520.5508" gradientTransform="matrix(-1 0 0 -1 240.8 -9310.5508)">
							<stop  offset="0" style="stop-color:#187ABF"/>
							<stop  offset="0.6872" style="stop-color:#56A8DE"/>
							<stop  offset="1" style="stop-color:#187ABF"/>
						</linearGradient>
						<path class="st64" d="M206.7,215.3l3.3,158l2.4-163.3L206.7,215.3z"/>
						
							<linearGradient id="SVGID_66_" gradientUnits="userSpaceOnUse" x1="21.75" y1="-9688.8516" x2="21.75" y2="-9511.751" gradientTransform="matrix(-1 0 0 -1 240.8 -9310.5508)">
							<stop  offset="0" style="stop-color:#187ABF"/>
							<stop  offset="0.6872" style="stop-color:#56A8DE"/>
							<stop  offset="1" style="stop-color:#187ABF"/>
						</linearGradient>
						<path class="st65" d="M216.2,206.5l3.3,171.8l2.4-177.1L216.2,206.5z"/>
						
							<linearGradient id="SVGID_67_" gradientUnits="userSpaceOnUse" x1="12.25" y1="-9694.6514" x2="12.25" y2="-9503.1514" gradientTransform="matrix(-1 0 0 -1 240.8 -9310.5508)">
							<stop  offset="0" style="stop-color:#187ABF"/>
							<stop  offset="0.6872" style="stop-color:#56A8DE"/>
							<stop  offset="1" style="stop-color:#187ABF"/>
						</linearGradient>
						<path class="st66" d="M225.7,197.8l3.3,186.3l2.4-191.5L225.7,197.8z"/>
						
							<linearGradient id="SVGID_68_" gradientUnits="userSpaceOnUse" x1="2.8" y1="-9700.4512" x2="2.8" y2="-9494.3516" gradientTransform="matrix(-1 0 0 -1 240.8 -9310.5508)">
							<stop  offset="0" style="stop-color:#187ABF"/>
							<stop  offset="0.6872" style="stop-color:#56A8DE"/>
							<stop  offset="1" style="stop-color:#187ABF"/>
						</linearGradient>
						<path class="st67" d="M235.1,189.1l3.4,200.8l2.4-206.1L235.1,189.1z"/>
						
							<linearGradient id="SVGID_69_" gradientUnits="userSpaceOnUse" x1="16.35" y1="-9460.9512" x2="16.35" y2="-9346.251" gradientTransform="matrix(-1 0 0 -1 240.8 -9310.5508)">
							<stop  offset="0" style="stop-color:#187ABF"/>
							<stop  offset="0.6872" style="stop-color:#56A8DE"/>
							<stop  offset="1" style="stop-color:#187ABF"/>
						</linearGradient>
						<path class="st68" d="M221.6,35.7l2.4,114.7l3.3-109.1L221.6,35.7z"/>
						
							<linearGradient id="SVGID_70_" gradientUnits="userSpaceOnUse" x1="6.45" y1="-9455.8516" x2="6.45" y2="-9355.1514" gradientTransform="matrix(-1 0 0 -1 240.8 -9310.5508)">
							<stop  offset="0" style="stop-color:#187ABF"/>
							<stop  offset="0.6872" style="stop-color:#56A8DE"/>
							<stop  offset="1" style="stop-color:#187ABF"/>
						</linearGradient>
						<path class="st69" d="M231.5,44.6l2.4,100.7l3.3-95.2L231.5,44.6z"/>
						
							<linearGradient id="SVGID_71_" gradientUnits="userSpaceOnUse" x1="25.85" y1="-9466.751" x2="25.85" y2="-9337.4512" gradientTransform="matrix(-1 0 0 -1 240.8 -9310.5508)">
							<stop  offset="0" style="stop-color:#187ABF"/>
							<stop  offset="0.6872" style="stop-color:#56A8DE"/>
							<stop  offset="1" style="stop-color:#187ABF"/>
						</linearGradient>
						<path class="st70" d="M212.1,26.9l2.4,129.3l3.3-123.9L212.1,26.9z"/>
						
							<linearGradient id="SVGID_72_" gradientUnits="userSpaceOnUse" x1="35.4" y1="-9476.3516" x2="35.4" y2="-9328.5508" gradientTransform="matrix(-1 0 0 -1 240.8 -9310.5508)">
							<stop  offset="0" style="stop-color:#187ABF"/>
							<stop  offset="0.6872" style="stop-color:#56A8DE"/>
							<stop  offset="1" style="stop-color:#187ABF"/>
						</linearGradient>
						<path class="st71" d="M202.5,18l2.5,147.8l3.3-142.3L202.5,18z"/>
						
							<linearGradient id="SVGID_73_" gradientUnits="userSpaceOnUse" x1="44.85" y1="-9487.9512" x2="44.85" y2="-9319.5508" gradientTransform="matrix(-1 0 0 -1 240.8 -9310.5508)">
							<stop  offset="0" style="stop-color:#187ABF"/>
							<stop  offset="0.6872" style="stop-color:#56A8DE"/>
							<stop  offset="1" style="stop-color:#187ABF"/>
						</linearGradient>
						<path class="st72" d="M193.1,9l2.4,168.4l3.3-162.6L193.1,9z"/>
						
							<linearGradient id="SVGID_74_" gradientUnits="userSpaceOnUse" x1="54.35" y1="-9497.3516" x2="54.35" y2="-9310.5508" gradientTransform="matrix(-1 0 0 -1 240.8 -9310.5508)">
							<stop  offset="0" style="stop-color:#187ABF"/>
							<stop  offset="0.6872" style="stop-color:#56A8DE"/>
							<stop  offset="1" style="stop-color:#187ABF"/>
						</linearGradient>
						<path class="st73" d="M183.5,0l2.5,186.8L189.4,6L183.5,0z"/>
					</g>
				</g>
			</g>
		</g>
	</g>
</g>
</svg>
