<?xml version="1.0" encoding="utf-8"?>
<!-- Generator: Adobe Illustrator 24.1.1, SVG Export Plug-In . SVG Version: 6.00 Build 0)  -->
<svg version="1.1" id="Слой_1" xmlns="http://www.w3.org/2000/svg" xmlns:xlink="http://www.w3.org/1999/xlink" x="0px" y="0px"
	 viewBox="0 0 233.9 392.9" style="enable-background:new 0 0 233.9 392.9;" xml:space="preserve">
<style type="text/css">
	.st0{clip-path:url(#SVGID_2_);}
	.st1{opacity:0.3;}
	.st2{fill:url(#SVGID_3_);}
	.st3{fill:url(#SVGID_4_);}
	.st4{fill:url(#SVGID_5_);}
	.st5{fill:url(#SVGID_6_);}
	.st6{fill:url(#SVGID_7_);}
	.st7{fill:url(#SVGID_8_);}
	.st8{fill:url(#SVGID_9_);}
	.st9{fill:url(#SVGID_10_);}
	.st10{fill:url(#SVGID_11_);}
	.st11{fill:url(#SVGID_12_);}
	.st12{fill:url(#SVGID_13_);}
	.st13{fill:url(#SVGID_14_);}
	.st14{fill:url(#SVGID_15_);}
	.st15{fill:url(#SVGID_16_);}
	.st16{fill:url(#SVGID_17_);}
	.st17{fill:url(#SVGID_18_);}
	.st18{fill:url(#SVGID_19_);}
	.st19{fill:url(#SVGID_20_);}
	.st20{fill:url(#SVGID_21_);}
	.st21{fill:url(#SVGID_22_);}
	.st22{fill:url(#SVGID_23_);}
	.st23{fill:url(#SVGID_24_);}
	.st24{fill:url(#SVGID_25_);}
	.st25{fill:url(#SVGID_26_);}
	.st26{fill:url(#SVGID_27_);}
	.st27{fill:url(#SVGID_28_);}
	.st28{fill:url(#SVGID_29_);}
	.st29{fill:url(#SVGID_30_);}
	.st30{fill:url(#SVGID_31_);}
	.st31{fill:url(#SVGID_32_);}
	.st32{fill:url(#SVGID_33_);}
	.st33{fill:url(#SVGID_34_);}
	.st34{fill:url(#SVGID_35_);}
	.st35{fill:url(#SVGID_36_);}
	.st36{fill:url(#SVGID_37_);}
	.st37{fill:url(#SVGID_38_);}
	.st38{fill:url(#SVGID_39_);}
	.st39{fill:url(#SVGID_40_);}
	.st40{fill:url(#SVGID_41_);}
	.st41{fill:url(#SVGID_42_);}
	.st42{fill:url(#SVGID_43_);}
	.st43{fill:url(#SVGID_44_);}
	.st44{fill:url(#SVGID_45_);}
	.st45{fill:url(#SVGID_46_);}
	.st46{fill:url(#SVGID_47_);}
	.st47{fill:url(#SVGID_48_);}
	.st48{fill:url(#SVGID_49_);}
	.st49{fill:url(#SVGID_50_);}
	.st50{fill:url(#SVGID_51_);}
	.st51{fill:url(#SVGID_52_);}
	.st52{fill:url(#SVGID_53_);}
	.st53{fill:url(#SVGID_54_);}
	.st54{fill:url(#SVGID_55_);}
	.st55{fill:url(#SVGID_56_);}
	.st56{fill:url(#SVGID_57_);}
	.st57{fill:url(#SVGID_58_);}
	.st58{fill:url(#SVGID_59_);}
	.st59{fill:url(#SVGID_60_);}
	.st60{fill:url(#SVGID_61_);}
	.st61{fill:url(#SVGID_62_);}
	.st62{fill:url(#SVGID_63_);}
	.st63{fill:url(#SVGID_64_);}
	.st64{fill:url(#SVGID_65_);}
	.st65{fill:url(#SVGID_66_);}
	.st66{fill:url(#SVGID_67_);}
	.st67{fill:url(#SVGID_68_);}
	.st68{fill:url(#SVGID_69_);}
	.st69{fill:url(#SVGID_70_);}
	.st70{fill:url(#SVGID_71_);}
	.st71{fill:url(#SVGID_72_);}
	.st72{fill:url(#SVGID_73_);}
	.st73{fill:url(#SVGID_74_);}
</style>
<g>
	<defs>
		<rect id="SVGID_1_" width="240.8" height="397.2"/>
	</defs>
	<clipPath id="SVGID_2_">
		<use xlink:href="#SVGID_1_"  style="overflow:visible;"/>
	</clipPath>
	<g class="st0">
		<g>
			<g>
				<g class="st1">
					
						<linearGradient id="SVGID_3_" gradientUnits="userSpaceOnUse" x1="292.25" y1="10072.5996" x2="292.25" y2="9923.2002" gradientTransform="matrix(1 0 0 1 0 -9704)">
						<stop  offset="0" style="stop-color:#187ABF"/>
						<stop  offset="0.6872" style="stop-color:#56A8DE"/>
						<stop  offset="1" style="stop-color:#187ABF"/>
					</linearGradient>
					<path class="st2" d="M295.2,219.2l-2.5,149.4l-3.4-144.3l5.5-5.1L295.2,219.2L295.2,219.2z"/>
					
						<linearGradient id="SVGID_4_" gradientUnits="userSpaceOnUse" x1="282.2" y1="10065.7002" x2="282.2" y2="9932.7002" gradientTransform="matrix(1 0 0 1 0 -9704)">
						<stop  offset="0" style="stop-color:#187ABF"/>
						<stop  offset="0.6872" style="stop-color:#56A8DE"/>
						<stop  offset="1" style="stop-color:#187ABF"/>
					</linearGradient>
					<path class="st3" d="M285.1,228.7l-2.4,133l-3.4-127.8l5.6-5.2L285.1,228.7L285.1,228.7z"/>
					
						<linearGradient id="SVGID_5_" gradientUnits="userSpaceOnUse" x1="301.7" y1="10077.5996" x2="301.7" y2="9914.2998" gradientTransform="matrix(1 0 0 1 0 -9704)">
						<stop  offset="0" style="stop-color:#187ABF"/>
						<stop  offset="0.6872" style="stop-color:#56A8DE"/>
						<stop  offset="1" style="stop-color:#187ABF"/>
					</linearGradient>
					<path class="st4" d="M304.6,210.3l-2.4,163.3l-3.4-158L304.6,210.3z"/>
					
						<linearGradient id="SVGID_6_" gradientUnits="userSpaceOnUse" x1="311.2" y1="10082.5996" x2="311.2" y2="9905.5996" gradientTransform="matrix(1 0 0 1 0 -9704)">
						<stop  offset="0" style="stop-color:#187ABF"/>
						<stop  offset="0.6872" style="stop-color:#56A8DE"/>
						<stop  offset="1" style="stop-color:#187ABF"/>
					</linearGradient>
					<path class="st5" d="M314.1,201.6l-2.4,177l-3.4-171.8L314.1,201.6z"/>
					
						<linearGradient id="SVGID_7_" gradientUnits="userSpaceOnUse" x1="320.6" y1="10088.2998" x2="320.6" y2="9896.8994" gradientTransform="matrix(1 0 0 1 0 -9704)">
						<stop  offset="0" style="stop-color:#187ABF"/>
						<stop  offset="0.6872" style="stop-color:#56A8DE"/>
						<stop  offset="1" style="stop-color:#187ABF"/>
					</linearGradient>
					<path class="st6" d="M323.5,192.9l-2.4,191.4l-3.4-186.2L323.5,192.9z"/>
					
						<linearGradient id="SVGID_8_" gradientUnits="userSpaceOnUse" x1="330.15" y1="10094.2002" x2="330.15" y2="9888.2002" gradientTransform="matrix(1 0 0 1 0 -9704)">
						<stop  offset="0" style="stop-color:#187ABF"/>
						<stop  offset="0.6872" style="stop-color:#56A8DE"/>
						<stop  offset="1" style="stop-color:#187ABF"/>
					</linearGradient>
					<path class="st7" d="M333.1,184.2l-2.5,206l-3.4-200.7L333.1,184.2z"/>
					
						<linearGradient id="SVGID_9_" gradientUnits="userSpaceOnUse" x1="316.6" y1="9857.7998" x2="316.6" y2="9743.2002" gradientTransform="matrix(1 0 0 1 0 -9704)">
						<stop  offset="0" style="stop-color:#187ABF"/>
						<stop  offset="0.6872" style="stop-color:#56A8DE"/>
						<stop  offset="1" style="stop-color:#187ABF"/>
					</linearGradient>
					<path class="st8" d="M319.5,44.7l-3.3,109.1l-2.5-114.6L319.5,44.7z"/>
					
						<linearGradient id="SVGID_10_" gradientUnits="userSpaceOnUse" x1="326.5" y1="9852.7002" x2="326.5" y2="9752" gradientTransform="matrix(1 0 0 1 0 -9704)">
						<stop  offset="0" style="stop-color:#187ABF"/>
						<stop  offset="0.6872" style="stop-color:#56A8DE"/>
						<stop  offset="1" style="stop-color:#187ABF"/>
					</linearGradient>
					<path class="st9" d="M329.4,53.6l-3.3,95.1L323.6,48L329.4,53.6z"/>
					
						<linearGradient id="SVGID_11_" gradientUnits="userSpaceOnUse" x1="307.15" y1="9863.5" x2="307.15" y2="9734.2002" gradientTransform="matrix(1 0 0 1 0 -9704)">
						<stop  offset="0" style="stop-color:#187ABF"/>
						<stop  offset="0.6872" style="stop-color:#56A8DE"/>
						<stop  offset="1" style="stop-color:#187ABF"/>
					</linearGradient>
					<path class="st10" d="M310,35.7l-3.3,123.8l-2.4-129.3L310,35.7z"/>
					
						<linearGradient id="SVGID_12_" gradientUnits="userSpaceOnUse" x1="297.65" y1="9873.2002" x2="297.65" y2="9725.2998" gradientTransform="matrix(1 0 0 1 0 -9704)">
						<stop  offset="0" style="stop-color:#187ABF"/>
						<stop  offset="0.6872" style="stop-color:#56A8DE"/>
						<stop  offset="1" style="stop-color:#187ABF"/>
					</linearGradient>
					<path class="st11" d="M300.5,26.9l-3.3,142.3l-2.4-147.9L300.5,26.9z"/>
					
						<linearGradient id="SVGID_13_" gradientUnits="userSpaceOnUse" x1="288.15" y1="9884.8994" x2="288.15" y2="9716.5" gradientTransform="matrix(1 0 0 1 0 -9704)">
						<stop  offset="0" style="stop-color:#187ABF"/>
						<stop  offset="0.6872" style="stop-color:#56A8DE"/>
						<stop  offset="1" style="stop-color:#187ABF"/>
					</linearGradient>
					<path class="st12" d="M291,18.2l-3.3,162.7l-2.4-168.4L291,18.2z"/>
					
						<linearGradient id="SVGID_14_" gradientUnits="userSpaceOnUse" x1="278.6" y1="9894.2002" x2="278.6" y2="9707.3994" gradientTransform="matrix(1 0 0 1 0 -9704)">
						<stop  offset="0" style="stop-color:#187ABF"/>
						<stop  offset="0.6872" style="stop-color:#56A8DE"/>
						<stop  offset="1" style="stop-color:#187ABF"/>
					</linearGradient>
					<path class="st13" d="M281.5,9.4l-3.4,180.8L275.7,3.4L281.5,9.4z"/>
					
						<linearGradient id="SVGID_15_" gradientUnits="userSpaceOnUse" x1="379.5" y1="10069.2002" x2="379.5" y2="9919.7998" gradientTransform="matrix(1 0 0 1 0 -9704)">
						<stop  offset="0" style="stop-color:#187ABF"/>
						<stop  offset="0.6872" style="stop-color:#56A8DE"/>
						<stop  offset="1" style="stop-color:#187ABF"/>
					</linearGradient>
					<path class="st14" d="M382.4,215.8L380,365.2l-3.4-144.3l5.5-5.1H382.4z"/>
					
						<linearGradient id="SVGID_16_" gradientUnits="userSpaceOnUse" x1="369.5" y1="10062.2998" x2="369.5" y2="9929.2998" gradientTransform="matrix(1 0 0 1 0 -9704)">
						<stop  offset="0" style="stop-color:#187ABF"/>
						<stop  offset="0.6872" style="stop-color:#56A8DE"/>
						<stop  offset="1" style="stop-color:#187ABF"/>
					</linearGradient>
					<path class="st15" d="M372.4,225.3l-2.5,133l-3.3-127.9l5.6-5.1L372.4,225.3L372.4,225.3z"/>
					
						<linearGradient id="SVGID_17_" gradientUnits="userSpaceOnUse" x1="389" y1="10074.2002" x2="389" y2="9910.8994" gradientTransform="matrix(1 0 0 1 0 -9704)">
						<stop  offset="0" style="stop-color:#187ABF"/>
						<stop  offset="0.6872" style="stop-color:#56A8DE"/>
						<stop  offset="1" style="stop-color:#187ABF"/>
					</linearGradient>
					<path class="st16" d="M391.9,206.9l-2.5,163.3l-3.3-158L391.9,206.9z"/>
					
						<linearGradient id="SVGID_18_" gradientUnits="userSpaceOnUse" x1="398.45" y1="10079.2002" x2="398.45" y2="9902.0996" gradientTransform="matrix(1 0 0 1 0 -9704)">
						<stop  offset="0" style="stop-color:#187ABF"/>
						<stop  offset="0.6872" style="stop-color:#56A8DE"/>
						<stop  offset="1" style="stop-color:#187ABF"/>
					</linearGradient>
					<path class="st17" d="M401.3,198.1l-2.4,177.1l-3.3-171.8L401.3,198.1z"/>
					
						<linearGradient id="SVGID_19_" gradientUnits="userSpaceOnUse" x1="407.95" y1="10085" x2="407.95" y2="9893.5" gradientTransform="matrix(1 0 0 1 0 -9704)">
						<stop  offset="0" style="stop-color:#187ABF"/>
						<stop  offset="0.6872" style="stop-color:#56A8DE"/>
						<stop  offset="1" style="stop-color:#187ABF"/>
					</linearGradient>
					<path class="st18" d="M410.8,189.5L408.4,381l-3.3-186.3L410.8,189.5z"/>
					
						<linearGradient id="SVGID_20_" gradientUnits="userSpaceOnUse" x1="417.4" y1="10090.7998" x2="417.4" y2="9884.7002" gradientTransform="matrix(1 0 0 1 0 -9704)">
						<stop  offset="0" style="stop-color:#187ABF"/>
						<stop  offset="0.6872" style="stop-color:#56A8DE"/>
						<stop  offset="1" style="stop-color:#187ABF"/>
					</linearGradient>
					<path class="st19" d="M420.3,180.7l-2.4,206.1L414.5,186L420.3,180.7z"/>
					
						<linearGradient id="SVGID_21_" gradientUnits="userSpaceOnUse" x1="403.85" y1="9854.3994" x2="403.85" y2="9739.7002" gradientTransform="matrix(1 0 0 1 0 -9704)">
						<stop  offset="0" style="stop-color:#187ABF"/>
						<stop  offset="0.6872" style="stop-color:#56A8DE"/>
						<stop  offset="1" style="stop-color:#187ABF"/>
					</linearGradient>
					<path class="st20" d="M406.7,41.3l-3.3,109.1L401,35.7L406.7,41.3z"/>
					
						<linearGradient id="SVGID_22_" gradientUnits="userSpaceOnUse" x1="413.8" y1="9849.2998" x2="413.8" y2="9748.5996" gradientTransform="matrix(1 0 0 1 0 -9704)">
						<stop  offset="0" style="stop-color:#187ABF"/>
						<stop  offset="0.6872" style="stop-color:#56A8DE"/>
						<stop  offset="1" style="stop-color:#187ABF"/>
					</linearGradient>
					<path class="st21" d="M416.7,50.1l-3.4,95.2l-2.4-100.7L416.7,50.1z"/>
					
						<linearGradient id="SVGID_23_" gradientUnits="userSpaceOnUse" x1="394.35" y1="9860.2002" x2="394.35" y2="9730.8994" gradientTransform="matrix(1 0 0 1 0 -9704)">
						<stop  offset="0" style="stop-color:#187ABF"/>
						<stop  offset="0.6872" style="stop-color:#56A8DE"/>
						<stop  offset="1" style="stop-color:#187ABF"/>
					</linearGradient>
					<path class="st22" d="M397.2,32.3l-3.3,123.9l-2.4-129.3L397.2,32.3z"/>
					
						<linearGradient id="SVGID_24_" gradientUnits="userSpaceOnUse" x1="384.9" y1="9869.7998" x2="384.9" y2="9722" gradientTransform="matrix(1 0 0 1 0 -9704)">
						<stop  offset="0" style="stop-color:#187ABF"/>
						<stop  offset="0.6872" style="stop-color:#56A8DE"/>
						<stop  offset="1" style="stop-color:#187ABF"/>
					</linearGradient>
					<path class="st23" d="M387.8,23.5l-3.3,142.3L382,18L387.8,23.5z"/>
					
						<linearGradient id="SVGID_25_" gradientUnits="userSpaceOnUse" x1="375.4" y1="9881.2998" x2="375.4" y2="9713" gradientTransform="matrix(1 0 0 1 0 -9704)">
						<stop  offset="0" style="stop-color:#187ABF"/>
						<stop  offset="0.6872" style="stop-color:#56A8DE"/>
						<stop  offset="1" style="stop-color:#187ABF"/>
					</linearGradient>
					<path class="st24" d="M378.3,14.8L375,177.3L372.5,9L378.3,14.8z"/>
					
						<linearGradient id="SVGID_26_" gradientUnits="userSpaceOnUse" x1="365.85" y1="9890.7998" x2="365.85" y2="9704" gradientTransform="matrix(1 0 0 1 0 -9704)">
						<stop  offset="0" style="stop-color:#187ABF"/>
						<stop  offset="0.6872" style="stop-color:#56A8DE"/>
						<stop  offset="1" style="stop-color:#187ABF"/>
					</linearGradient>
					<path class="st25" d="M368.8,6l-3.4,180.8L362.9,0L368.8,6z"/>
					
						<linearGradient id="SVGID_27_" gradientUnits="userSpaceOnUse" x1="466" y1="10069.2002" x2="466" y2="9919.7998" gradientTransform="matrix(1 0 0 1 0 -9704)">
						<stop  offset="0" style="stop-color:#187ABF"/>
						<stop  offset="0.6872" style="stop-color:#56A8DE"/>
						<stop  offset="1" style="stop-color:#187ABF"/>
					</linearGradient>
					<path class="st26" d="M468.9,215.8l-2.4,149.4l-3.4-144.3l5.6-5.1H468.9z"/>
					
						<linearGradient id="SVGID_28_" gradientUnits="userSpaceOnUse" x1="456.1" y1="10062.2998" x2="456.1" y2="9929.2998" gradientTransform="matrix(1 0 0 1 0 -9704)">
						<stop  offset="0" style="stop-color:#187ABF"/>
						<stop  offset="0.6872" style="stop-color:#56A8DE"/>
						<stop  offset="1" style="stop-color:#187ABF"/>
					</linearGradient>
					<path class="st27" d="M459,225.3l-2.4,133l-3.4-127.9l5.5-5.1L459,225.3L459,225.3z"/>
					
						<linearGradient id="SVGID_29_" gradientUnits="userSpaceOnUse" x1="475.5" y1="10074.2002" x2="475.5" y2="9910.8994" gradientTransform="matrix(1 0 0 1 0 -9704)">
						<stop  offset="0" style="stop-color:#187ABF"/>
						<stop  offset="0.6872" style="stop-color:#56A8DE"/>
						<stop  offset="1" style="stop-color:#187ABF"/>
					</linearGradient>
					<path class="st28" d="M478.4,206.9L476,370.2l-3.4-158L478.4,206.9z"/>
					
						<linearGradient id="SVGID_30_" gradientUnits="userSpaceOnUse" x1="485" y1="10079.2002" x2="485" y2="9902.0996" gradientTransform="matrix(1 0 0 1 0 -9704)">
						<stop  offset="0" style="stop-color:#187ABF"/>
						<stop  offset="0.6872" style="stop-color:#56A8DE"/>
						<stop  offset="1" style="stop-color:#187ABF"/>
					</linearGradient>
					<path class="st29" d="M487.9,198.1l-2.4,177.1l-3.4-171.8L487.9,198.1z"/>
					
						<linearGradient id="SVGID_31_" gradientUnits="userSpaceOnUse" x1="494.45" y1="10085" x2="494.45" y2="9893.5" gradientTransform="matrix(1 0 0 1 0 -9704)">
						<stop  offset="0" style="stop-color:#187ABF"/>
						<stop  offset="0.6872" style="stop-color:#56A8DE"/>
						<stop  offset="1" style="stop-color:#187ABF"/>
					</linearGradient>
					<path class="st30" d="M497.3,189.5L494.9,381l-3.3-186.3L497.3,189.5z"/>
					
						<linearGradient id="SVGID_32_" gradientUnits="userSpaceOnUse" x1="503.95" y1="10090.7998" x2="503.95" y2="9884.7002" gradientTransform="matrix(1 0 0 1 0 -9704)">
						<stop  offset="0" style="stop-color:#187ABF"/>
						<stop  offset="0.6872" style="stop-color:#56A8DE"/>
						<stop  offset="1" style="stop-color:#187ABF"/>
					</linearGradient>
					<path class="st31" d="M506.9,180.7l-2.5,206.1L501,186.1L506.9,180.7z"/>
					
						<linearGradient id="SVGID_33_" gradientUnits="userSpaceOnUse" x1="490.4" y1="9854.3994" x2="490.4" y2="9739.7002" gradientTransform="matrix(1 0 0 1 0 -9704)">
						<stop  offset="0" style="stop-color:#187ABF"/>
						<stop  offset="0.6872" style="stop-color:#56A8DE"/>
						<stop  offset="1" style="stop-color:#187ABF"/>
					</linearGradient>
					<path class="st32" d="M493.3,41.3L490,150.4l-2.5-114.7L493.3,41.3z"/>
					
						<linearGradient id="SVGID_34_" gradientUnits="userSpaceOnUse" x1="500.4" y1="9849.2998" x2="500.4" y2="9748.5996" gradientTransform="matrix(1 0 0 1 0 -9704)">
						<stop  offset="0" style="stop-color:#187ABF"/>
						<stop  offset="0.6872" style="stop-color:#56A8DE"/>
						<stop  offset="1" style="stop-color:#187ABF"/>
					</linearGradient>
					<path class="st33" d="M503.3,50.1l-3.3,95.2l-2.5-100.7L503.3,50.1z"/>
					
						<linearGradient id="SVGID_35_" gradientUnits="userSpaceOnUse" x1="480.95" y1="9860.2002" x2="480.95" y2="9730.8994" gradientTransform="matrix(1 0 0 1 0 -9704)">
						<stop  offset="0" style="stop-color:#187ABF"/>
						<stop  offset="0.6872" style="stop-color:#56A8DE"/>
						<stop  offset="1" style="stop-color:#187ABF"/>
					</linearGradient>
					<path class="st34" d="M483.8,32.3l-3.3,123.9l-2.4-129.3L483.8,32.3z"/>
					
						<linearGradient id="SVGID_36_" gradientUnits="userSpaceOnUse" x1="471.45" y1="9869.8994" x2="471.45" y2="9722" gradientTransform="matrix(1 0 0 1 0 -9704)">
						<stop  offset="0" style="stop-color:#187ABF"/>
						<stop  offset="0.6872" style="stop-color:#56A8DE"/>
						<stop  offset="1" style="stop-color:#187ABF"/>
					</linearGradient>
					<path class="st35" d="M474.3,23.5L471,165.9L468.6,18L474.3,23.5z"/>
					
						<linearGradient id="SVGID_37_" gradientUnits="userSpaceOnUse" x1="461.95" y1="9881.3994" x2="461.95" y2="9713" gradientTransform="matrix(1 0 0 1 0 -9704)">
						<stop  offset="0" style="stop-color:#187ABF"/>
						<stop  offset="0.6872" style="stop-color:#56A8DE"/>
						<stop  offset="1" style="stop-color:#187ABF"/>
					</linearGradient>
					<path class="st36" d="M464.8,14.8l-3.3,162.6L459.1,9L464.8,14.8z"/>
					
						<linearGradient id="SVGID_38_" gradientUnits="userSpaceOnUse" x1="452.5" y1="9890.7998" x2="452.5" y2="9704" gradientTransform="matrix(1 0 0 1 0 -9704)">
						<stop  offset="0" style="stop-color:#187ABF"/>
						<stop  offset="0.6872" style="stop-color:#56A8DE"/>
						<stop  offset="1" style="stop-color:#187ABF"/>
					</linearGradient>
					<path class="st37" d="M455.4,6L452,186.8L449.6,0L455.4,6z"/>
					
						<linearGradient id="SVGID_39_" gradientUnits="userSpaceOnUse" x1="215.15" y1="10075.5" x2="215.15" y2="9926.0996" gradientTransform="matrix(1 0 0 1 0 -9704)">
						<stop  offset="0" style="stop-color:#187ABF"/>
						<stop  offset="0.6872" style="stop-color:#56A8DE"/>
						<stop  offset="1" style="stop-color:#187ABF"/>
					</linearGradient>
					<path class="st38" d="M212.2,222.1l2.5,149.4l3.4-144.3l-5.6-5.1L212.2,222.1L212.2,222.1z"/>
					
						<linearGradient id="SVGID_40_" gradientUnits="userSpaceOnUse" x1="225.15" y1="10068.5996" x2="225.15" y2="9935.5996" gradientTransform="matrix(1 0 0 1 0 -9704)">
						<stop  offset="0" style="stop-color:#187ABF"/>
						<stop  offset="0.6872" style="stop-color:#56A8DE"/>
						<stop  offset="1" style="stop-color:#187ABF"/>
					</linearGradient>
					<path class="st39" d="M222.2,231.6l2.5,133l3.4-127.9l-5.6-5.1H222.2z"/>
					
						<linearGradient id="SVGID_41_" gradientUnits="userSpaceOnUse" x1="205.65" y1="10080.5" x2="205.65" y2="9917.2002" gradientTransform="matrix(1 0 0 1 0 -9704)">
						<stop  offset="0" style="stop-color:#187ABF"/>
						<stop  offset="0.6872" style="stop-color:#56A8DE"/>
						<stop  offset="1" style="stop-color:#187ABF"/>
					</linearGradient>
					<path class="st40" d="M202.8,213.2l2.4,163.3l3.3-158L202.8,213.2z"/>
					
						<linearGradient id="SVGID_42_" gradientUnits="userSpaceOnUse" x1="196.15" y1="10085.5" x2="196.15" y2="9908.5" gradientTransform="matrix(1 0 0 1 0 -9704)">
						<stop  offset="0" style="stop-color:#187ABF"/>
						<stop  offset="0.6872" style="stop-color:#56A8DE"/>
						<stop  offset="1" style="stop-color:#187ABF"/>
					</linearGradient>
					<path class="st41" d="M193.3,204.5l2.4,177l3.3-171.8L193.3,204.5z"/>
					
						<linearGradient id="SVGID_43_" gradientUnits="userSpaceOnUse" x1="186.7" y1="10091.2998" x2="186.7" y2="9899.7998" gradientTransform="matrix(1 0 0 1 0 -9704)">
						<stop  offset="0" style="stop-color:#187ABF"/>
						<stop  offset="0.6872" style="stop-color:#56A8DE"/>
						<stop  offset="1" style="stop-color:#187ABF"/>
					</linearGradient>
					<path class="st42" d="M183.8,195.8l2.4,191.5l3.4-186.3L183.8,195.8z"/>
					
						<linearGradient id="SVGID_44_" gradientUnits="userSpaceOnUse" x1="177.2" y1="10097.0996" x2="177.2" y2="9891.0996" gradientTransform="matrix(1 0 0 1 0 -9704)">
						<stop  offset="0" style="stop-color:#187ABF"/>
						<stop  offset="0.6872" style="stop-color:#56A8DE"/>
						<stop  offset="1" style="stop-color:#187ABF"/>
					</linearGradient>
					<path class="st43" d="M174.3,187.1l2.4,206l3.4-200.7L174.3,187.1z"/>
					
						<linearGradient id="SVGID_45_" gradientUnits="userSpaceOnUse" x1="190.9" y1="9857.5996" x2="190.9" y2="9743" gradientTransform="matrix(1 0 0 1 0 -9704)">
						<stop  offset="0" style="stop-color:#187ABF"/>
						<stop  offset="0.6872" style="stop-color:#56A8DE"/>
						<stop  offset="1" style="stop-color:#187ABF"/>
					</linearGradient>
					<path class="st44" d="M188,44.5l3.3,109.1L193.8,39L188,44.5z"/>
					
						<linearGradient id="SVGID_46_" gradientUnits="userSpaceOnUse" x1="180.9" y1="9852.5" x2="180.9" y2="9751.7998" gradientTransform="matrix(1 0 0 1 0 -9704)">
						<stop  offset="0" style="stop-color:#187ABF"/>
						<stop  offset="0.6872" style="stop-color:#56A8DE"/>
						<stop  offset="1" style="stop-color:#187ABF"/>
					</linearGradient>
					<path class="st45" d="M178,53.3l3.3,95.2l2.5-100.7L178,53.3z"/>
					
						<linearGradient id="SVGID_47_" gradientUnits="userSpaceOnUse" x1="200.35" y1="9863.3994" x2="200.35" y2="9734.0996" gradientTransform="matrix(1 0 0 1 0 -9704)">
						<stop  offset="0" style="stop-color:#187ABF"/>
						<stop  offset="0.6872" style="stop-color:#56A8DE"/>
						<stop  offset="1" style="stop-color:#187ABF"/>
					</linearGradient>
					<path class="st46" d="M197.5,35.6l3.3,123.8l2.4-129.3L197.5,35.6z"/>
					
						<linearGradient id="SVGID_48_" gradientUnits="userSpaceOnUse" x1="209.85" y1="9873" x2="209.85" y2="9725.0996" gradientTransform="matrix(1 0 0 1 0 -9704)">
						<stop  offset="0" style="stop-color:#187ABF"/>
						<stop  offset="0.6872" style="stop-color:#56A8DE"/>
						<stop  offset="1" style="stop-color:#187ABF"/>
					</linearGradient>
					<path class="st47" d="M207,26.7l3.3,142.3l2.4-147.9L207,26.7z"/>
					
						<linearGradient id="SVGID_49_" gradientUnits="userSpaceOnUse" x1="219.35" y1="9884.7002" x2="219.35" y2="9716.2998" gradientTransform="matrix(1 0 0 1 0 -9704)">
						<stop  offset="0" style="stop-color:#187ABF"/>
						<stop  offset="0.6872" style="stop-color:#56A8DE"/>
						<stop  offset="1" style="stop-color:#187ABF"/>
					</linearGradient>
					<path class="st48" d="M216.5,18l3.3,162.7l2.4-168.4L216.5,18z"/>
					
						<linearGradient id="SVGID_50_" gradientUnits="userSpaceOnUse" x1="228.8" y1="9894" x2="228.8" y2="9707.2002" gradientTransform="matrix(1 0 0 1 0 -9704)">
						<stop  offset="0" style="stop-color:#187ABF"/>
						<stop  offset="0.6872" style="stop-color:#56A8DE"/>
						<stop  offset="1" style="stop-color:#187ABF"/>
					</linearGradient>
					<path class="st49" d="M225.9,9.2l3.4,180.8l2.4-186.8L225.9,9.2z"/>
					
						<linearGradient id="SVGID_51_" gradientUnits="userSpaceOnUse" x1="126.5" y1="10073.2002" x2="126.5" y2="9923.7998" gradientTransform="matrix(1 0 0 1 0 -9704)">
						<stop  offset="0" style="stop-color:#187ABF"/>
						<stop  offset="0.6872" style="stop-color:#56A8DE"/>
						<stop  offset="1" style="stop-color:#187ABF"/>
					</linearGradient>
					<path class="st50" d="M123.6,219.8l2.4,149.4l3.4-144.3l-5.5-5.1H123.6z"/>
					
						<linearGradient id="SVGID_52_" gradientUnits="userSpaceOnUse" x1="136.5" y1="10066.2998" x2="136.5" y2="9933.3994" gradientTransform="matrix(1 0 0 1 0 -9704)">
						<stop  offset="0" style="stop-color:#187ABF"/>
						<stop  offset="0.6872" style="stop-color:#56A8DE"/>
						<stop  offset="1" style="stop-color:#187ABF"/>
					</linearGradient>
					<path class="st51" d="M133.6,229.4l2.4,132.9l3.4-127.8l-5.6-5.1L133.6,229.4L133.6,229.4z"/>
					
						<linearGradient id="SVGID_53_" gradientUnits="userSpaceOnUse" x1="117" y1="10078.2002" x2="117" y2="9914.8994" gradientTransform="matrix(1 0 0 1 0 -9704)">
						<stop  offset="0" style="stop-color:#187ABF"/>
						<stop  offset="0.6872" style="stop-color:#56A8DE"/>
						<stop  offset="1" style="stop-color:#187ABF"/>
					</linearGradient>
					<path class="st52" d="M114.1,210.9l2.4,163.3l3.4-157.9L114.1,210.9z"/>
					
						<linearGradient id="SVGID_54_" gradientUnits="userSpaceOnUse" x1="107.6" y1="10083.2998" x2="107.6" y2="9906.2998" gradientTransform="matrix(1 0 0 1 0 -9704)">
						<stop  offset="0" style="stop-color:#187ABF"/>
						<stop  offset="0.6872" style="stop-color:#56A8DE"/>
						<stop  offset="1" style="stop-color:#187ABF"/>
					</linearGradient>
					<path class="st53" d="M104.7,202.3l2.4,177l3.4-171.8L104.7,202.3z"/>
					
						<linearGradient id="SVGID_55_" gradientUnits="userSpaceOnUse" x1="98.05" y1="10089" x2="98.05" y2="9897.5996" gradientTransform="matrix(1 0 0 1 0 -9704)">
						<stop  offset="0" style="stop-color:#187ABF"/>
						<stop  offset="0.6872" style="stop-color:#56A8DE"/>
						<stop  offset="1" style="stop-color:#187ABF"/>
					</linearGradient>
					<path class="st54" d="M95.2,193.6L97.6,385l3.3-186.2L95.2,193.6z"/>
					
						<linearGradient id="SVGID_56_" gradientUnits="userSpaceOnUse" x1="88.55" y1="10094.8994" x2="88.55" y2="9888.8994" gradientTransform="matrix(1 0 0 1 0 -9704)">
						<stop  offset="0" style="stop-color:#187ABF"/>
						<stop  offset="0.6872" style="stop-color:#56A8DE"/>
						<stop  offset="1" style="stop-color:#187ABF"/>
					</linearGradient>
					<path class="st55" d="M85.6,184.9l2.5,206l3.4-200.7L85.6,184.9z"/>
					
						<linearGradient id="SVGID_57_" gradientUnits="userSpaceOnUse" x1="102.1" y1="9855.2998" x2="102.1" y2="9740.7002" gradientTransform="matrix(1 0 0 1 0 -9704)">
						<stop  offset="0" style="stop-color:#187ABF"/>
						<stop  offset="0.6872" style="stop-color:#56A8DE"/>
						<stop  offset="1" style="stop-color:#187ABF"/>
					</linearGradient>
					<path class="st56" d="M99.2,42.2l3.4,109.1L105,36.7L99.2,42.2z"/>
					
						<linearGradient id="SVGID_58_" gradientUnits="userSpaceOnUse" x1="92.2" y1="9850.2998" x2="92.2" y2="9749.7002" gradientTransform="matrix(1 0 0 1 0 -9704)">
						<stop  offset="0" style="stop-color:#187ABF"/>
						<stop  offset="0.6872" style="stop-color:#56A8DE"/>
						<stop  offset="1" style="stop-color:#187ABF"/>
					</linearGradient>
					<path class="st57" d="M89.3,51.2l3.3,95.1l2.5-100.6L89.3,51.2z"/>
					
						<linearGradient id="SVGID_59_" gradientUnits="userSpaceOnUse" x1="111.6" y1="9861.0996" x2="111.6" y2="9731.7998" gradientTransform="matrix(1 0 0 1 0 -9704)">
						<stop  offset="0" style="stop-color:#187ABF"/>
						<stop  offset="0.6872" style="stop-color:#56A8DE"/>
						<stop  offset="1" style="stop-color:#187ABF"/>
					</linearGradient>
					<path class="st58" d="M108.7,33.3l3.3,123.8l2.5-129.3L108.7,33.3z"/>
					
						<linearGradient id="SVGID_60_" gradientUnits="userSpaceOnUse" x1="121.05" y1="9870.8994" x2="121.05" y2="9722.8994" gradientTransform="matrix(1 0 0 1 0 -9704)">
						<stop  offset="0" style="stop-color:#187ABF"/>
						<stop  offset="0.6872" style="stop-color:#56A8DE"/>
						<stop  offset="1" style="stop-color:#187ABF"/>
					</linearGradient>
					<path class="st59" d="M118.2,24.6l3.3,142.3l2.4-148L118.2,24.6z"/>
					
						<linearGradient id="SVGID_61_" gradientUnits="userSpaceOnUse" x1="130.6" y1="9882.3994" x2="130.6" y2="9714" gradientTransform="matrix(1 0 0 1 0 -9704)">
						<stop  offset="0" style="stop-color:#187ABF"/>
						<stop  offset="0.6872" style="stop-color:#56A8DE"/>
						<stop  offset="1" style="stop-color:#187ABF"/>
					</linearGradient>
					<path class="st60" d="M127.7,15.8l3.3,162.6L133.5,10L127.7,15.8z"/>
					
						<linearGradient id="SVGID_62_" gradientUnits="userSpaceOnUse" x1="140.1" y1="9891.8994" x2="140.1" y2="9705" gradientTransform="matrix(1 0 0 1 0 -9704)">
						<stop  offset="0" style="stop-color:#187ABF"/>
						<stop  offset="0.6872" style="stop-color:#56A8DE"/>
						<stop  offset="1" style="stop-color:#187ABF"/>
					</linearGradient>
					<path class="st61" d="M137.2,7l3.4,180.9L143,1L137.2,7z"/>
					
						<linearGradient id="SVGID_63_" gradientUnits="userSpaceOnUse" x1="40.7" y1="10072.2998" x2="40.7" y2="9922.8994" gradientTransform="matrix(1 0 0 1 0 -9704)">
						<stop  offset="0" style="stop-color:#187ABF"/>
						<stop  offset="0.6872" style="stop-color:#56A8DE"/>
						<stop  offset="1" style="stop-color:#187ABF"/>
					</linearGradient>
					<path class="st62" d="M37.8,218.9l2.5,149.4L43.6,224l-5.6-5.1H37.8z"/>
					
						<linearGradient id="SVGID_64_" gradientUnits="userSpaceOnUse" x1="50.75" y1="10065.3994" x2="50.75" y2="9932.3994" gradientTransform="matrix(1 0 0 1 0 -9704)">
						<stop  offset="0" style="stop-color:#187ABF"/>
						<stop  offset="0.6872" style="stop-color:#56A8DE"/>
						<stop  offset="1" style="stop-color:#187ABF"/>
					</linearGradient>
					<path class="st63" d="M47.8,228.4l2.5,133l3.4-127.9l-5.6-5.1H47.8z"/>
					
						<linearGradient id="SVGID_65_" gradientUnits="userSpaceOnUse" x1="31.25" y1="10077.2998" x2="31.25" y2="9914" gradientTransform="matrix(1 0 0 1 0 -9704)">
						<stop  offset="0" style="stop-color:#187ABF"/>
						<stop  offset="0.6872" style="stop-color:#56A8DE"/>
						<stop  offset="1" style="stop-color:#187ABF"/>
					</linearGradient>
					<path class="st64" d="M28.4,210l2.4,163.3l3.3-158L28.4,210z"/>
					
						<linearGradient id="SVGID_66_" gradientUnits="userSpaceOnUse" x1="21.75" y1="10082.2998" x2="21.75" y2="9905.2002" gradientTransform="matrix(1 0 0 1 0 -9704)">
						<stop  offset="0" style="stop-color:#187ABF"/>
						<stop  offset="0.6872" style="stop-color:#56A8DE"/>
						<stop  offset="1" style="stop-color:#187ABF"/>
					</linearGradient>
					<path class="st65" d="M18.9,201.2l2.4,177.1l3.3-171.8L18.9,201.2z"/>
					
						<linearGradient id="SVGID_67_" gradientUnits="userSpaceOnUse" x1="12.25" y1="10088.0996" x2="12.25" y2="9896.5996" gradientTransform="matrix(1 0 0 1 0 -9704)">
						<stop  offset="0" style="stop-color:#187ABF"/>
						<stop  offset="0.6872" style="stop-color:#56A8DE"/>
						<stop  offset="1" style="stop-color:#187ABF"/>
					</linearGradient>
					<path class="st66" d="M9.4,192.6l2.4,191.5l3.3-186.3L9.4,192.6z"/>
					
						<linearGradient id="SVGID_68_" gradientUnits="userSpaceOnUse" x1="2.8" y1="10093.8994" x2="2.8" y2="9887.7998" gradientTransform="matrix(1 0 0 1 0 -9704)">
						<stop  offset="0" style="stop-color:#187ABF"/>
						<stop  offset="0.6872" style="stop-color:#56A8DE"/>
						<stop  offset="1" style="stop-color:#187ABF"/>
					</linearGradient>
					<path class="st67" d="M-0.1,183.8l2.4,206.1l3.4-200.8L-0.1,183.8z"/>
					
						<linearGradient id="SVGID_69_" gradientUnits="userSpaceOnUse" x1="16.35" y1="9854.3994" x2="16.35" y2="9739.7002" gradientTransform="matrix(1 0 0 1 0 -9704)">
						<stop  offset="0" style="stop-color:#187ABF"/>
						<stop  offset="0.6872" style="stop-color:#56A8DE"/>
						<stop  offset="1" style="stop-color:#187ABF"/>
					</linearGradient>
					<path class="st68" d="M13.5,41.3l3.3,109.1l2.4-114.7L13.5,41.3z"/>
					
						<linearGradient id="SVGID_70_" gradientUnits="userSpaceOnUse" x1="6.45" y1="9849.2998" x2="6.45" y2="9748.5996" gradientTransform="matrix(1 0 0 1 0 -9704)">
						<stop  offset="0" style="stop-color:#187ABF"/>
						<stop  offset="0.6872" style="stop-color:#56A8DE"/>
						<stop  offset="1" style="stop-color:#187ABF"/>
					</linearGradient>
					<path class="st69" d="M3.6,50.1l3.3,95.2L9.3,44.6L3.6,50.1z"/>
					
						<linearGradient id="SVGID_71_" gradientUnits="userSpaceOnUse" x1="25.85" y1="9860.2002" x2="25.85" y2="9730.8994" gradientTransform="matrix(1 0 0 1 0 -9704)">
						<stop  offset="0" style="stop-color:#187ABF"/>
						<stop  offset="0.6872" style="stop-color:#56A8DE"/>
						<stop  offset="1" style="stop-color:#187ABF"/>
					</linearGradient>
					<path class="st70" d="M23,32.3l3.3,123.9l2.4-129.3L23,32.3z"/>
					
						<linearGradient id="SVGID_72_" gradientUnits="userSpaceOnUse" x1="35.4" y1="9869.7998" x2="35.4" y2="9722" gradientTransform="matrix(1 0 0 1 0 -9704)">
						<stop  offset="0" style="stop-color:#187ABF"/>
						<stop  offset="0.6872" style="stop-color:#56A8DE"/>
						<stop  offset="1" style="stop-color:#187ABF"/>
					</linearGradient>
					<path class="st71" d="M32.5,23.5l3.3,142.3L38.3,18L32.5,23.5z"/>
					
						<linearGradient id="SVGID_73_" gradientUnits="userSpaceOnUse" x1="44.85" y1="9881.3994" x2="44.85" y2="9713" gradientTransform="matrix(1 0 0 1 0 -9704)">
						<stop  offset="0" style="stop-color:#187ABF"/>
						<stop  offset="0.6872" style="stop-color:#56A8DE"/>
						<stop  offset="1" style="stop-color:#187ABF"/>
					</linearGradient>
					<path class="st72" d="M42,14.8l3.3,162.6L47.7,9L42,14.8z"/>
					
						<linearGradient id="SVGID_74_" gradientUnits="userSpaceOnUse" x1="54.35" y1="9890.7998" x2="54.35" y2="9704" gradientTransform="matrix(1 0 0 1 0 -9704)">
						<stop  offset="0" style="stop-color:#187ABF"/>
						<stop  offset="0.6872" style="stop-color:#56A8DE"/>
						<stop  offset="1" style="stop-color:#187ABF"/>
					</linearGradient>
					<path class="st73" d="M51.4,6l3.4,180.8L57.3,0L51.4,6z"/>
				</g>
			</g>
		</g>
	</g>
</g>
</svg>
